{
.appVersion = "3328";
.formatVersion = 3;
DisplayStrings = (

glyphs = (
{
glyphname = A;
kernLeft = A;
kernRight = A;
lastChange = "2023-10-27 14:19:29 +0000";
layers = (
{
anchors = (
{
name = bottom;
pos = (294,14);
},
{
name = ogonek;
pos = (544,23);
},
{
name = top;
pos = (294,700);
}
);
background = {
hints = (
{
horizontal = 1;
place = (202,23);
type = Stem;
},
{
horizontal = 1;
place = (278,22);
type = Stem;
},
{
place = (32,357);
type = Stem;
}
);
shapes = (
{
closed = 1;
nodes = (
(518,15,ls),
(523,5,o),
(532,-1,o),
(543,-1,cs),
(547,-1,o),
(551,0,o),
(554,2,cs),
(564,6,o),
(570,16,o),
(570,27,cs),
(570,31,o),
(570,34,o),
(568,38,cs),
(320,617,ls),
(315,626,o),
(306,633,o),
(295,633,cs),
(291,633,o),
(287,632,o),
(284,630,cs),
(274,626,o),
(268,616,o),
(268,605,cs),
(268,601,o),
(268,598,o),
(270,594,cs)
);
},
{
closed = 1;
nodes = (
(22,38,ls),
(20,34,o),
(19,31,o),
(19,26,cs),
(19,13,o),
(30,-1,o),
(46,-1,cs),
(57,-1,o),
(67,5,o),
(71,15,cs),
(272,484,ls),
(274,487,o),
(275,491,o),
(275,495,cs),
(275,509,o),
(264,523,o),
(248,523,cs),
(237,523,o),
(227,516,o),
(222,506,cs)
);
},
{
closed = 1;
nodes = (
(221,259,ls),
(206,259,o),
(194,247,o),
(194,231,cs),
(194,216,o),
(206,204,o),
(221,204,cs),
(366,204,ls),
(381,204,o),
(393,216,o),
(393,231,cs),
(393,247,o),
(381,259,o),
(366,259,cs)
);
}
);
};
layerId = m01;
shapes = (
{
closed = 1;
nodes = (
(29,37,ls),
(28,34,o),
(27,31,o),
(27,27,cs),
(27,12,o),
(39,0,o),
(54,0,cs),
(66,0,o),
(76,7,o),
(80,17,cs),
(272,508,ls),
(273,511,o),
(274,514,o),
(274,518,cs),
(274,533,o),
(262,545,o),
(247,545,cs),
(235,545,o),
(225,538,o),
(221,528,cs)
);
},
{
closed = 1;
nodes = (
(373,191,ls),
(389,191,o),
(400,202,o),
(400,218,cs),
(400,233,o),
(389,245,o),
(373,245,cs),
(213,245,ls),
(198,245,o),
(186,233,o),
(186,218,cs),
(186,202,o),
(198,191,o),
(213,191,cs)
);
},
{
closed = 1;
nodes = (
(507,17,ls),
(511,7,o),
(521,0,o),
(532,0,cs),
(548,0,o),
(560,12,o),
(560,27,cs),
(560,31,o),
(559,34,o),
(558,37,cs),
(319,647,ls),
(315,657,o),
(306,664,o),
(294,664,cs),
(278,664,o),
(267,653,o),
(267,637,cs),
(267,634,o),
(268,630,o),
(268,627,cs)
);
}
);
width = 587;
}
);
note = A;
unicode = 65;
},
{
glyphname = AE;
kernLeft = A;
kernRight = E;
lastChange = "2023-10-27 14:16:26 +0000";
layers = (
{
anchors = (
{
name = bottom;
pos = (673,14);
},
{
name = ogonek;
pos = (820,23);
},
{
name = top;
pos = (523,700);
},
{
name = topleft;
pos = (378,645);
}
);
layerId = m01;
shapes = (
{
closed = 1;
nodes = (
(821,606,ls),
(836,606,o),
(848,617,o),
(848,633,cs),
(848,648,o),
(836,660,o),
(821,660,cs),
(544,660,ls),
(529,660,o),
(517,648,o),
(517,633,cs),
(517,617,o),
(529,606,o),
(544,606,cs)
);
},
{
closed = 1;
nodes = (
(544,382,ls),
(529,382,o),
(517,371,o),
(517,355,cs),
(517,340,o),
(529,328,o),
(544,328,cs),
(765,328,ls),
(780,328,o),
(792,340,o),
(792,355,cs),
(792,371,o),
(780,382,o),
(765,382,cs)
);
},
{
closed = 1;
nodes = (
(481,633,ls),
(481,648,o),
(469,660,o),
(454,660,cs),
(438,660,o),
(427,648,o),
(427,633,cs),
(427,27,ls),
(427,12,o),
(438,0,o),
(454,0,cs),
(469,0,o),
(481,12,o),
(481,27,cs)
);
},
{
closed = 1;
nodes = (
(544,54,ls),
(529,54,o),
(517,42,o),
(517,27,cs),
(517,12,o),
(529,0,o),
(544,0,cs),
(821,0,ls),
(836,0,o),
(848,12,o),
(848,27,cs),
(848,42,o),
(836,54,o),
(821,54,cs)
);
},
{
closed = 1;
nodes = (
(31,41,l),
(28,37,o),
(27,32,o),
(27,27,cs),
(27,12,o),
(39,0,o),
(54,0,cs),
(64,0,o),
(73,5,o),
(78,14,cs),
(391,553,l),
(394,557,o),
(395,562,o),
(395,567,cs),
(395,582,o),
(383,594,o),
(368,594,cs),
(358,594,o),
(349,589,o),
(344,580,cs)
);
},
{
closed = 1;
nodes = (
(373,191,ls),
(389,191,o),
(400,202,o),
(400,218,cs),
(400,233,o),
(389,245,o),
(373,245,cs),
(259,245,ls),
(243,245,o),
(231,233,o),
(231,218,cs),
(231,202,o),
(243,191,o),
(259,191,cs)
);
}
);
width = 902;
}
);
metricLeft = A;
metricRight = E;
unicode = 198;
},
{
glyphname = B;
kernLeft = H;
kernRight = B;
lastChange = "2023-10-27 14:19:29 +0000";
layers = (
{
anchors = (
{
name = bottom;
pos = (297,14);
},
{
name = center;
pos = (297,331);
},
{
name = top;
pos = (297,700);
}
);
background = {
hints = (
{
horizontal = 1;
place = (2,23);
type = Stem;
},
{
horizontal = 1;
place = (345,22);
type = Stem;
},
{
horizontal = 1;
place = (653,23);
type = Stem;
},
{
place = (56,22);
type = Stem;
},
{
place = (262,24);
type = Stem;
},
{
place = (327,23);
type = Stem;
},
{
place = (356,23);
type = Stem;
}
);
shapes = (
{
closed = 1;
nodes = (
(75,26,ls),
(75,11,o),
(87,-1,o),
(102,-1,cs),
(118,-1,o),
(129,11,o),
(129,26,cs),
(129,605,ls),
(129,620,o),
(118,632,o),
(102,632,cs),
(87,632,o),
(75,620,o),
(75,605,cs)
);
},
{
closed = 1;
nodes = (
(186,632,ls),
(171,632,o),
(159,620,o),
(159,605,cs),
(159,589,o),
(171,578,o),
(186,578,cs),
(325,578,ls),
(418,578,o),
(447,533,o),
(447,473,cs),
(447,419,o),
(407,380,o),
(325,380,cs),
(194,380,ls),
(179,380,o),
(167,368,o),
(167,353,cs),
(167,337,o),
(179,325,o),
(194,325,cs),
(325,325,ls),
(438,325,o),
(501,388,o),
(501,473,cs),
(501,551,o),
(459,632,o),
(325,632,cs)
);
},
{
closed = 1;
nodes = (
(499,194,ls),
(499,82,o),
(415,54,o),
(338,54,cs),
(193,54,ls),
(177,54,o),
(165,42,o),
(165,27,cs),
(165,12,o),
(177,0,o),
(193,0,cs),
(338,0,ls),
(470,0,o),
(554,72,o),
(554,195,cs),
(554,256,o),
(533,306,o),
(497,338,cs),
(492,343,o),
(485,345,o),
(479,345,cs),
(471,345,o),
(464,342,o),
(458,335,cs),
(454,330,o),
(451,324,o),
(451,317,cs),
(451,309,o),
(455,302,o),
(461,297,cs),
(483,278,o),
(499,244,o),
(499,195,cs)
);
},
{
closed = 1;
nodes = (
(331,14,ls),
(466,14,o),
(520,104,o),
(520,189,cs),
(520,269,o),
(466,355,o),
(331,355,cs),
(99,355,l),
(310,355,ls),
(432,355,o),
(476,419,o),
(476,488,cs),
(476,558,o),
(432,619,o),
(310,619,cs),
(260,619,l),
(99,619,l),
(99,14,l),
(276,14,l)
);
}
);
};
layerId = m01;
shapes = (
{
closed = 1;
nodes = (
(481,274,o),
(493,240,o),
(493,202,cs),
(493,125,o),
(450,54,o),
(331,54,cs),
(276,54,l),
(190,54,ls),
(174,54,o),
(163,42,o),
(163,27,cs),
(163,12,o),
(174,0,o),
(190,0,cs),
(276,0,l),
(331,0,ls),
(484,0,o),
(547,105,o),
(547,202,cs),
(547,251,o),
(529,304,o),
(489,342,cs),
(484,346,o),
(477,349,o),
(470,349,cs),
(455,349,o),
(443,337,o),
(443,322,cs),
(443,314,o),
(447,307,o),
(451,302,c)
);
},
{
closed = 1;
nodes = (
(310,342,ls),
(450,342,o),
(504,420,o),
(504,502,cs),
(504,584,o),
(450,660,o),
(310,660,cs),
(260,660,l),
(190,660,ls),
(174,660,o),
(163,648,o),
(163,633,cs),
(163,617,o),
(174,606,o),
(190,606,cs),
(260,606,l),
(310,606,ls),
(419,606,o),
(449,562,o),
(449,502,cs),
(449,440,o),
(418,396,o),
(310,396,cs),
(190,396,ls),
(174,396,o),
(163,384,o),
(163,369,cs),
(163,353,o),
(174,342,o),
(190,342,cs)
);
},
{
closed = 1;
nodes = (
(127,633,ls),
(127,648,o),
(115,660,o),
(99,660,cs),
(84,660,o),
(72,648,o),
(72,633,cs),
(72,27,ls),
(72,12,o),
(84,0,o),
(99,0,cs),
(115,0,o),
(127,12,o),
(127,27,cs)
);
}
);
width = 583;
}
);
note = B;
unicode = 66;
},
{
glyphname = C;
kernLeft = O;
kernRight = C;
lastChange = "2023-10-27 14:19:29 +0000";
layers = (
{
anchors = (
{
name = bottom;
pos = (353,14);
},
{
name = top;
pos = (353,700);
}
);
background = {
hints = (
{
horizontal = 1;
place = (2,23);
type = Stem;
},
{
horizontal = 1;
place = (653,24);
type = Stem;
},
{
place = (40,23);
type = Stem;
},
{
place = (134,24);
type = Stem;
}
);
shapes = (
{
closed = 1;
nodes = (
(50,131,o),
(173,5,o),
(331,2,cs),
(403,0,o),
(478,24,o),
(538,83,cs),
(543,89,o),
(546,96,o),
(546,103,cs),
(546,109,o),
(543,117,o),
(538,122,cs),
(532,127,o),
(525,130,o),
(519,130,cs),
(512,130,o),
(504,127,o),
(499,122,cs),
(453,76,o),
(391,54,o),
(333,54,cs),
(196,57,o),
(104,170,o),
(99,313,cs),
(99,442,o),
(186,578,o),
(332,578,cs),
(379,578,o),
(419,562,o),
(449,543,cs),
(454,541,o),
(459,539,o),
(464,539,cs),
(473,539,o),
(482,543,o),
(487,551,cs),
(490,556,o),
(492,561,o),
(492,566,cs),
(492,575,o),
(487,584,o),
(479,589,cs),
(436,617,o),
(384,633,o),
(332,633,cs),
(160,633,o),
(44,480,o),
(44,314,cs)
);
},
{
closed = 0;
nodes = (
(604,414,l),
(604,520,o),
(510,624,o),
(365,624,cs),
(193,624,o),
(72,497,o),
(72,316,cs),
(72,136,o),
(193,9,o),
(365,9,cs),
(510,9,o),
(604,113,o),
(604,219,c)
);
}
);
};
layerId = m01;
shapes = (
{
closed = 1;
nodes = (
(577,137,o),
(498,50,o),
(365,50,cs),
(204,50,o),
(99,160,o),
(99,330,cs),
(99,500,o),
(204,610,o),
(365,610,cs),
(498,610,o),
(577,523,o),
(577,428,cs),
(577,412,o),
(589,400,o),
(604,400,cs),
(619,400,o),
(631,412,o),
(631,428,cs),
(631,548,o),
(525,664,o),
(365,664,cs),
(177,664,o),
(45,525,o),
(45,330,cs),
(45,135,o),
(177,-5,o),
(365,-5,cs),
(525,-5,o),
(631,112,o),
(631,232,cs),
(631,248,o),
(619,259,o),
(604,259,cs),
(589,259,o),
(577,248,o),
(577,232,cs)
);
}
);
width = 667;
}
);
note = C;
unicode = 67;
},
{
glyphname = D;
kernLeft = H;
kernRight = O;
lastChange = "2023-10-27 14:19:29 +0000";
layers = (
{
anchors = (
{
name = bottom;
pos = (320,14);
},
{
name = center;
pos = (320,331);
},
{
name = top;
pos = (293,700);
}
);
background = {
hints = (
{
horizontal = 1;
place = (2,21);
target = up;
type = BottomGhost;
},
{
horizontal = 1;
place = (653,24);
type = Stem;
},
{
place = (56,22);
type = Stem;
},
{
place = (313,22);
type = Stem;
},
{
place = (385,23);
type = Stem;
},
{
horizontal = 1;
place = (3,22);
type = Stem;
}
);
shapes = (
{
closed = 1;
nodes = (
(74,29,ls),
(74,14,o),
(86,2,o),
(101,2,cs),
(117,2,o),
(128,14,o),
(128,29,cs),
(128,607,ls),
(128,623,o),
(117,635,o),
(101,635,cs),
(86,635,o),
(74,623,o),
(74,607,cs)
);
},
{
closed = 1;
nodes = (
(215,579,ls),
(379,579,o),
(446,463,o),
(446,315,cs),
(446,313,ls),
(446,174,o),
(376,54,o),
(244,54,cs),
(178,54,ls),
(163,54,o),
(151,42,o),
(151,27,cs),
(151,12,o),
(163,0,o),
(178,0,c),
(247,0,ls),
(400,0,o),
(498,154,o),
(498,315,cs),
(498,316,ls),
(498,492,o),
(405,633,o),
(217,633,cs),
(184,633,ls),
(169,633,o),
(157,621,o),
(157,606,cs),
(157,590,o),
(169,579,o),
(184,579,cs)
);
},
{
closed = 0;
nodes = (
(99,619,l),
(99,14,l)
);
},
{
closed = 0;
nodes = (
(190,14,l),
(293,14,ls),
(457,14,o),
(565,156,o),
(565,315,cs),
(565,317,ls),
(565,477,o),
(457,619,o),
(293,619,cs),
(190,619,l)
);
}
);
};
layerId = m01;
shapes = (
{
closed = 1;
nodes = (
(127,633,ls),
(127,648,o),
(115,660,o),
(99,660,cs),
(84,660,o),
(72,648,o),
(72,633,cs),
(72,27,ls),
(72,12,o),
(84,0,o),
(99,0,cs),
(115,0,o),
(127,12,o),
(127,27,cs)
);
},
{
closed = 1;
nodes = (
(293,606,ls),
(443,606,o),
(538,482,o),
(538,331,cs),
(538,329,ls),
(538,179,o),
(443,54,o),
(293,54,cs),
(190,54,ls),
(174,54,o),
(163,42,o),
(163,27,cs),
(163,12,o),
(174,0,o),
(190,0,cs),
(293,0,ls),
(474,0,o),
(592,157,o),
(592,329,cs),
(592,331,ls),
(592,504,o),
(474,660,o),
(293,660,cs),
(190,660,ls),
(174,660,o),
(163,648,o),
(163,633,cs),
(163,617,o),
(174,606,o),
(190,606,cs)
);
}
);
width = 637;
}
);
note = D;
unicode = 68;
},
{
glyphname = Eth;
kernLeft = H;
kernRight = O;
lastChange = "2023-10-27 14:16:26 +0000";
layers = (
{
layerId = m01;
shapes = (
{
pos = (106,0);
ref = D;
},
{
closed = 1;
nodes = (
(45,358,ls),
(30,358,o),
(18,346,o),
(18,331,cs),
(18,315,o),
(30,304,o),
(45,304,cs),
(129,304,ls),
(145,304,o),
(156,315,o),
(156,331,cs),
(156,346,o),
(145,358,o),
(129,358,cs)
);
},
{
closed = 1;
nodes = (
(292,358,ls),
(277,358,o),
(265,346,o),
(265,331,cs),
(265,315,o),
(277,304,o),
(292,304,cs),
(376,304,ls),
(391,304,o),
(403,315,o),
(403,331,cs),
(403,346,o),
(391,358,o),
(376,358,cs)
);
}
);
width = 743;
}
);
unicode = 208;
},
{
glyphname = E;
kernLeft = H;
kernRight = E;
lastChange = "2023-10-27 14:19:29 +0000";
layers = (
{
anchors = (
{
name = bottom;
pos = (320,14);
},
{
name = ogonek;
pos = (448,23);
},
{
name = top;
pos = (320,700);
},
{
name = topleft;
pos = (24,645);
}
);
background = {
hints = (
{
horizontal = 1;
place = (2,24);
type = Stem;
},
{
horizontal = 1;
place = (333,24);
type = Stem;
},
{
horizontal = 1;
place = (405,24);
type = Stem;
},
{
horizontal = 1;
place = (653,24);
type = Stem;
},
{
place = (56,22);
type = Stem;
}
);
shapes = (
{
closed = 1;
nodes = (
(45,27,ls),
(45,12,o),
(57,0,o),
(72,0,cs),
(88,0,o),
(99,12,o),
(99,27,cs),
(99,606,ls),
(99,621,o),
(88,633,o),
(72,633,cs),
(57,633,o),
(45,621,o),
(45,606,cs)
);
},
{
closed = 1;
nodes = (
(150,633,ls),
(135,633,o),
(123,621,o),
(123,606,cs),
(123,590,o),
(135,579,o),
(150,579,cs),
(437,579,ls),
(452,579,o),
(464,590,o),
(464,606,cs),
(464,621,o),
(452,633,o),
(437,633,cs)
);
},
{
closed = 1;
nodes = (
(150,365,ls),
(135,365,o),
(123,353,o),
(123,338,cs),
(123,323,o),
(135,311,o),
(150,311,cs),
(383,311,ls),
(399,311,o),
(410,323,o),
(410,338,cs),
(410,353,o),
(399,365,o),
(383,365,cs)
);
},
{
closed = 1;
nodes = (
(148,54,ls),
(133,54,o),
(121,42,o),
(121,27,cs),
(121,12,o),
(133,0,o),
(148,0,cs),
(438,0,ls),
(453,0,o),
(465,12,o),
(465,27,cs),
(465,42,o),
(453,54,o),
(438,54,cs)
);
},
{
closed = 0;
nodes = (
(466,619,l),
(190,619,l)
);
},
{
closed = 0;
nodes = (
(190,342,l),
(410,342,l)
);
},
{
closed = 0;
nodes = (
(99,619,l),
(99,14,l)
);
},
{
closed = 0;
nodes = (
(190,14,l),
(466,14,l)
);
}
);
};
layerId = m01;
shapes = (
{
closed = 1;
nodes = (
(466,606,ls),
(482,606,o),
(494,617,o),
(494,633,cs),
(494,648,o),
(482,660,o),
(466,660,cs),
(190,660,ls),
(174,660,o),
(163,648,o),
(163,633,cs),
(163,617,o),
(174,606,o),
(190,606,cs)
);
},
{
closed = 1;
nodes = (
(190,382,ls),
(174,382,o),
(163,371,o),
(163,355,cs),
(163,340,o),
(174,328,o),
(190,328,cs),
(410,328,ls),
(426,328,o),
(438,340,o),
(438,355,cs),
(438,371,o),
(426,382,o),
(410,382,cs)
);
},
{
closed = 1;
nodes = (
(127,633,ls),
(127,648,o),
(115,660,o),
(99,660,cs),
(84,660,o),
(72,648,o),
(72,633,cs),
(72,27,ls),
(72,12,o),
(84,0,o),
(99,0,cs),
(115,0,o),
(127,12,o),
(127,27,cs)
);
},
{
closed = 1;
nodes = (
(190,54,ls),
(174,54,o),
(163,42,o),
(163,27,cs),
(163,12,o),
(174,0,o),
(190,0,cs),
(466,0,ls),
(482,0,o),
(494,12,o),
(494,27,cs),
(494,42,o),
(482,54,o),
(466,54,cs)
);
}
);
width = 548;
}
);
note = E;
unicode = 69;
},
{
color = 4;
glyphname = Schwa;
lastChange = "2024-12-06 21:19:49 +0000";
layers = (
{
layerId = m01;
shapes = (
{
closed = 1;
nodes = (
(25,96,o),
(160,-16,o),
(315,-16,cs),
(512,-16,o),
(638,140,o),
(638,329,cs),
(638,517,o),
(512,673,o),
(315,673,cs),
(108,673,o),
(25,533,o),
(25,437,cs),
(25,420,o),
(38,407,o),
(55,407,cs),
(72,407,o),
(85,420,o),
(85,437,cs),
(85,508,o),
(150,613,o),
(315,613,cs),
(476,613,o),
(578,487,o),
(578,329,cs),
(578,170,o),
(476,44,o),
(315,44,cs),
(190,44,o),
(85,132,o),
(85,297,cs),
(85,314,o),
(72,327,o),
(55,327,cs),
(38,327,o),
(25,314,o),
(25,297,cs)
);
},
{
closed = 1;
nodes = (
(150,327,ls),
(133,327,o),
(120,314,o),
(120,297,cs),
(120,280,o),
(133,267,o),
(150,267,cs),
(508,267,ls),
(525,267,o),
(538,280,o),
(538,297,cs),
(538,314,o),
(525,327,o),
(508,327,cs)
);
}
);
width = 665;
}
);
unicode = 399;
},
{
glyphname = F;
kernLeft = H;
kernRight = F;
lastChange = "2024-12-09 11:03:20 +0000";
layers = (
{
anchors = (
{
name = bottom;
pos = (277,14);
},
{
name = top;
pos = (277,700);
}
);
background = {
hints = (
{
horizontal = 1;
place = (333,24);
type = Stem;
},
{
horizontal = 1;
place = (548,22);
type = Stem;
},
{
horizontal = 1;
place = (653,24);
type = Stem;
},
{
place = (56,22);
type = Stem;
}
);
shapes = (
{
closed = 1;
nodes = (
(75,27,ls),
(75,12,o),
(87,0,o),
(102,0,cs),
(118,0,o),
(129,12,o),
(129,27,cs),
(129,606,ls),
(129,621,o),
(118,633,o),
(102,633,cs),
(87,633,o),
(75,621,o),
(75,606,cs)
);
},
{
closed = 1;
nodes = (
(180,633,ls),
(165,633,o),
(153,621,o),
(153,606,cs),
(153,590,o),
(165,579,o),
(180,579,cs),
(452,579,ls),
(467,579,o),
(479,590,o),
(479,606,cs),
(479,621,o),
(467,633,o),
(452,633,cs)
);
},
{
closed = 1;
nodes = (
(180,365,ls),
(165,365,o),
(153,353,o),
(153,338,cs),
(153,323,o),
(165,311,o),
(180,311,cs),
(399,311,ls),
(414,311,o),
(426,323,o),
(426,338,cs),
(426,353,o),
(414,365,o),
(399,365,cs)
);
},
{
closed = 0;
nodes = (
(466,619,l),
(190,619,l)
);
},
{
closed = 0;
nodes = (
(190,342,l),
(427,342,l)
);
},
{
closed = 0;
nodes = (
(99,619,l),
(99,14,l)
);
}
);
};
layerId = m01;
shapes = (
{
closed = 1;
nodes = (
(466,606,ls),
(482,606,o),
(494,617,o),
(494,633,cs),
(494,648,o),
(482,660,o),
(466,660,cs),
(183,660,ls),
(167,660,o),
(156,648,o),
(156,633,cs),
(156,617,o),
(167,606,o),
(183,606,cs)
);
},
{
closed = 1;
nodes = (
(183,382,ls),
(167,382,o),
(156,371,o),
(156,355,cs),
(156,340,o),
(167,328,o),
(183,328,cs),
(427,328,ls),
(442,328,o),
(454,340,o),
(454,355,cs),
(454,371,o),
(442,382,o),
(427,382,cs)
);
},
{
closed = 1;
nodes = (
(127,633,ls),
(127,648,o),
(115,660,o),
(99,660,cs),
(84,660,o),
(72,648,o),
(72,633,cs),
(72,27,ls),
(72,12,o),
(84,0,o),
(99,0,cs),
(115,0,o),
(127,12,o),
(127,27,cs)
);
}
);
width = 521;
}
);
note = F;
unicode = 70;
},
{
glyphname = G;
kernLeft = O;
kernRight = G;
lastChange = "2024-12-09 11:06:07 +0000";
layers = (
{
anchors = (
{
name = bottom;
pos = (365,14);
},
{
name = top;
pos = (365,700);
}
);
background = {
hints = (
{
horizontal = 1;
place = (3,23);
type = Stem;
},
{
horizontal = 1;
place = (212,22);
type = Stem;
},
{
horizontal = 1;
place = (295,22);
type = Stem;
},
{
horizontal = 1;
place = (653,24);
type = Stem;
},
{
place = (40,23);
type = Stem;
},
{
place = (372,24);
type = Stem;
}
);
shapes = (
{
closed = 1;
nodes = (
(567,308,ls),
(567,324,o),
(555,335,o),
(540,335,cs),
(524,335,o),
(513,324,o),
(513,308,cs),
(513,216,ls),
(513,115,o),
(426,57,o),
(336,57,cs),
(212,57,o),
(101,174,o),
(101,310,cs),
(101,448,o),
(193,581,o),
(335,581,cs),
(373,581,o),
(411,568,o),
(451,543,cs),
(456,541,o),
(461,539,o),
(466,539,cs),
(475,539,o),
(484,543,o),
(489,551,cs),
(492,556,o),
(494,561,o),
(494,566,cs),
(494,575,o),
(489,584,o),
(481,589,cs),
(436,617,o),
(383,633,o),
(334,633,cs),
(165,633,o),
(48,485,o),
(48,312,cs),
(48,137,o),
(174,2,o),
(336,2,cs),
(465,2,o),
(567,89,o),
(567,217,cs)
);
},
{
closed = 1;
nodes = (
(284,336,ls),
(268,336,o),
(256,325,o),
(256,309,cs),
(256,294,o),
(268,281,o),
(283,281,cs),
(454,281,ls),
(469,281,o),
(482,292,o),
(482,307,cs),
(482,323,o),
(470,336,o),
(455,336,cs)
);
},
{
closed = 0;
nodes = (
(302,305,l),
(496,305,l)
);
},
{
closed = 0;
nodes = (
(587,305,l),
(587,212,ls),
(587,106,o),
(510,9,o),
(365,9,cs),
(193,9,o),
(72,136,o),
(72,316,cs),
(72,497,o),
(193,624,o),
(365,624,cs),
(501,624,o),
(595,520,o),
(595,414,c)
);
}
);
};
layerId = m01;
shapes = (
{
closed = 1;
nodes = (
(302,335,ls),
(287,335,o),
(275,324,o),
(275,308,cs),
(275,293,o),
(287,281,o),
(302,281,cs),
(506,281,ls),
(522,281,o),
(533,293,o),
(533,308,cs),
(533,324,o),
(522,335,o),
(506,335,cs)
);
},
{
closed = 1;
nodes = (
(612,558,o),
(516,664,o),
(355,664,cs),
(177,664,o),
(45,525,o),
(45,330,cs),
(45,135,o),
(177,-5,o),
(355,-5,cs),
(526,-5,o),
(614,107,o),
(614,245,cs),
(614,308,ls),
(614,324,o),
(602,335,o),
(587,335,cs),
(571,335,o),
(560,324,o),
(560,308,cs),
(560,245,ls),
(560,128,o),
(497,50,o),
(355,50,cs),
(204,50,o),
(100,160,o),
(100,330,cs),
(100,500,o),
(204,609,o),
(355,609,cs),
(489,609,o),
(558,523,o),
(558,438,cs),
(558,422,o),
(569,410,o),
(585,410,cs),
(600,410,o),
(612,422,o),
(612,438,cs)
);
}
);
width = 667;
}
);
note = G;
unicode = 71;
},
{
glyphname = H;
kernLeft = H;
kernRight = H;
lastChange = "2023-10-27 14:19:29 +0000";
layers = (
{
anchors = (
{
name = bottom;
pos = (296,14);
},
{
name = center;
pos = (296,331);
},
{
name = top;
pos = (296,700);
},
{
name = topleft;
pos = (24,645);
}
);
background = {
hints = (
{
horizontal = 1;
place = (240,22);
type = Stem;
},
{
horizontal = 1;
place = (334,22);
type = Stem;
},
{
place = (56,22);
type = Stem;
},
{
place = (336,22);
type = Stem;
}
);
shapes = (
{
closed = 1;
nodes = (
(74,27,ls),
(74,12,o),
(86,0,o),
(101,0,cs),
(117,0,o),
(128,12,o),
(128,27,cs),
(128,606,ls),
(128,621,o),
(117,633,o),
(101,633,cs),
(86,633,o),
(74,621,o),
(74,606,cs)
);
},
{
closed = 1;
nodes = (
(468,27,ls),
(468,12,o),
(480,0,o),
(495,0,cs),
(511,0,o),
(523,12,o),
(523,27,cs),
(523,606,ls),
(523,621,o),
(511,633,o),
(495,633,cs),
(480,633,o),
(468,621,o),
(468,606,cs)
);
},
{
closed = 1;
nodes = (
(179,365,ls),
(164,365,o),
(152,353,o),
(152,338,cs),
(152,323,o),
(164,311,o),
(179,311,cs),
(419,311,ls),
(435,311,o),
(447,323,o),
(447,338,cs),
(447,353,o),
(435,365,o),
(419,365,cs)
);
},
{
closed = 0;
nodes = (
(99,14,l),
(99,619,l)
);
},
{
closed = 0;
nodes = (
(492,14,l),
(492,619,l)
);
},
{
closed = 0;
nodes = (
(190,326,l),
(401,326,l)
);
}
);
};
layerId = m01;
shapes = (
{
closed = 1;
nodes = (
(72,27,ls),
(72,12,o),
(84,0,o),
(99,0,cs),
(115,0,o),
(127,12,o),
(127,27,cs),
(127,633,ls),
(127,648,o),
(115,660,o),
(99,660,cs),
(84,660,o),
(72,648,o),
(72,633,cs)
);
},
{
closed = 1;
nodes = (
(465,27,ls),
(465,12,o),
(476,0,o),
(492,0,cs),
(507,0,o),
(519,12,o),
(519,27,cs),
(519,633,ls),
(519,648,o),
(507,660,o),
(492,660,cs),
(476,660,o),
(465,648,o),
(465,633,cs)
);
},
{
closed = 1;
nodes = (
(190,367,ls),
(174,367,o),
(163,355,o),
(163,340,cs),
(163,325,o),
(174,313,o),
(190,313,cs),
(401,313,ls),
(417,313,o),
(428,325,o),
(428,340,cs),
(428,355,o),
(417,367,o),
(401,367,cs)
);
}
);
width = 591;
}
);
note = H;
unicode = 72;
},
{
glyphname = Hbar;
kernLeft = H;
kernRight = H;
lastChange = "2023-10-27 14:16:26 +0000";
layers = (
{
layerId = m01;
shapes = (
{
closed = 1;
nodes = (
(192,494,ls),
(176,494,o),
(165,482,o),
(165,466,cs),
(165,451,o),
(176,439,o),
(192,439,cs),
(403,439,ls),
(419,439,o),
(430,451,o),
(430,466,cs),
(430,482,o),
(419,494,o),
(403,494,cs)
);
},
{
ref = H;
}
);
width = 591;
}
);
unicode = 294;
},
{
glyphname = I;
kernLeft = H;
kernRight = H;
lastChange = "2023-10-27 14:19:29 +0000";
layers = (
{
anchors = (
{
name = bottom;
pos = (99,14);
},
{
name = ogonek;
pos = (132,27);
},
{
name = top;
pos = (99,700);
},
{
name = topleft;
pos = (24,645);
}
);
background = {
hints = (
{
horizontal = 1;
place = (2,674);
type = Stem;
},
{
place = (56,22);
type = Stem;
}
);
shapes = (
{
closed = 1;
nodes = (
(75,27,ls),
(75,12,o),
(87,0,o),
(102,0,cs),
(118,0,o),
(129,12,o),
(129,27,cs),
(129,606,ls),
(129,621,o),
(118,633,o),
(102,633,cs),
(87,633,o),
(75,621,o),
(75,606,cs)
);
},
{
closed = 0;
nodes = (
(99,14,l),
(99,619,l)
);
}
);
};
layerId = m01;
shapes = (
{
closed = 1;
nodes = (
(72,27,ls),
(72,12,o),
(84,0,o),
(99,0,cs),
(115,0,o),
(127,12,o),
(127,27,cs),
(127,633,ls),
(127,648,o),
(115,660,o),
(99,660,cs),
(84,660,o),
(72,648,o),
(72,633,cs)
);
}
);
width = 199;
}
);
note = I;
unicode = 73;
},
{
glyphname = J;
kernLeft = J;
kernRight = J;
lastChange = "2023-10-27 14:19:29 +0000";
layers = (
{
anchors = (
{
name = bottom;
pos = (291,14);
},
{
name = top;
pos = (291,700);
}
);
background = {
hints = (
{
horizontal = 1;
place = (2,24);
type = Stem;
},
{
horizontal = 1;
place = (653,24);
type = Stem;
},
{
place = (239,22);
type = Stem;
},
{
place = (308,23);
type = Stem;
}
);
shapes = (
{
closed = 1;
nodes = (
(381,202,ls),
(381,186,o),
(393,174,o),
(409,174,cs),
(424,174,o),
(436,186,o),
(436,202,cs),
(436,606,ls),
(436,621,o),
(424,633,o),
(409,633,cs),
(393,633,o),
(381,621,o),
(381,606,cs)
);
},
{
closed = 1;
nodes = (
(313,1,o),
(376,45,o),
(407,99,cs),
(410,103,o),
(410,108,o),
(410,111,cs),
(410,125,o),
(400,138,o),
(384,138,cs),
(374,138,o),
(365,133,o),
(361,125,cs),
(334,81,o),
(290,52,o),
(234,52,cs),
(157,52,o),
(92,112,o),
(86,188,cs),
(85,202,o),
(72,212,o),
(59,212,cs),
(43,212,o),
(32,199,o),
(33,184,cs),
(42,80,o),
(129,1,o),
(233,1,cs)
);
},
{
closed = 0;
nodes = (
(7,220,ls),
(7,90,o),
(89,9,o),
(201,9,cs),
(340,9,o),
(412,90,o),
(412,229,cs),
(412,619,l)
);
}
);
};
layerId = m01;
shapes = (
{
closed = 1;
nodes = (
(346,78,o),
(304,50,o),
(230,50,cs),
(145,50,o),
(90,104,o),
(90,204,cs),
(90,220,o),
(79,231,o),
(63,231,cs),
(48,231,o),
(36,220,o),
(36,204,cs),
(36,79,o),
(119,-5,o),
(230,-5,cs),
(323,-5,o),
(387,38,o),
(418,97,cs),
(419,100,o),
(420,105,o),
(420,109,cs),
(420,125,o),
(409,137,o),
(393,137,cs),
(382,137,o),
(373,130,o),
(369,122,cs)
);
},
{
closed = 1;
nodes = (
(385,188,ls),
(385,173,o),
(397,161,o),
(412,161,cs),
(428,161,o),
(439,173,o),
(439,188,cs),
(439,633,ls),
(439,648,o),
(428,660,o),
(412,660,cs),
(397,660,o),
(385,648,o),
(385,633,cs)
);
}
);
width = 512;
}
);
note = J;
unicode = 74;
},
{
glyphname = K;
kernLeft = H;
kernRight = K;
lastChange = "2023-10-27 14:19:29 +0000";
layers = (
{
anchors = (
{
name = bottom;
pos = (277,14);
},
{
name = top;
pos = (277,700);
}
);
background = {
hints = (
{
horizontal = 1;
place = (676,-20);
target = down;
type = TopGhost;
},
{
place = (56,22);
type = Stem;
},
{
place = (245,22);
type = Stem;
}
);
shapes = (
{
closed = 1;
nodes = (
(151,363,ls),
(146,358,o),
(143,351,o),
(143,344,cs),
(143,337,o),
(146,330,o),
(151,325,cs),
(156,319,o),
(164,316,o),
(171,316,cs),
(177,316,o),
(184,319,o),
(190,325,cs),
(453,588,ls),
(458,593,o),
(461,600,o),
(461,607,cs),
(461,614,o),
(458,621,o),
(453,626,cs),
(447,632,o),
(440,635,o),
(434,635,cs),
(427,635,o),
(419,632,o),
(414,626,cs)
);
},
{
closed = 1;
nodes = (
(75,27,ls),
(75,12,o),
(87,0,o),
(102,0,cs),
(118,0,o),
(129,12,o),
(129,27,cs),
(129,606,ls),
(129,621,o),
(118,633,o),
(102,633,cs),
(87,633,o),
(75,621,o),
(75,606,cs)
);
},
{
closed = 1;
nodes = (
(468,8,ls),
(474,3,o),
(481,0,o),
(488,0,cs),
(494,0,o),
(502,3,o),
(507,8,cs),
(513,14,o),
(515,21,o),
(515,28,cs),
(515,34,o),
(513,42,o),
(507,47,cs),
(249,306,ls),
(243,311,o),
(236,314,o),
(230,314,cs),
(222,314,o),
(215,311,o),
(210,306,cs),
(204,300,o),
(202,293,o),
(202,287,cs),
(202,279,o),
(204,272,o),
(210,267,cs)
);
},
{
closed = 0;
nodes = (
(99,619,l),
(99,14,l)
);
},
{
closed = 0;
nodes = (
(457,619,l),
(99,271,l)
);
},
{
closed = 0;
nodes = (
(501,14,l),
(173,341,l)
);
},
{
closed = 0;
nodes = (
(99,619,l),
(99,14,l)
);
},
{
closed = 0;
nodes = (
(457,619,l),
(172,342,l)
);
},
{
closed = 0;
nodes = (
(501,14,l),
(228,286,l)
);
}
);
};
layerId = m01;
shapes = (
{
closed = 1;
nodes = (
(127,633,ls),
(127,648,o),
(115,660,o),
(99,660,cs),
(84,660,o),
(72,648,o),
(72,633,cs),
(72,27,ls),
(72,12,o),
(84,0,o),
(99,0,cs),
(115,0,o),
(127,12,o),
(127,27,cs)
);
},
{
closed = 1;
nodes = (
(476,613,ls),
(482,618,o),
(485,626,o),
(485,633,cs),
(485,648,o),
(473,660,o),
(457,660,cs),
(450,660,o),
(443,657,o),
(438,653,cs),
(153,375,ls),
(147,370,o),
(145,363,o),
(145,355,cs),
(145,340,o),
(156,328,o),
(172,328,cs),
(179,328,o),
(186,331,o),
(191,335,cs)
);
},
{
closed = 1;
nodes = (
(482,8,l),
(486,3,o),
(494,0,o),
(501,0,cs),
(516,0,o),
(528,12,o),
(528,27,cs),
(528,34,o),
(525,42,o),
(520,46,cs),
(247,318,l),
(242,324,o),
(235,326,o),
(228,326,cs),
(212,326,o),
(201,315,o),
(201,299,cs),
(201,292,o),
(203,285,o),
(209,280,cs)
);
}
);
width = 555;
}
);
note = K;
unicode = 75;
},
{
glyphname = L;
kernLeft = H;
kernRight = L;
lastChange = "2023-10-27 14:19:29 +0000";
layers = (
{
anchors = (
{
name = bottom;
pos = (293,14);
},
{
name = center;
pos = (251,331);
},
{
name = top;
pos = (166,700);
},
{
name = topright;
pos = (479,645);
}
);
background = {
hints = (
{
horizontal = 1;
place = (2,24);
type = Stem;
},
{
horizontal = 1;
place = (114,22);
type = Stem;
},
{
place = (56,22);
type = Stem;
}
);
shapes = (
{
closed = 1;
nodes = (
(75,27,ls),
(75,12,o),
(87,0,o),
(102,0,cs),
(118,0,o),
(129,12,o),
(129,27,cs),
(129,606,ls),
(129,621,o),
(118,633,o),
(102,633,cs),
(87,633,o),
(75,621,o),
(75,606,cs)
);
},
{
closed = 1;
nodes = (
(193,54,ls),
(177,54,o),
(165,42,o),
(165,27,cs),
(165,12,o),
(177,0,o),
(193,0,cs),
(465,0,ls),
(480,0,o),
(492,12,o),
(492,27,cs),
(492,42,o),
(480,54,o),
(465,54,cs)
);
},
{
closed = 0;
nodes = (
(99,619,l),
(99,14,l),
(485,14,l)
);
}
);
};
layerId = m01;
shapes = (
{
closed = 1;
nodes = (
(127,633,ls),
(127,648,o),
(115,660,o),
(99,660,cs),
(84,660,o),
(72,648,o),
(72,633,cs),
(72,27,ls),
(72,12,o),
(84,0,o),
(99,0,cs),
(115,0,o),
(127,12,o),
(127,27,cs)
);
},
{
closed = 1;
nodes = (
(190,54,ls),
(174,54,o),
(163,42,o),
(163,27,cs),
(163,12,o),
(174,0,o),
(190,0,cs),
(485,0,ls),
(500,0,o),
(512,12,o),
(512,27,cs),
(512,42,o),
(500,54,o),
(485,54,cs)
);
}
);
width = 530;
}
);
note = L;
unicode = 76;
},
{
glyphname = Lslash;
kernLeft = H;
kernRight = L;
lastChange = "2023-10-27 14:16:26 +0000";
layers = (
{
layerId = m01;
shapes = (
{
pos = (83,0);
ref = L;
},
{
closed = 1;
nodes = (
(28,230,ls),
(22,225,o),
(18,217,o),
(18,209,cs),
(18,193,o),
(30,182,o),
(45,182,cs),
(52,182,o),
(58,184,o),
(62,188,cs),
(127,242,ls),
(134,247,o),
(137,255,o),
(137,263,cs),
(137,278,o),
(126,290,o),
(110,290,cs),
(104,290,o),
(98,287,o),
(93,284,cs)
);
},
{
closed = 1;
nodes = (
(246,409,ls),
(240,404,o),
(237,397,o),
(237,389,cs),
(237,373,o),
(249,362,o),
(264,362,cs),
(271,362,o),
(278,364,o),
(282,369,cs),
(348,428,ls),
(353,433,o),
(357,440,o),
(357,448,cs),
(357,464,o),
(345,476,o),
(330,476,cs),
(323,476,o),
(316,473,o),
(312,468,cs)
);
}
);
width = 613;
}
);
metricRight = L;
unicode = 321;
},
{
glyphname = M;
kernLeft = H;
kernRight = H;
lastChange = "2023-10-27 14:19:29 +0000";
layers = (
{
anchors = (
{
name = bottom;
pos = (405,14);
},
{
name = top;
pos = (405,699);
}
);
background = {
anchors = (
{
name = bottom;
pos = (337,1);
},
{
name = top;
pos = (337,686);
}
);
hints = (
{
horizontal = 1;
place = (675,-20);
target = down;
type = TopGhost;
},
{
place = (56,23);
type = Stem;
},
{
place = (226,24);
type = Stem;
},
{
place = (396,23);
type = Stem;
}
);
shapes = (
{
closed = 1;
nodes = (
(438,154,ls),
(436,149,o),
(434,146,o),
(434,141,cs),
(434,127,o),
(445,113,o),
(462,113,cs),
(472,113,o),
(481,119,o),
(486,128,cs),
(728,593,ls),
(730,598,o),
(731,601,o),
(731,606,cs),
(731,620,o),
(720,634,o),
(703,634,cs),
(693,634,o),
(684,627,o),
(679,618,cs)
);
},
{
closed = 1;
nodes = (
(75,27,ls),
(75,12,o),
(87,0,o),
(102,0,cs),
(118,0,o),
(129,12,o),
(129,27,cs),
(129,606,ls),
(129,621,o),
(118,633,o),
(102,633,cs),
(87,633,o),
(75,621,o),
(75,606,cs)
);
},
{
closed = 1;
nodes = (
(372,14,ls),
(377,5,o),
(387,-1,o),
(397,-1,cs),
(400,-1,o),
(405,0,o),
(409,2,cs),
(419,6,o),
(424,16,o),
(424,26,cs),
(424,30,o),
(423,34,o),
(421,38,cs),
(204,467,ls),
(200,477,o),
(190,483,o),
(180,483,cs),
(176,483,o),
(172,482,o),
(168,480,cs),
(158,476,o),
(153,466,o),
(153,456,cs),
(153,452,o),
(154,447,o),
(155,444,cs)
);
},
{
closed = 1;
nodes = (
(676,27,ls),
(676,12,o),
(688,0,o),
(703,0,cs),
(719,0,o),
(730,12,o),
(730,27,cs),
(730,430,ls),
(730,446,o),
(719,457,o),
(703,457,cs),
(688,457,o),
(676,446,o),
(676,430,cs)
);
},
{
closed = 0;
nodes = (
(99,14,l),
(99,619,l)
);
},
{
closed = 0;
nodes = (
(181,457,l),
(404,14,l)
);
},
{
closed = 0;
nodes = (
(470,144,l),
(709,619,l)
);
},
{
closed = 0;
nodes = (
(709,431,l),
(709,14,l)
);
}
);
};
layerId = m01;
shapes = (
{
closed = 1;
nodes = (
(72,27,ls),
(72,12,o),
(84,0,o),
(99,0,cs),
(115,0,o),
(127,12,o),
(127,27,cs),
(127,633,ls),
(127,648,o),
(115,660,o),
(99,660,cs),
(84,660,o),
(72,648,o),
(72,633,cs)
);
},
{
closed = 1;
nodes = (
(205,483,ls),
(201,492,o),
(192,498,o),
(181,498,cs),
(165,498,o),
(154,486,o),
(154,471,cs),
(154,466,o),
(155,463,o),
(156,459,cs),
(380,15,ls),
(384,6,o),
(393,0,o),
(404,0,cs),
(419,0,o),
(431,12,o),
(431,27,cs),
(431,32,o),
(430,35,o),
(428,39,cs)
);
},
{
closed = 1;
nodes = (
(446,169,ls),
(444,165,o),
(443,162,o),
(443,157,cs),
(443,142,o),
(455,130,o),
(470,130,cs),
(481,130,o),
(490,137,o),
(494,146,cs),
(733,621,ls),
(735,625,o),
(736,628,o),
(736,633,cs),
(736,648,o),
(724,660,o),
(709,660,cs),
(698,660,o),
(689,654,o),
(684,645,cs)
);
},
{
closed = 1;
nodes = (
(736,445,ls),
(736,460,o),
(724,472,o),
(709,472,cs),
(693,472,o),
(682,460,o),
(682,445,cs),
(682,27,ls),
(682,12,o),
(693,0,o),
(709,0,cs),
(724,0,o),
(736,12,o),
(736,27,cs)
);
}
);
width = 808;
}
);
note = M;
unicode = 77;
},
{
glyphname = N;
kernLeft = H;
kernRight = H;
lastChange = "2023-10-27 14:19:29 +0000";
layers = (
{
anchors = (
{
name = bottom;
pos = (297,14);
},
{
name = top;
pos = (297,699);
}
);
background = {
hints = (
{
horizontal = 1;
place = (675,-20);
target = down;
type = TopGhost;
},
{
place = (56,22);
type = Stem;
},
{
place = (243,20);
type = Stem;
},
{
place = (320,24);
type = Stem;
}
);
shapes = (
{
closed = 1;
nodes = (
(472,12,ls),
(477,4,o),
(486,-1,o),
(495,-1,cs),
(500,-1,o),
(505,1,o),
(510,4,cs),
(518,9,o),
(523,18,o),
(523,27,cs),
(523,32,o),
(521,37,o),
(518,42,cs),
(127,620,ls),
(121,628,o),
(112,633,o),
(103,633,cs),
(99,633,o),
(93,631,o),
(89,628,cs),
(80,623,o),
(76,614,o),
(76,605,cs),
(76,600,o),
(78,595,o),
(80,590,cs)
);
},
{
closed = 1;
nodes = (
(467,208,ls),
(467,193,o),
(479,181,o),
(494,181,cs),
(510,181,o),
(522,193,o),
(522,208,cs),
(522,606,ls),
(522,621,o),
(510,633,o),
(494,633,cs),
(479,633,o),
(467,621,o),
(467,606,cs)
);
},
{
closed = 1;
nodes = (
(76,27,ls),
(76,12,o),
(88,0,o),
(103,0,cs),
(118,0,o),
(130,12,o),
(130,27,cs),
(130,425,ls),
(130,440,o),
(118,452,o),
(103,452,cs),
(88,452,o),
(76,440,o),
(76,425,cs)
);
}
);
};
layerId = m01;
shapes = (
{
closed = 1;
nodes = (
(72,27,ls),
(72,12,o),
(84,0,o),
(99,0,cs),
(115,0,o),
(127,12,o),
(127,27,cs),
(127,493,ls),
(127,508,o),
(115,520,o),
(99,520,cs),
(84,520,o),
(72,508,o),
(72,493,cs)
);
},
{
closed = 1;
nodes = (
(467,167,ls),
(467,152,o),
(479,140,o),
(494,140,cs),
(510,140,o),
(522,152,o),
(522,167,cs),
(522,633,ls),
(522,648,o),
(510,660,o),
(494,660,cs),
(479,660,o),
(467,648,o),
(467,633,cs)
);
},
{
closed = 1;
nodes = (
(122,647,ls),
(117,655,o),
(109,660,o),
(99,660,cs),
(84,660,o),
(72,648,o),
(72,633,cs),
(72,627,o),
(74,622,o),
(77,618,cs),
(472,13,ls),
(477,5,o),
(485,0,o),
(494,0,cs),
(510,0,o),
(522,12,o),
(522,27,cs),
(522,33,o),
(520,38,o),
(517,42,cs)
);
}
);
width = 594;
}
);
note = N;
unicode = 78;
},
{
glyphname = Nhookleft;
kernLeft = Nhookleft;
kernRight = Nhookleft;
lastChange = "2023-10-27 14:16:26 +0000";
layers = (
{
layerId = m01;
shapes = (
{
ref = N;
},
{
closed = 1;
nodes = (
(72,-117,ls),
(72,-150,o),
(33,-160,o),
(-3,-127,cs),
(-8,-122,o),
(-14,-119,o),
(-22,-119,cs),
(-37,-119,o),
(-49,-131,o),
(-49,-146,cs),
(-49,-155,o),
(-45,-161,o),
(-41,-166,c),
(23,-225,o),
(127,-196,o),
(127,-117,cs),
(127,28,ls),
(127,43,o),
(115,55,o),
(99,55,cs),
(84,55,o),
(72,43,o),
(72,28,cs)
);
}
);
width = 594;
}
);
metricRight = N;
unicode = 413;
},
{
glyphname = Eng;
kernLeft = H;
kernRight = J;
lastChange = "2023-10-27 14:16:26 +0000";
layers = (
{
anchors = (
{
name = bottom;
pos = (297,14);
},
{
name = top;
pos = (297,699);
}
);
layerId = m01;
shapes = (
{
closed = 1;
nodes = (
(72,27,ls),
(72,12,o),
(84,0,o),
(99,0,cs),
(115,0,o),
(127,12,o),
(127,27,cs),
(127,493,ls),
(127,508,o),
(115,520,o),
(99,520,cs),
(84,520,o),
(72,508,o),
(72,493,cs)
);
},
{
closed = 1;
nodes = (
(467,-117,ls),
(467,-150,o),
(428,-160,o),
(392,-127,cs),
(387,-122,o),
(381,-119,o),
(373,-119,cs),
(358,-119,o),
(346,-131,o),
(346,-146,cs),
(346,-155,o),
(350,-161,o),
(354,-166,c),
(418,-225,o),
(522,-196,o),
(522,-117,cs),
(522,633,ls),
(522,648,o),
(510,660,o),
(494,660,cs),
(479,660,o),
(467,648,o),
(467,633,cs)
);
},
{
closed = 1;
nodes = (
(122,647,ls),
(117,655,o),
(109,660,o),
(99,660,cs),
(84,660,o),
(72,648,o),
(72,633,cs),
(72,627,o),
(74,622,o),
(77,618,cs),
(402,119,ls),
(408,111,o),
(415,107,o),
(425,107,cs),
(440,107,o),
(452,118,o),
(452,134,cs),
(452,139,o),
(450,145,o),
(447,148,cs)
);
}
);
width = 594;
}
);
unicode = 330;
},
{
glyphname = O;
kernLeft = O;
kernRight = O;
lastChange = "2024-12-06 21:16:56 +0000";
layers = (
{
anchors = (
{
name = bottom;
pos = (362,14);
},
{
name = center;
pos = (362,331);
},
{
name = ogonek;
pos = (413,23);
},
{
name = top;
pos = (362,700);
},
{
name = topleft;
pos = (36,645);
},
{
name = topright;
pos = (483,645);
}
);
background = {
hints = (
{
horizontal = 1;
place = (2,23);
type = Stem;
},
{
horizontal = 1;
place = (653,24);
type = Stem;
},
{
place = (40,23);
type = Stem;
},
{
place = (333,24);
type = Stem;
},
{
place = (412,23);
type = Stem;
}
);
shapes = (
{
closed = 1;
nodes = (
(176,9,o),
(72,148,o),
(72,316,cs),
(72,485,o),
(176,624,o),
(362,624,cs),
(547,624,o),
(651,485,o),
(651,316,cs),
(651,148,o),
(547,9,o),
(362,9,cs)
);
}
);
};
layerId = m01;
shapes = (
{
closed = 1;
nodes = (
(678,521,o),
(563,664,o),
(362,664,cs),
(160,664,o),
(45,521,o),
(45,375,cs),
(45,360,o),
(57,348,o),
(72,348,cs),
(88,348,o),
(99,360,o),
(99,375,cs),
(99,497,o),
(189,610,o),
(362,610,cs),
(534,610,o),
(624,497,o),
(624,375,cs),
(624,360,o),
(636,348,o),
(651,348,cs),
(666,348,o),
(678,360,o),
(678,375,cs)
);
},
{
closed = 1;
nodes = (
(45,139,o),
(160,-5,o),
(362,-5,cs),
(563,-5,o),
(678,139,o),
(678,285,cs),
(678,300,o),
(666,312,o),
(651,312,cs),
(636,312,o),
(624,300,o),
(624,285,cs),
(624,163,o),
(534,50,o),
(362,50,cs),
(189,50,o),
(99,163,o),
(99,285,cs),
(99,300,o),
(88,312,o),
(72,312,cs),
(57,312,o),
(45,300,o),
(45,285,cs)
);
}
);
width = 723;
}
);
note = O;
unicode = 79;
},
{
glyphname = Oslash;
kernLeft = O;
kernRight = O;
lastChange = "2023-10-27 14:16:26 +0000";
layers = (
{
background = {
shapes = (
{
closed = 1;
nodes = (
(163,633,o),
(33,489,o),
(33,316,cs),
(33,144,o),
(163,0,o),
(326,0,cs),
(490,0,o),
(619,144,o),
(619,316,cs),
(619,489,o),
(490,633,o),
(326,633,cs)
);
},
{
closed = 1;
nodes = (
(456,579,o),
(564,463,o),
(564,316,cs),
(564,170,o),
(456,54,o),
(325,54,cs),
(195,54,o),
(87,170,o),
(87,316,cs),
(87,463,o),
(195,579,o),
(325,579,cs)
);
},
{
closed = 1;
nodes = (
(251,176,ls),
(250,174,o),
(250,171,o),
(250,168,cs),
(250,154,o),
(261,141,o),
(278,141,cs),
(289,141,o),
(300,148,o),
(304,160,cs),
(401,469,ls),
(402,472,o),
(402,475,o),
(402,477,cs),
(402,492,o),
(391,504,o),
(375,504,cs),
(363,504,o),
(353,497,o),
(349,485,cs)
);
},
{
closed = 0;
nodes = (
(268,127,l),
(434,517,l)
);
}
);
};
hints = (
{
horizontal = 1;
place = (-27,54);
type = Stem;
},
{
horizontal = 1;
place = (551,54);
type = Stem;
},
{
place = (33,53);
type = Stem;
},
{
place = (564,55);
type = Stem;
},
{
horizontal = 1;
place = (675,-20);
target = down;
type = TopGhost;
},
{
place = (309,190);
type = Stem;
}
);
layerId = m01;
shapes = (
{
pos = (0,5);
ref = O;
},
{
closed = 1;
nodes = (
(243,152,l),
(242,148,o),
(241,145,o),
(241,141,cs),
(241,126,o),
(253,114,o),
(268,114,cs),
(279,114,o),
(289,121,o),
(294,130,cs),
(459,520,l),
(460,523,o),
(461,527,o),
(461,531,cs),
(461,546,o),
(449,558,o),
(434,558,cs),
(423,558,o),
(413,551,o),
(409,541,cs)
);
}
);
width = 723;
}
);
note = Oslash;
unicode = 216;
},
{
glyphname = OE;
kernLeft = O;
kernRight = E;
lastChange = "2023-10-27 14:16:26 +0000";
layers = (
{
anchors = (
{
name = bottom;
pos = (851,14);
},
{
name = ogonek;
pos = (997,23);
},
{
name = top;
pos = (603,700);
},
{
name = topleft;
pos = (554,645);
}
);
layerId = m01;
shapes = (
{
ref = O;
},
{
closed = 1;
nodes = (
(1033,606,ls),
(1049,606,o),
(1060,617,o),
(1060,633,cs),
(1060,648,o),
(1049,660,o),
(1033,660,cs),
(603,660,ls),
(588,660,o),
(576,648,o),
(576,633,cs),
(576,617,o),
(588,606,o),
(603,606,cs)
);
},
{
closed = 1;
nodes = (
(720,357,ls),
(705,357,o),
(693,345,o),
(693,330,cs),
(693,315,o),
(705,303,o),
(720,303,cs),
(977,303,ls),
(993,303,o),
(1004,315,o),
(1004,330,cs),
(1004,345,o),
(993,357,o),
(977,357,cs)
);
},
{
closed = 1;
nodes = (
(603,54,ls),
(588,54,o),
(576,42,o),
(576,27,cs),
(576,12,o),
(588,0,o),
(603,0,cs),
(1033,0,ls),
(1049,0,o),
(1060,12,o),
(1060,27,cs),
(1060,42,o),
(1049,54,o),
(1033,54,cs)
);
}
);
width = 1115;
}
);
metricRight = E;
unicode = 338;
},
{
glyphname = P;
kernLeft = H;
kernRight = P;
lastChange = "2023-10-27 14:19:29 +0000";
layers = (
{
anchors = (
{
name = bottom;
pos = (297,14);
},
{
name = center;
pos = (297,331);
},
{
name = top;
pos = (297,700);
}
);
background = {
hints = (
{
horizontal = 1;
place = (316,23);
type = Stem;
},
{
horizontal = 1;
place = (653,24);
type = Stem;
},
{
place = (56,22);
type = Stem;
},
{
place = (257,24);
type = Stem;
},
{
place = (325,23);
type = Stem;
}
);
shapes = (
{
closed = 1;
nodes = (
(76,27,ls),
(76,12,o),
(88,0,o),
(103,0,cs),
(118,0,o),
(130,12,o),
(130,27,cs),
(130,606,ls),
(130,621,o),
(118,633,o),
(103,633,cs),
(88,633,o),
(76,621,o),
(76,606,cs)
);
},
{
closed = 1;
nodes = (
(194,633,ls),
(179,633,o),
(167,621,o),
(167,606,cs),
(167,590,o),
(179,579,o),
(194,579,cs),
(325,579,ls),
(425,579,o),
(450,505,o),
(450,447,cs),
(450,369,o),
(405,325,o),
(336,325,cs),
(197,325,ls),
(182,325,o),
(170,313,o),
(170,297,cs),
(170,282,o),
(182,270,o),
(197,270,cs),
(336,270,ls),
(430,270,o),
(504,334,o),
(504,447,cs),
(504,544,o),
(449,633,o),
(325,633,cs)
);
},
{
closed = 0;
nodes = (
(190,297,l),
(310,297,ls),
(432,297,o),
(476,373,o),
(476,459,cs),
(476,544,o),
(432,619,o),
(310,619,cs),
(260,619,l),
(190,619,l)
);
},
{
closed = 0;
nodes = (
(99,619,l),
(99,14,l)
);
}
);
};
layerId = m01;
shapes = (
{
closed = 1;
nodes = (
(260,606,l),
(310,606,ls),
(417,606,o),
(449,551,o),
(449,473,cs),
(449,394,o),
(417,337,o),
(310,337,cs),
(190,337,ls),
(174,337,o),
(163,325,o),
(163,310,cs),
(163,295,o),
(174,283,o),
(190,283,cs),
(310,283,ls),
(450,283,o),
(504,375,o),
(504,473,cs),
(504,570,o),
(450,660,o),
(310,660,cs),
(260,660,l),
(190,660,ls),
(174,660,o),
(163,648,o),
(163,633,cs),
(163,617,o),
(174,606,o),
(190,606,cs)
);
},
{
closed = 1;
nodes = (
(127,633,ls),
(127,648,o),
(115,660,o),
(99,660,cs),
(84,660,o),
(72,648,o),
(72,633,cs),
(72,27,ls),
(72,12,o),
(84,0,o),
(99,0,cs),
(115,0,o),
(127,12,o),
(127,27,cs)
);
}
);
width = 540;
}
);
note = P;
unicode = 80;
},
{
glyphname = Thorn;
kernLeft = H;
kernRight = Thorn;
lastChange = "2023-10-27 14:16:26 +0000";
layers = (
{
layerId = m01;
shapes = (
{
closed = 1;
nodes = (
(260,535,l),
(310,535,ls),
(417,535,o),
(449,480,o),
(449,402,cs),
(449,324,o),
(417,267,o),
(310,267,cs),
(190,267,ls),
(174,267,o),
(163,255,o),
(163,240,cs),
(163,224,o),
(174,212,o),
(190,212,cs),
(310,212,ls),
(450,212,o),
(504,305,o),
(504,402,cs),
(504,500,o),
(450,589,o),
(310,589,cs),
(260,589,l),
(190,589,ls),
(174,589,o),
(163,578,o),
(163,562,cs),
(163,547,o),
(174,535,o),
(190,535,cs)
);
},
{
closed = 1;
nodes = (
(127,633,ls),
(127,648,o),
(115,660,o),
(99,660,cs),
(84,660,o),
(72,648,o),
(72,633,cs),
(72,27,ls),
(72,12,o),
(84,0,o),
(99,0,cs),
(115,0,o),
(127,12,o),
(127,27,cs)
);
}
);
width = 576;
}
);
unicode = 222;
},
{
glyphname = Q;
kernLeft = O;
kernRight = O;
lastChange = "2023-10-27 14:19:29 +0000";
layers = (
{
anchors = (
{
name = bottom;
pos = (260,14);
},
{
name = top;
pos = (260,743);
}
);
background = {
hints = (
{
horizontal = 1;
place = (2,23);
type = Stem;
},
{
horizontal = 1;
place = (653,24);
type = Stem;
},
{
place = (40,23);
type = Stem;
},
{
place = (412,23);
type = Stem;
}
);
shapes = (
{
closed = 1;
nodes = (
(376,0,o),
(414,8,o),
(448,24,cs),
(458,28,o),
(465,38,o),
(465,49,cs),
(465,52,o),
(464,56,o),
(462,60,cs),
(457,70,o),
(447,76,o),
(437,76,cs),
(433,76,o),
(429,75,o),
(426,73,cs),
(398,61,o),
(367,53,o),
(335,53,cs),
(205,53,o),
(97,169,o),
(97,315,cs),
(97,462,o),
(205,578,o),
(335,578,cs),
(466,578,o),
(574,462,o),
(574,315,cs),
(574,268,o),
(562,222,o),
(541,184,cs),
(540,179,o),
(538,175,o),
(538,171,cs),
(538,156,o),
(549,143,o),
(566,143,cs),
(576,143,o),
(585,149,o),
(590,158,cs),
(615,204,o),
(629,258,o),
(629,315,cs),
(629,487,o),
(500,631,o),
(336,631,cs),
(173,631,o),
(43,487,o),
(43,315,cs),
(43,142,o),
(173,0,o),
(336,0,cs)
);
},
{
closed = 1;
nodes = (
(560,7,ls),
(565,2,o),
(572,-1,o),
(579,-1,cs),
(586,-1,o),
(593,2,o),
(598,7,cs),
(604,13,o),
(607,20,o),
(607,26,cs),
(607,33,o),
(604,41,o),
(598,46,cs),
(372,273,ls),
(366,278,o),
(359,281,o),
(353,281,cs),
(345,281,o),
(338,278,o),
(333,273,cs),
(327,268,o),
(325,260,o),
(325,254,cs),
(325,247,o),
(327,240,o),
(333,234,cs)
);
}
);
};
layerId = m01;
shapes = (
{
closed = 1;
nodes = (
(669,231,o),
(678,280,o),
(678,330,cs),
(678,511,o),
(564,664,o),
(362,664,cs),
(159,664,o),
(45,511,o),
(45,330,cs),
(45,149,o),
(159,-5,o),
(362,-5,cs),
(423,-4,o),
(478,11,o),
(523,36,cs),
(531,41,o),
(536,50,o),
(536,60,cs),
(536,75,o),
(524,87,o),
(509,87,cs),
(504,87,o),
(499,86,o),
(495,83,cs),
(458,61,o),
(415,51,o),
(362,50,cs),
(190,50,o),
(99,171,o),
(99,330,cs),
(99,489,o),
(190,610,o),
(362,610,cs),
(533,610,o),
(624,489,o),
(624,330,cs),
(624,286,o),
(617,245,o),
(601,207,cs),
(600,204,o),
(599,201,o),
(599,197,cs),
(599,182,o),
(611,170,o),
(626,170,cs),
(638,170,o),
(647,177,o),
(652,187,cs)
);
},
{
closed = 1;
nodes = (
(410,321,l),
(405,326,o),
(398,329,o),
(391,329,cs),
(375,329,o),
(363,317,o),
(363,302,cs),
(363,295,o),
(366,287,o),
(372,283,cs),
(650,9,l),
(654,4,o),
(662,1,o),
(669,1,cs),
(684,1,o),
(696,13,o),
(696,28,cs),
(696,35,o),
(693,42,o),
(688,47,cs)
);
}
);
width = 723;
}
);
note = Q;
unicode = 81;
},
{
glyphname = R;
kernLeft = H;
kernRight = R;
lastChange = "2023-10-27 14:19:29 +0000";
layers = (
{
anchors = (
{
name = bottom;
pos = (310,14);
},
{
name = top;
pos = (284,700);
}
);
background = {
hints = (
{
horizontal = 1;
place = (248,22);
type = Stem;
},
{
horizontal = 1;
place = (345,22);
type = Stem;
},
{
horizontal = 1;
place = (653,23);
type = Stem;
},
{
place = (56,22);
type = Stem;
},
{
place = (347,23);
type = Stem;
},
{
place = (323,22);
type = Stem;
}
);
shapes = (
{
closed = 1;
nodes = (
(76,27,ls),
(76,12,o),
(88,0,o),
(103,0,cs),
(118,0,o),
(130,12,o),
(130,27,cs),
(130,606,ls),
(130,621,o),
(118,633,o),
(103,633,cs),
(88,633,o),
(76,621,o),
(76,606,cs)
);
},
{
closed = 1;
nodes = (
(193,633,ls),
(178,633,o),
(166,621,o),
(166,606,cs),
(166,590,o),
(178,579,o),
(193,579,cs),
(336,579,ls),
(423,579,o),
(451,532,o),
(451,468,cs),
(451,412,o),
(428,361,o),
(338,361,cs),
(199,361,ls),
(184,361,o),
(172,349,o),
(172,334,cs),
(172,318,o),
(184,306,o),
(199,306,cs),
(338,306,ls),
(437,306,o),
(505,359,o),
(505,467,cs),
(505,577,o),
(438,633,o),
(336,633,cs)
);
},
{
closed = 1;
nodes = (
(490,7,ls),
(495,3,o),
(502,0,o),
(509,0,cs),
(516,0,o),
(523,3,o),
(528,8,cs),
(532,14,o),
(535,20,o),
(535,27,cs),
(535,34,o),
(532,41,o),
(527,46,cs),
(279,281,ls),
(274,286,o),
(268,288,o),
(260,288,cs),
(253,288,o),
(247,286,o),
(241,280,cs),
(237,275,o),
(234,268,o),
(234,261,cs),
(234,254,o),
(237,248,o),
(242,242,cs)
);
},
{
closed = 0;
nodes = (
(99,332,l),
(310,332,ls),
(432,332,o),
(476,400,o),
(476,476,cs),
(476,552,o),
(432,619,o),
(310,619,cs),
(260,619,l),
(99,619,l),
(99,14,l)
);
},
{
closed = 0;
nodes = (
(523,14,l),
(190,330,l)
);
}
);
};
layerId = m01;
shapes = (
{
closed = 1;
nodes = (
(260,606,l),
(310,606,ls),
(418,606,o),
(449,558,o),
(449,490,cs),
(449,421,o),
(418,372,o),
(310,372,cs),
(190,372,ls),
(174,372,o),
(163,361,o),
(163,345,cs),
(163,330,o),
(174,318,o),
(190,318,cs),
(310,318,ls),
(450,318,o),
(504,401,o),
(504,490,cs),
(504,578,o),
(450,660,o),
(310,660,cs),
(260,660,l),
(190,660,ls),
(174,660,o),
(163,648,o),
(163,633,cs),
(163,617,o),
(174,606,o),
(190,606,cs)
);
},
{
closed = 1;
nodes = (
(127,633,ls),
(127,648,o),
(115,660,o),
(99,660,cs),
(84,660,o),
(72,648,o),
(72,633,cs),
(72,27,ls),
(72,12,o),
(84,0,o),
(99,0,cs),
(115,0,o),
(127,12,o),
(127,27,cs)
);
},
{
closed = 1;
nodes = (
(484,12,ls),
(488,5,o),
(496,0,o),
(505,0,cs),
(523,0,o),
(535,10,o),
(535,27,cs),
(535,33,o),
(533,38,o),
(530,42,cs),
(355,287,ls),
(350,296,o),
(343,299,o),
(331,299,cs),
(315,299,o),
(304,287,o),
(304,272,cs),
(304,267,o),
(306,261,o),
(309,257,cs)
);
}
);
width = 551;
}
);
note = R;
unicode = 82;
},
{
glyphname = S;
kernLeft = S;
kernRight = S;
lastChange = "2023-10-27 14:19:29 +0000";
layers = (
{
anchors = (
{
name = bottom;
pos = (282,14);
},
{
name = top;
pos = (282,700);
}
);
background = {
hints = (
{
horizontal = 1;
place = (2,23);
type = Stem;
},
{
horizontal = 1;
place = (577,22);
type = Stem;
},
{
horizontal = 1;
place = (653,24);
type = Stem;
},
{
place = (23,23);
type = Stem;
},
{
place = (337,23);
type = Stem;
},
{
place = (44,23);
type = Stem;
}
);
shapes = (
{
closed = 1;
nodes = (
(154,632,o),
(93,562,o),
(93,492,cs),
(93,476,o),
(106,465,o),
(121,465,cs),
(136,465,o),
(147,476,o),
(148,491,cs),
(153,545,o),
(201,578,o),
(262,578,cs),
(327,578,o),
(390,536,o),
(393,470,cs),
(394,456,o),
(406,444,o),
(420,444,cs),
(437,444,o),
(449,457,o),
(448,473,cs),
(443,567,o),
(360,632,o),
(261,632,cs)
);
},
{
closed = 1;
nodes = (
(137,444,o),
(132,442,o),
(127,439,cs),
(119,434,o),
(115,426,o),
(115,417,cs),
(115,412,o),
(117,407,o),
(119,402,cs),
(150,352,o),
(195,325,o),
(251,305,cs),
(294,289,o),
(336,280,o),
(368,258,cs),
(374,253,o),
(381,248,o),
(386,242,cs),
(391,237,o),
(399,233,o),
(406,233,cs),
(412,233,o),
(419,236,o),
(424,240,cs),
(429,246,o),
(433,253,o),
(433,260,cs),
(433,267,o),
(430,273,o),
(426,278,cs),
(418,287,o),
(409,294,o),
(400,300,cs),
(360,329,o),
(309,341,o),
(270,355,cs),
(221,372,o),
(193,392,o),
(165,431,cs),
(159,439,o),
(151,444,o),
(142,444,cs)
);
},
{
closed = 1;
nodes = (
(263,1,ls),
(374,1,o),
(468,65,o),
(468,172,cs),
(468,187,o),
(456,199,o),
(440,199,cs),
(425,199,o),
(413,186,o),
(413,171,cs),
(413,90,o),
(338,53,o),
(265,53,cs),
(264,53,ls),
(181,53,o),
(98,101,o),
(98,188,cs),
(98,204,o),
(85,217,o),
(69,217,cs),
(54,217,o),
(42,205,o),
(42,191,cs),
(42,76,o),
(139,1,o),
(262,1,cs)
);
},
{
closed = 0;
nodes = (
(63,205,l),
(63,85,o),
(138,9,o),
(259,9,cs),
(381,9,o),
(457,85,o),
(457,205,c)
);
},
{
closed = 0;
nodes = (
(436,457,l),
(436,560,o),
(372,624,o),
(268,624,cs),
(165,624,o),
(101,560,o),
(101,457,c)
);
},
{
closed = 0;
nodes = (
(63,205,l),
(63,85,o),
(138,9,o),
(259,9,cs),
(381,9,o),
(457,76,o),
(457,178,cs),
(457,387,o),
(101,284,o),
(101,484,cs),
(101,560,o),
(165,624,o),
(268,624,cs),
(372,624,o),
(436,560,o),
(436,457,c)
);
}
);
};
layerId = m01;
shapes = (
{
closed = 1;
nodes = (
(150,50,o),
(90,109,o),
(90,219,cs),
(90,234,o),
(79,246,o),
(63,246,cs),
(48,246,o),
(36,234,o),
(36,219,cs),
(36,83,o),
(123,-5,o),
(223,-5,cs),
(239,-5,o),
(250,7,o),
(250,23,cs),
(250,38,o),
(239,50,o),
(223,50,cs)
);
},
{
closed = 1;
nodes = (
(463,589,o),
(387,664,o),
(305,664,cs),
(289,664,o),
(278,653,o),
(278,637,cs),
(278,622,o),
(289,610,o),
(305,610,cs),
(361,610,o),
(409,562,o),
(409,470,cs),
(409,455,o),
(420,443,o),
(436,443,cs),
(451,443,o),
(463,455,o),
(463,470,cs)
);
},
{
closed = 1;
nodes = (
(142,664,o),
(74,597,o),
(74,506,cs),
(74,270,o),
(429,391,o),
(429,192,cs),
(429,93,o),
(380,50,o),
(305,50,cs),
(289,50,o),
(278,38,o),
(278,23,cs),
(278,7,o),
(289,-5,o),
(305,-5,cs),
(403,-5,o),
(484,64,o),
(484,192,cs),
(484,446,o),
(128,325,o),
(128,506,cs),
(128,571,o),
(167,610,o),
(223,610,cs),
(239,610,o),
(250,622,o),
(250,637,cs),
(250,653,o),
(239,664,o),
(223,664,cs)
);
}
);
width = 520;
}
);
note = S;
unicode = 83;
},
{
glyphname = Germandbls;
kernLeft = Germandbls;
kernRight = Germandbls;
lastChange = "2024-12-09 11:35:13 +0000";
layers = (
{
layerId = m01;
shapes = (
{
closed = 1;
nodes = (
(427,346,o),
(476,289,o),
(476,207,cs),
(476,193,ls),
(476,112,o),
(427,54,o),
(343,54,cs),
(234,54,ls),
(219,54,o),
(207,42,o),
(207,27,cs),
(207,12,o),
(219,0,o),
(234,0,cs),
(343,0,ls),
(456,0,o),
(531,89,o),
(531,193,cs),
(531,207,ls),
(531,313,o),
(456,400,o),
(343,400,cs),
(327,400,o),
(315,389,o),
(315,373,cs),
(315,358,o),
(327,346,o),
(343,346,cs)
);
},
{
closed = 1;
nodes = (
(118,633,ls),
(118,648,o),
(106,660,o),
(90,660,cs),
(75,660,o),
(63,648,o),
(63,633,cs),
(63,27,ls),
(63,12,o),
(75,0,o),
(90,0,cs),
(106,0,o),
(118,12,o),
(118,27,cs)
);
},
{
closed = 1;
nodes = (
(239,391,ls),
(236,387,o),
(233,381,o),
(233,375,cs),
(233,360,o),
(245,348,o),
(260,348,cs),
(269,348,o),
(277,353,o),
(282,359,cs),
(428,545,ls),
(431,549,o),
(433,555,o),
(433,561,cs),
(433,577,o),
(421,588,o),
(406,588,cs),
(397,588,o),
(390,584,o),
(384,577,cs)
);
},
{
closed = 1;
nodes = (
(457,606,ls),
(473,606,o),
(485,617,o),
(485,633,cs),
(485,648,o),
(473,660,o),
(457,660,cs),
(174,660,ls),
(158,660,o),
(147,648,o),
(147,633,cs),
(147,617,o),
(158,606,o),
(174,606,cs)
);
}
);
width = 576;
}
);
unicode = 7838;
},
{
glyphname = T;
kernLeft = T;
kernRight = T;
lastChange = "2023-10-27 14:19:29 +0000";
layers = (
{
anchors = (
{
name = bottom;
pos = (280,14);
},
{
name = center;
pos = (280,331);
},
{
name = top;
pos = (280,700);
}
);
background = {
hints = (
{
horizontal = 1;
place = (585,23);
type = Stem;
},
{
horizontal = 1;
place = (651,23);
type = Stem;
},
{
place = (187,23);
type = Stem;
}
);
shapes = (
{
closed = 1;
nodes = (
(66,633,ls),
(51,633,o),
(39,621,o),
(39,606,cs),
(39,590,o),
(51,579,o),
(66,579,cs),
(490,579,ls),
(505,579,o),
(517,590,o),
(517,606,cs),
(517,621,o),
(505,633,o),
(490,633,cs)
);
},
{
closed = 1;
nodes = (
(250,27,ls),
(250,12,o),
(262,0,o),
(278,0,cs),
(293,0,o),
(305,12,o),
(305,27,cs),
(305,524,ls),
(305,540,o),
(293,551,o),
(278,551,cs),
(262,551,o),
(250,540,o),
(250,524,cs)
);
},
{
closed = 0;
nodes = (
(280,14,l),
(280,529,l)
);
},
{
closed = 0;
nodes = (
(45,619,l),
(515,619,l)
);
}
);
};
layerId = m01;
shapes = (
{
closed = 1;
nodes = (
(253,27,ls),
(253,12,o),
(265,0,o),
(280,0,cs),
(296,0,o),
(307,12,o),
(307,27,cs),
(307,542,ls),
(307,558,o),
(296,570,o),
(280,570,cs),
(265,570,o),
(253,558,o),
(253,542,cs)
);
},
{
closed = 1;
nodes = (
(45,660,ls),
(30,660,o),
(18,648,o),
(18,633,cs),
(18,617,o),
(30,606,o),
(45,606,cs),
(515,606,ls),
(531,606,o),
(542,617,o),
(542,633,cs),
(542,648,o),
(531,660,o),
(515,660,cs)
);
}
);
width = 560;
}
);
note = T;
unicode = 84;
},
{
glyphname = Tbar;
kernLeft = T;
kernRight = T;
lastChange = "2023-10-27 14:16:26 +0000";
layers = (
{
layerId = m01;
shapes = (
{
ref = T;
},
{
closed = 1;
nodes = (
(115,358,ls),
(99,358,o),
(88,346,o),
(88,331,cs),
(88,315,o),
(99,304,o),
(115,304,cs),
(199,304,ls),
(214,304,o),
(226,315,o),
(226,331,cs),
(226,346,o),
(214,358,o),
(199,358,cs)
);
},
{
closed = 1;
nodes = (
(362,358,ls),
(346,358,o),
(334,346,o),
(334,331,cs),
(334,315,o),
(346,304,o),
(362,304,cs),
(446,304,ls),
(461,304,o),
(473,315,o),
(473,331,cs),
(473,346,o),
(461,358,o),
(446,358,cs)
);
}
);
width = 560;
}
);
unicode = 358;
},
{
glyphname = U;
kernLeft = U;
kernRight = U;
lastChange = "2024-12-06 21:17:23 +0000";
layers = (
{
anchors = (
{
name = bottom;
pos = (311,14);
},
{
name = ogonek;
pos = (354,23);
},
{
name = top;
pos = (311,700);
},
{
name = topright;
pos = (550,633);
}
);
background = {
hints = (
{
horizontal = 1;
place = (2,24);
type = Stem;
},
{
horizontal = 1;
place = (157,22);
type = Stem;
},
{
place = (50,23);
type = Stem;
},
{
place = (376,23);
type = Stem;
}
);
shapes = (
{
closed = 1;
nodes = (
(92,398,ls),
(92,382,o),
(104,371,o),
(119,371,cs),
(135,371,o),
(146,382,o),
(146,398,cs),
(146,606,ls),
(146,621,o),
(135,633,o),
(119,633,cs),
(104,633,o),
(92,621,o),
(92,606,cs)
);
},
{
closed = 1;
nodes = (
(496,397,ls),
(496,381,o),
(508,370,o),
(523,370,cs),
(539,370,o),
(551,381,o),
(551,397,cs),
(551,605,ls),
(551,620,o),
(539,632,o),
(523,632,cs),
(508,632,o),
(496,620,o),
(496,605,cs)
);
},
{
closed = 1;
nodes = (
(499,216,ls),
(499,115,o),
(412,57,o),
(323,57,cs),
(232,57,o),
(146,116,o),
(146,216,cs),
(146,308,ls),
(146,324,o),
(135,335,o),
(119,335,cs),
(104,335,o),
(92,324,o),
(92,308,cs),
(92,217,ls),
(92,84,o),
(197,2,o),
(323,2,cs),
(428,2,o),
(553,70,o),
(553,217,cs),
(553,308,ls),
(553,324,o),
(541,335,o),
(526,335,cs),
(511,335,o),
(499,324,o),
(499,308,cs)
);
},
{
closed = 0;
nodes = (
(99,619,l),
(99,220,ls),
(99,90,o),
(181,9,o),
(311,9,cs),
(441,9,o),
(523,90,o),
(523,220,cs),
(523,619,l)
);
}
);
};
layerId = m01;
shapes = (
{
closed = 1;
nodes = (
(127,633,ls),
(127,648,o),
(115,660,o),
(99,660,cs),
(84,660,o),
(72,648,o),
(72,633,cs),
(72,402,ls),
(72,387,o),
(84,375,o),
(99,375,cs),
(115,375,o),
(127,387,o),
(127,402,cs)
);
},
{
closed = 1;
nodes = (
(495,402,ls),
(495,387,o),
(507,375,o),
(523,375,cs),
(538,375,o),
(550,387,o),
(550,402,cs),
(550,633,ls),
(550,648,o),
(538,660,o),
(523,660,cs),
(507,660,o),
(495,648,o),
(495,633,cs)
);
},
{
closed = 1;
nodes = (
(495,233,ls),
(495,115,o),
(430,50,o),
(311,50,cs),
(192,50,o),
(127,115,o),
(127,233,cs),
(127,312,ls),
(127,327,o),
(115,339,o),
(99,339,cs),
(84,339,o),
(72,327,o),
(72,312,cs),
(72,233,ls),
(72,89,o),
(166,-5,o),
(311,-5,cs),
(456,-5,o),
(550,89,o),
(550,233,cs),
(550,312,ls),
(550,327,o),
(538,339,o),
(523,339,cs),
(507,339,o),
(495,327,o),
(495,312,cs)
);
}
);
width = 622;
}
);
note = U;
unicode = 85;
},
{
glyphname = V;
kernLeft = V;
kernRight = V;
lastChange = "2023-10-27 14:19:29 +0000";
layers = (
{
anchors = (
{
name = bottom;
pos = (298,14);
},
{
name = top;
pos = (298,700);
}
);
background = {
hints = (
{
horizontal = 1;
place = (675,-20);
target = down;
type = TopGhost;
},
{
place = (18,357);
type = Stem;
}
);
shapes = (
{
closed = 1;
nodes = (
(254,17,ls),
(259,6,o),
(268,-1,o),
(279,-1,cs),
(296,-1,o),
(307,13,o),
(307,26,cs),
(307,30,o),
(306,33,o),
(306,36,cs),
(91,615,ls),
(87,626,o),
(77,633,o),
(66,633,cs),
(50,633,o),
(38,619,o),
(38,606,cs),
(38,602,o),
(39,599,o),
(40,596,cs)
);
},
{
closed = 1;
nodes = (
(318,208,ls),
(317,205,o),
(316,202,o),
(316,198,cs),
(316,184,o),
(327,171,o),
(344,171,cs),
(355,171,o),
(365,178,o),
(370,189,cs),
(522,596,ls),
(523,598,o),
(523,602,o),
(523,606,cs),
(523,619,o),
(513,633,o),
(495,633,cs),
(485,633,o),
(475,626,o),
(470,615,cs)
);
},
{
closed = 0;
nodes = (
(54,619,l),
(298,14,l)
);
},
{
closed = 0;
nodes = (
(348,138,l),
(542,619,l)
);
}
);
};
layerId = m01;
shapes = (
{
closed = 1;
nodes = (
(80,643,ls),
(75,653,o),
(66,660,o),
(54,660,cs),
(39,660,o),
(27,648,o),
(27,633,cs),
(27,629,o),
(28,626,o),
(29,623,cs),
(273,17,ls),
(278,7,o),
(287,0,o),
(298,0,cs),
(314,0,o),
(325,12,o),
(325,27,cs),
(325,31,o),
(325,34,o),
(324,37,cs)
);
},
{
closed = 1;
nodes = (
(323,162,ls),
(322,159,o),
(321,155,o),
(321,152,cs),
(321,137,o),
(333,125,o),
(348,125,cs),
(360,125,o),
(369,132,o),
(373,142,cs),
(568,623,ls),
(569,626,o),
(570,629,o),
(570,633,cs),
(570,648,o),
(558,660,o),
(542,660,cs),
(531,660,o),
(522,653,o),
(517,643,cs)
);
}
);
width = 597;
}
);
note = V;
unicode = 86;
},
{
glyphname = W;
kernLeft = V;
kernRight = V;
lastChange = "2023-10-27 14:19:29 +0000";
layers = (
{
anchors = (
{
name = bottom;
pos = (443,14);
},
{
name = top;
pos = (443,700);
}
);
background = {
anchors = (
{
name = bottom;
pos = (353,1);
},
{
name = top;
pos = (353,686);
}
);
hints = (
{
horizontal = 1;
place = (349,24);
type = Stem;
},
{
horizontal = 1;
place = (675,-20);
target = down;
type = TopGhost;
},
{
place = (34,406);
type = Stem;
}
);
shapes = (
{
closed = 0;
nodes = (
(54,619,l),
(298,14,l)
);
},
{
closed = 0;
nodes = (
(469,227,l),
(560,1,l)
);
},
{
closed = 0;
nodes = (
(808,619,l),
(606,118,l)
);
},
{
closed = 0;
nodes = (
(340,118,l),
(542,619,l)
);
}
);
};
layerId = m01;
shapes = (
{
closed = 1;
nodes = (
(80,643,ls),
(75,653,o),
(66,660,o),
(54,660,cs),
(39,660,o),
(27,648,o),
(27,633,cs),
(27,629,o),
(28,626,o),
(29,623,cs),
(273,17,ls),
(278,7,o),
(287,0,o),
(298,0,cs),
(314,0,o),
(325,12,o),
(325,27,cs),
(325,31,o),
(325,34,o),
(324,37,cs)
);
},
{
closed = 1;
nodes = (
(494,250,ls),
(491,260,o),
(481,268,o),
(469,268,cs),
(454,268,o),
(442,256,o),
(442,240,cs),
(442,237,o),
(443,233,o),
(444,231,cs),
(534,5,ls),
(538,-5,o),
(548,-13,o),
(560,-13,cs),
(575,-13,o),
(587,-1,o),
(587,14,cs),
(587,18,o),
(586,22,o),
(585,24,cs)
);
},
{
closed = 1;
nodes = (
(833,623,ls),
(834,626,o),
(835,629,o),
(835,633,cs),
(835,648,o),
(824,660,o),
(808,660,cs),
(796,660,o),
(787,653,o),
(783,643,cs),
(580,141,ls),
(579,138,o),
(579,135,o),
(579,131,cs),
(579,116,o),
(590,104,o),
(606,104,cs),
(617,104,o),
(626,111,o),
(631,121,cs)
);
},
{
closed = 1;
nodes = (
(315,141,ls),
(314,138,o),
(313,135,o),
(313,131,cs),
(313,116,o),
(325,104,o),
(340,104,cs),
(352,104,o),
(361,111,o),
(365,121,cs),
(568,623,ls),
(569,626,o),
(570,629,o),
(570,633,cs),
(570,648,o),
(558,660,o),
(542,660,cs),
(531,660,o),
(522,653,o),
(517,643,cs)
);
}
);
width = 862;
}
);
note = W;
unicode = 87;
},
{
glyphname = X;
kernLeft = X;
kernRight = X;
lastChange = "2023-10-27 14:19:29 +0000";
layers = (
{
anchors = (
{
name = bottom;
pos = (366,14);
},
{
name = top;
pos = (366,700);
}
);
background = {
hints = (
{
horizontal = 1;
place = (653,23);
type = Stem;
},
{
place = (36,362);
type = Stem;
}
);
shapes = (
{
closed = 1;
nodes = (
(629,9,ls),
(635,4,o),
(642,0,o),
(649,0,cs),
(655,0,o),
(662,3,o),
(667,7,cs),
(673,13,o),
(676,20,o),
(676,27,cs),
(676,33,o),
(673,40,o),
(669,45,cs),
(140,624,ls),
(135,629,o),
(127,633,o),
(120,633,cs),
(114,633,o),
(108,630,o),
(102,626,cs),
(97,620,o),
(93,613,o),
(93,606,cs),
(93,599,o),
(96,593,o),
(100,588,cs)
);
},
{
closed = 1;
nodes = (
(424,437,ls),
(419,431,o),
(417,425,o),
(417,419,cs),
(417,411,o),
(420,404,o),
(426,399,cs),
(431,394,o),
(438,391,o),
(444,391,cs),
(451,391,o),
(458,395,o),
(464,400,cs),
(636,587,ls),
(640,592,o),
(643,598,o),
(643,605,cs),
(643,612,o),
(639,619,o),
(634,625,cs),
(628,629,o),
(622,632,o),
(616,632,cs),
(608,632,o),
(601,628,o),
(596,623,cs)
);
},
{
closed = 1;
nodes = (
(63,44,ls),
(59,39,o),
(56,33,o),
(56,26,cs),
(56,19,o),
(60,12,o),
(65,6,cs),
(71,2,o),
(77,-1,o),
(83,-1,cs),
(90,-1,o),
(98,3,o),
(103,8,cs),
(319,241,ls),
(324,247,o),
(326,253,o),
(326,259,cs),
(326,267,o),
(323,274,o),
(317,279,cs),
(312,284,o),
(306,287,o),
(299,287,cs),
(292,287,o),
(285,283,o),
(279,278,cs)
);
}
);
};
layerId = m01;
shapes = (
{
closed = 1;
nodes = (
(34,46,ls),
(30,41,o),
(27,34,o),
(27,27,cs),
(27,12,o),
(39,0,o),
(54,0,cs),
(62,0,o),
(69,4,o),
(74,8,c),
(308,253,ls),
(313,259,o),
(315,265,o),
(315,272,cs),
(315,287,o),
(304,299,o),
(288,299,cs),
(280,299,o),
(274,296,o),
(268,291,c)
);
},
{
closed = 1;
nodes = (
(83,652,l),
(78,656,o),
(71,660,o),
(63,660,cs),
(48,660,o),
(36,648,o),
(36,633,cs),
(36,626,o),
(39,619,o),
(43,614,cs),
(624,8,l),
(629,4,o),
(636,0,o),
(644,0,cs),
(659,0,o),
(671,12,o),
(671,27,cs),
(671,34,o),
(668,41,o),
(664,46,cs)
);
},
{
closed = 1;
nodes = (
(397,403,ls),
(392,398,o),
(390,391,o),
(390,384,cs),
(390,369,o),
(401,357,o),
(417,357,cs),
(425,357,o),
(431,361,o),
(437,365,c),
(674,614,ls),
(679,619,o),
(682,626,o),
(682,633,cs),
(682,648,o),
(670,660,o),
(654,660,cs),
(646,660,o),
(640,656,o),
(635,652,c)
);
}
);
width = 709;
}
);
note = X;
unicode = 88;
},
{
glyphname = Y;
kernLeft = Y;
kernRight = Y;
lastChange = "2023-10-27 14:19:29 +0000";
layers = (
{
anchors = (
{
name = bottom;
pos = (316,14);
},
{
name = top;
pos = (316,700);
},
{
name = topleft;
pos = (41,645);
}
);
background = {
hints = (
{
horizontal = 1;
place = (653,24);
type = Stem;
},
{
place = (184,23);
type = Stem;
}
);
shapes = (
{
closed = 1;
nodes = (
(291,318,ls),
(297,313,o),
(304,309,o),
(311,309,cs),
(317,309,o),
(324,312,o),
(329,316,cs),
(334,322,o),
(338,329,o),
(338,336,cs),
(338,343,o),
(335,349,o),
(331,354,cs),
(84,624,ls),
(79,629,o),
(71,633,o),
(64,633,cs),
(58,633,o),
(52,630,o),
(46,626,cs),
(41,620,o),
(37,613,o),
(37,606,cs),
(37,599,o),
(40,593,o),
(44,588,cs)
);
},
{
closed = 1;
nodes = (
(359,421,ls),
(354,416,o),
(352,410,o),
(352,403,cs),
(352,396,o),
(355,389,o),
(361,383,cs),
(366,379,o),
(372,376,o),
(379,376,cs),
(386,376,o),
(393,380,o),
(399,385,cs),
(579,588,ls),
(583,593,o),
(586,599,o),
(586,606,cs),
(586,613,o),
(582,620,o),
(577,626,cs),
(571,630,o),
(565,633,o),
(559,633,cs),
(551,633,o),
(544,629,o),
(539,624,cs)
);
},
{
closed = 1;
nodes = (
(284,27,ls),
(284,12,o),
(296,0,o),
(311,0,cs),
(326,0,o),
(338,12,o),
(338,27,cs),
(338,244,ls),
(338,259,o),
(326,271,o),
(311,271,cs),
(296,271,o),
(284,259,o),
(284,244,cs)
);
}
);
};
layerId = m01;
shapes = (
{
closed = 1;
nodes = (
(598,616,ls),
(601,620,o),
(604,626,o),
(604,633,cs),
(604,648,o),
(592,660,o),
(577,660,cs),
(569,660,o),
(561,656,o),
(556,650,cs),
(343,397,ls),
(339,392,o),
(336,386,o),
(336,380,cs),
(336,364,o),
(348,353,o),
(363,353,cs),
(372,353,o),
(379,356,o),
(384,363,cs)
);
},
{
closed = 1;
nodes = (
(289,27,ls),
(289,12,o),
(301,0,o),
(316,0,cs),
(332,0,o),
(344,12,o),
(344,27,cs),
(344,250,ls),
(344,266,o),
(332,278,o),
(316,278,cs),
(301,278,o),
(289,266,o),
(289,250,cs)
);
},
{
closed = 1;
nodes = (
(296,306,ls),
(301,300,o),
(308,297,o),
(316,297,cs),
(332,297,o),
(344,308,o),
(344,324,cs),
(344,330,o),
(341,336,o),
(337,341,cs),
(75,650,ls),
(70,656,o),
(62,660,o),
(54,660,cs),
(39,660,o),
(27,648,o),
(27,633,cs),
(27,626,o),
(30,620,o),
(33,616,cs)
);
}
);
width = 631;
}
);
note = Y;
unicode = 89;
},
{
glyphname = Z;
kernLeft = Z;
kernRight = Z;
lastChange = "2023-10-27 14:19:29 +0000";
layers = (
{
anchors = (
{
name = bottom;
pos = (336,14);
},
{
name = center;
pos = (336,331);
},
{
name = top;
pos = (336,700);
}
);
background = {
hints = (
{
horizontal = 1;
place = (2,24);
type = Stem;
},
{
horizontal = 1;
place = (344,24);
type = Stem;
},
{
horizontal = 1;
place = (436,24);
type = Stem;
},
{
horizontal = 1;
place = (653,24);
type = Stem;
},
{
place = (35,354);
type = Stem;
}
);
shapes = (
{
closed = 1;
nodes = (
(97,634,ls),
(81,634,o),
(70,622,o),
(70,607,cs),
(70,591,o),
(81,579,o),
(97,579,cs),
(543,579,ls),
(559,579,o),
(570,591,o),
(570,607,cs),
(570,622,o),
(559,634,o),
(543,634,cs)
);
},
{
closed = 1;
nodes = (
(60,43,ls),
(56,38,o),
(54,33,o),
(54,26,cs),
(54,19,o),
(58,11,o),
(64,5,cs),
(70,2,o),
(75,0,o),
(81,0,cs),
(89,0,o),
(97,4,o),
(102,10,cs),
(502,504,ls),
(505,509,o),
(507,514,o),
(507,521,cs),
(507,528,o),
(504,536,o),
(497,541,cs),
(492,545,o),
(486,547,o),
(480,547,cs),
(473,547,o),
(465,543,o),
(459,537,cs)
);
},
{
closed = 1;
nodes = (
(215,54,ls),
(200,54,o),
(188,42,o),
(188,27,cs),
(188,12,o),
(200,0,o),
(215,0,cs),
(576,0,ls),
(591,0,o),
(603,12,o),
(603,27,cs),
(603,42,o),
(591,54,o),
(576,54,cs)
);
}
);
};
layerId = m01;
shapes = (
{
closed = 1;
nodes = (
(79,660,ls),
(63,660,o),
(52,648,o),
(52,633,cs),
(52,617,o),
(63,606,o),
(79,606,cs),
(563,606,ls),
(579,606,o),
(590,617,o),
(590,633,cs),
(590,648,o),
(579,660,o),
(563,660,cs)
);
},
{
closed = 1;
nodes = (
(518,538,ls),
(522,542,o),
(524,549,o),
(524,555,cs),
(524,570,o),
(513,582,o),
(497,582,cs),
(489,582,o),
(482,579,o),
(476,572,cs),
(33,44,ls),
(30,40,o),
(27,33,o),
(27,27,cs),
(27,12,o),
(39,0,o),
(54,0,cs),
(62,0,o),
(70,4,o),
(75,10,cs)
);
},
{
closed = 1;
nodes = (
(161,54,ls),
(146,54,o),
(134,42,o),
(134,27,cs),
(134,12,o),
(146,0,o),
(161,0,cs),
(571,0,ls),
(587,0,o),
(598,12,o),
(598,27,cs),
(598,42,o),
(587,54,o),
(571,54,cs)
);
}
);
width = 635;
}
);
note = Z;
unicode = 90;
},
{
color = 4;
glyphname = Saltillo;
lastChange = "2024-12-06 21:19:49 +0000";
layers = (
{
layerId = m01;
shapes = (
{
closed = 1;
nodes = (
(63,408,ls),
(63,393,o),
(75,381,o),
(90,381,cs),
(106,381,o),
(118,393,o),
(118,408,cs),
(118,654,ls),
(118,669,o),
(106,681,o),
(90,681,cs),
(75,681,o),
(63,669,o),
(63,654,cs)
);
}
);
width = 180;
}
);
unicode = 42891;
},
{
glyphname = a;
kernLeft = a;
kernRight = n;
lastChange = "2024-12-06 21:06:49 +0000";
layers = (
{
anchors = (
{
name = bottom;
pos = (240,14);
},
{
name = ogonek;
pos = (441,23);
},
{
name = top;
pos = (255,567);
}
);
background = {
hints = (
{
horizontal = 1;
place = (-2,23);
type = Stem;
},
{
horizontal = 1;
place = (494,22);
type = Stem;
},
{
place = (33,23);
type = Stem;
},
{
place = (235,22);
type = Stem;
},
{
place = (320,22);
type = Stem;
},
{
horizontal = 1;
place = (2,23);
type = Stem;
},
{
horizontal = 1;
place = (2,30);
type = Stem;
}
);
shapes = (
{
closed = 1;
nodes = (
(439,368,ls),
(439,489,o),
(338,532,o),
(255,532,cs),
(172,532,o),
(71,489,o),
(71,377,cs),
(71,362,o),
(82,350,o),
(98,350,cs),
(113,350,o),
(125,362,o),
(125,377,cs),
(125,451,o),
(186,477,o),
(255,477,cs),
(324,477,o),
(385,451,o),
(385,368,cs),
(385,26,ls),
(385,11,o),
(397,-1,o),
(412,-1,cs),
(428,-1,o),
(439,11,o),
(439,26,cs)
);
},
{
closed = 1;
nodes = (
(285,63,o),
(246,50,o),
(202,50,c),
(202,50,o),
(200,50,o),
(200,50,c),
(162,50,o),
(91,65,o),
(90,138,c),
(90,138,o),
(90,138,o),
(90,138,c),
(91,215,o),
(152,243,o),
(220,263,cs),
(346,300,ls),
(358,304,o),
(366,314,o),
(366,326,cs),
(366,344,o),
(349,358,o),
(332,353,cs),
(205,315,ls),
(132,294,o),
(37,252,o),
(36,138,c),
(36,138,o),
(36,138,o),
(36,138,c),
(37,21,o),
(153,-5,o),
(200,-5,c),
(200,-5,o),
(202,-5,o),
(202,-5,c),
(257,-5,o),
(312,15,o),
(356,55,cs),
(362,60,o),
(365,67,o),
(365,75,cs),
(365,90,o),
(353,102,o),
(338,102,cs),
(331,102,o),
(325,99,o),
(320,95,cs)
);
}
);
};
layerId = m01;
shapes = (
{
closed = 1;
nodes = (
(439,368,ls),
(439,489,o),
(338,532,o),
(255,532,cs),
(172,532,o),
(71,489,o),
(71,377,cs),
(71,362,o),
(82,350,o),
(98,350,cs),
(113,350,o),
(125,362,o),
(125,377,cs),
(125,451,o),
(186,477,o),
(255,477,cs),
(324,477,o),
(385,451,o),
(385,368,cs),
(385,26,ls),
(385,11,o),
(397,-1,o),
(412,-1,cs),
(428,-1,o),
(439,11,o),
(439,26,cs)
);
},
{
closed = 1;
nodes = (
(289,67,o),
(257,50,o),
(200,50,cs),
(162,50,o),
(90,65,o),
(90,138,cs),
(90,215,o),
(142,240,o),
(220,263,cs),
(346,300,ls),
(358,304,o),
(366,314,o),
(366,326,cs),
(366,344,o),
(349,358,o),
(332,353,cs),
(205,315,ls),
(132,294,o),
(35,252,o),
(36,138,cs),
(37,21,o),
(153,-5,o),
(200,-5,cs),
(257,-5,o),
(312,15,o),
(356,55,cs),
(362,60,o),
(365,67,o),
(365,75,cs),
(365,90,o),
(353,102,o),
(338,102,cs),
(331,102,o),
(325,99,o),
(320,95,cs)
);
}
);
width = 503;
}
);
note = a;
unicode = 97;
},
{
glyphname = ae;
kernLeft = a;
kernRight = e;
lastChange = "2023-10-27 14:16:26 +0000";
layers = (
{
anchors = (
{
name = top;
pos = (467,567);
}
);
layerId = m01;
shapes = (
{
alignment = -1;
pos = (334,0);
ref = e;
},
{
closed = 1;
nodes = (
(368,515,o),
(308,532,o),
(255,532,cs),
(172,532,o),
(71,489,o),
(71,377,cs),
(71,362,o),
(82,350,o),
(98,350,cs),
(113,350,o),
(125,362,o),
(125,377,cs),
(125,451,o),
(186,477,o),
(255,477,cs),
(299,477,o),
(338,466,o),
(363,436,cs),
(368,429,o),
(376,426,o),
(384,426,cs),
(400,426,o),
(411,438,o),
(411,453,cs),
(411,459,o),
(409,466,o),
(405,470,cs)
);
},
{
closed = 1;
nodes = (
(300,70,o),
(254,50,o),
(202,50,c),
(202,50,o),
(200,50,o),
(200,50,c),
(162,50,o),
(91,65,o),
(90,137,c),
(90,137,o),
(90,138,o),
(90,138,c),
(91,215,o),
(152,243,o),
(221,263,cs),
(340,298,ls),
(351,302,o),
(359,312,o),
(359,325,cs),
(359,343,o),
(342,356,o),
(324,351,cs),
(204,315,ls),
(132,294,o),
(37,252,o),
(36,138,c),
(36,138,o),
(36,137,o),
(36,137,c),
(37,21,o),
(153,-5,o),
(200,-5,c),
(200,-5,o),
(202,-5,o),
(202,-5,c),
(267,-5,o),
(333,24,o),
(379,80,cs),
(382,84,o),
(385,90,o),
(385,97,cs),
(385,112,o),
(373,124,o),
(358,124,cs),
(350,124,o),
(342,120,o),
(337,114,cs)
);
}
);
width = 879;
}
);
metricLeft = a;
metricRight = e;
unicode = 230;
},
{
glyphname = b;
kernLeft = h;
kernRight = o;
lastChange = "2023-10-27 14:19:29 +0000";
layers = (
{
anchors = (
{
name = bottom;
pos = (284,14);
},
{
name = center;
pos = (284,263);
},
{
name = top;
pos = (284,567);
}
);
background = {
anchors = (
{
name = bottom;
pos = (284,0);
},
{
name = center;
pos = (284,250);
},
{
name = top;
pos = (284,553);
}
);
hints = (
{
horizontal = 1;
place = (-2,23);
type = Stem;
},
{
horizontal = 1;
place = (494,23);
type = Stem;
},
{
place = (54,24);
type = Stem;
},
{
place = (152,22);
type = Stem;
},
{
place = (366,23);
type = Stem;
}
);
shapes = (
{
closed = 0;
nodes = (
(90,200,l),
(90,86,o),
(191,13,o),
(281,13,cs),
(409,13,o),
(489,119,o),
(489,251,cs),
(489,382,o),
(409,490,o),
(281,490,cs),
(163,490,o),
(90,413,o),
(90,276,cs),
(90,14,l)
);
},
{
closed = 0;
nodes = (
(90,619,l),
(90,276,l)
);
},
{
closed = 0;
nodes = (
(90,200,l),
(90,86,o),
(191,13,o),
(281,13,cs),
(409,13,o),
(489,119,o),
(489,251,cs),
(489,382,o),
(409,490,o),
(281,490,cs),
(163,490,o),
(90,413,o),
(90,276,cs),
(90,14,l)
);
},
{
closed = 0;
nodes = (
(90,619,l),
(90,276,l)
);
}
);
};
guides = (
{
angle = 270;
pos = (200,685);
}
);
layerId = m01;
shapes = (
{
closed = 1;
nodes = (
(118,633,ls),
(118,648,o),
(106,660,o),
(90,660,cs),
(75,660,o),
(63,648,o),
(63,633,cs),
(63,27,ls),
(63,12,o),
(75,0,o),
(90,0,cs),
(106,0,o),
(118,12,o),
(118,27,cs)
);
},
{
closed = 1;
nodes = (
(219,471,o),
(246,477,o),
(281,477,cs),
(395,477,o),
(462,388,o),
(462,265,cs),
(462,138,o),
(395,50,o),
(281,50,cs),
(250,50,o),
(222,58,o),
(195,75,cs),
(192,78,o),
(186,80,o),
(181,80,cs),
(165,80,o),
(154,68,o),
(154,52,cs),
(154,42,o),
(158,34,o),
(166,30,cs),
(201,7,o),
(242,-5,o),
(281,-5,cs),
(426,-5,o),
(516,117,o),
(516,265,cs),
(516,410,o),
(426,532,o),
(281,532,cs),
(239,532,o),
(199,523,o),
(167,504,cs),
(159,499,o),
(154,490,o),
(154,480,cs),
(154,465,o),
(165,453,o),
(181,453,cs),
(185,453,o),
(191,454,o),
(194,457,cs)
);
}
);
width = 552;
}
);
note = b;
unicode = 98;
},
{
glyphname = c;
kernLeft = o;
kernRight = c;
lastChange = "2023-10-27 14:19:29 +0000";
layers = (
{
anchors = (
{
name = bottom;
pos = (268,14);
},
{
name = top;
pos = (270,567);
}
);
background = {
anchors = (
{
name = bottom;
pos = (268,14);
},
{
name = top;
pos = (270,567);
}
);
shapes = (
{
closed = 1;
nodes = (
(435,102,o),
(379,50,o),
(271,50,cs),
(157,50,o),
(90,139,o),
(90,266,cs),
(90,389,o),
(157,477,o),
(271,477,cs),
(363,477,o),
(426,435,o),
(426,353,cs),
(426,338,o),
(438,326,o),
(453,326,cs),
(468,326,o),
(480,338,o),
(480,353,cs),
(480,466,o),
(383,532,o),
(271,532,cs),
(127,532,o),
(36,410,o),
(36,266,cs),
(36,118,o),
(127,-5,o),
(271,-5,cs),
(404,-5,o),
(489,75,o),
(489,192,cs),
(489,207,o),
(477,219,o),
(462,219,cs),
(447,219,o),
(435,207,o),
(435,192,cs)
);
}
);
};
layerId = m01;
shapes = (
{
closed = 1;
nodes = (
(435,102,o),
(379,50,o),
(271,50,cs),
(157,50,o),
(90,139,o),
(90,266,cs),
(90,389,o),
(157,477,o),
(271,477,cs),
(363,477,o),
(426,435,o),
(426,353,cs),
(426,338,o),
(438,326,o),
(453,326,cs),
(468,326,o),
(480,338,o),
(480,353,cs),
(480,466,o),
(383,532,o),
(271,532,cs),
(127,532,o),
(36,410,o),
(36,266,cs),
(36,118,o),
(127,-5,o),
(271,-5,cs),
(404,-5,o),
(489,75,o),
(489,192,cs),
(489,207,o),
(477,219,o),
(462,219,cs),
(447,219,o),
(435,207,o),
(435,192,cs)
);
}
);
width = 525;
}
);
note = c;
unicode = 99;
},
{
glyphname = d;
kernLeft = o;
kernRight = l;
lastChange = "2023-10-27 14:19:29 +0000";
layers = (
{
anchors = (
{
name = bottom;
pos = (274,14);
},
{
name = center;
pos = (274,263);
},
{
name = top;
pos = (454,549);
},
{
name = topright;
pos = (541,713);
}
);
guides = (
{
angle = 270;
pos = (411,685);
}
);
layerId = m01;
shapes = (
{
closed = 1;
nodes = (
(489,633,ls),
(489,648,o),
(477,660,o),
(462,660,cs),
(447,660,o),
(435,648,o),
(435,633,cs),
(435,27,ls),
(435,12,o),
(447,0,o),
(462,0,cs),
(477,0,o),
(489,12,o),
(489,27,cs)
);
},
{
closed = 1;
nodes = (
(330,58,o),
(302,50,o),
(271,50,cs),
(157,50,o),
(90,138,o),
(90,265,cs),
(90,388,o),
(157,477,o),
(271,477,cs),
(306,477,o),
(334,471,o),
(358,457,cs),
(362,454,o),
(367,453,o),
(372,453,cs),
(387,453,o),
(399,465,o),
(399,480,cs),
(399,490,o),
(393,499,o),
(385,504,cs),
(353,523,o),
(314,532,o),
(271,532,cs),
(127,532,o),
(36,410,o),
(36,265,cs),
(36,117,o),
(127,-5,o),
(271,-5,cs),
(310,-5,o),
(352,7,o),
(386,30,cs),
(394,34,o),
(399,42,o),
(399,52,cs),
(399,68,o),
(387,80,o),
(372,80,cs),
(366,80,o),
(361,78,o),
(357,75,cs)
);
}
);
width = 552;
}
);
note = d;
unicode = 100;
},
{
glyphname = dcroat;
kernLeft = o;
kernRight = l;
lastChange = "2023-10-27 14:16:26 +0000";
layers = (
{
layerId = m01;
shapes = (
{
ref = d;
},
{
closed = 1;
nodes = (
(312,611,ls),
(297,611,o),
(285,599,o),
(285,584,cs),
(285,569,o),
(297,557,o),
(312,557,cs),
(396,557,ls),
(411,557,o),
(423,569,o),
(423,584,cs),
(423,599,o),
(411,611,o),
(396,611,cs)
);
},
{
closed = 1;
nodes = (
(559,611,ls),
(543,611,o),
(532,599,o),
(532,584,cs),
(532,569,o),
(543,557,o),
(559,557,cs),
(643,557,ls),
(658,557,o),
(670,569,o),
(670,584,cs),
(670,599,o),
(658,611,o),
(643,611,cs)
);
}
);
width = 679;
}
);
metricLeft = d;
unicode = 273;
},
{
glyphname = eth;
kernLeft = eth;
kernRight = eth;
lastChange = "2023-10-27 14:16:26 +0000";
layers = (
{
layerId = m01;
shapes = (
{
closed = 1;
nodes = (
(202,662,ls),
(363,662,o),
(447,556,o),
(447,392,cs),
(447,344,ls),
(447,328,o),
(458,316,o),
(474,316,cs),
(489,316,o),
(501,328,o),
(501,344,cs),
(501,392,ls),
(501,578,o),
(393,716,o),
(202,716,cs),
(183,716,ls),
(167,716,o),
(155,704,o),
(155,689,cs),
(155,673,o),
(167,662,o),
(183,662,cs)
);
},
{
closed = 1;
nodes = (
(447,149,o),
(385,50,o),
(271,50,cs),
(257,50,ls),
(143,50,o),
(81,149,o),
(81,271,cs),
(81,378,o),
(143,477,o),
(257,477,cs),
(271,477,ls),
(314,477,o),
(346,464,o),
(374,439,cs),
(379,435,o),
(385,432,o),
(392,432,cs),
(408,432,o),
(419,444,o),
(419,459,cs),
(419,467,o),
(416,475,o),
(410,479,cs),
(374,512,o),
(325,532,o),
(271,532,cs),
(257,532,ls),
(110,532,o),
(27,399,o),
(27,271,cs),
(27,128,o),
(110,-5,o),
(257,-5,cs),
(271,-5,ls),
(418,-5,o),
(501,128,o),
(501,271,cs),
(501,287,o),
(489,298,o),
(474,298,cs),
(458,298,o),
(447,287,o),
(447,271,cs)
);
},
{
closed = 1;
nodes = (
(276,598,ls),
(287,608,o),
(287,625,o),
(277,636,cs),
(266,647,o),
(250,648,o),
(238,637,cs),
(200,601,ls),
(189,590,o),
(188,574,o),
(199,563,cs),
(210,551,o),
(227,551,o),
(238,561,cs)
);
},
{
closed = 1;
nodes = (
(422,737,ls),
(433,748,o),
(434,764,o),
(423,775,cs),
(412,786,o),
(396,786,o),
(385,777,cs),
(343,736,ls),
(332,725,o),
(331,709,o),
(342,698,cs),
(352,686,o),
(369,686,o),
(380,697,cs)
);
}
);
width = 542;
}
);
unicode = 240;
},
{
glyphname = e;
kernLeft = o;
kernRight = e;
lastChange = "2023-10-27 14:19:29 +0000";
layers = (
{
anchors = (
{
name = bottom;
pos = (285,14);
},
{
name = ogonek;
pos = (334,23);
},
{
name = top;
pos = (285,567);
}
);
background = {
hints = (
{
horizontal = 1;
place = (2,23);
type = Stem;
},
{
horizontal = 1;
place = (295,24);
type = Stem;
},
{
horizontal = 1;
place = (494,22);
type = Stem;
},
{
place = (27,24);
type = Stem;
},
{
place = (336,23);
type = Stem;
}
);
shapes = (
{
closed = 0;
nodes = (
(482,170,ls),
(482,107,o),
(426,14,o),
(285,14,cs),
(149,14,o),
(63,121,o),
(63,252,cs),
(63,384,o),
(149,491,o),
(285,491,cs),
(391,491,o),
(482,415,o),
(482,276,c)
);
},
{
closed = 0;
nodes = (
(410,276,l),
(139,276,l)
);
}
);
};
layerId = m01;
shapes = (
{
closed = 1;
nodes = (
(509,445,o),
(404,532,o),
(285,532,cs),
(133,532,o),
(36,411,o),
(36,266,cs),
(36,117,o),
(133,-5,o),
(285,-5,cs),
(445,-5,o),
(509,104,o),
(509,179,cs),
(509,194,o),
(497,206,o),
(482,206,cs),
(466,206,o),
(455,194,o),
(455,179,cs),
(455,123,o),
(410,50,o),
(285,50,cs),
(162,50,o),
(90,140,o),
(90,266,cs),
(90,388,o),
(162,477,o),
(285,477,cs),
(381,477,o),
(455,416,o),
(455,289,cs),
(455,274,o),
(466,262,o),
(482,262,cs),
(497,262,o),
(509,274,o),
(509,289,cs)
);
},
{
closed = 1;
nodes = (
(410,262,ls),
(425,262,o),
(437,274,o),
(437,289,cs),
(437,305,o),
(425,316,o),
(410,316,cs),
(139,316,ls),
(124,316,o),
(112,305,o),
(112,289,cs),
(112,274,o),
(124,262,o),
(139,262,cs)
);
}
);
width = 545;
}
);
note = e;
unicode = 101;
},
{
glyphname = f;
kernLeft = f;
kernRight = f;
lastChange = "2023-10-27 14:19:29 +0000";
layers = (
{
anchors = (
{
name = bottom;
pos = (201,14);
},
{
name = top;
pos = (201,767);
}
);
background = {
hints = (
{
horizontal = 1;
place = (389,22);
type = Stem;
},
{
horizontal = 1;
place = (494,22);
type = Stem;
},
{
horizontal = 1;
place = (658,23);
type = Stem;
},
{
place = (103,22);
type = Stem;
},
{
horizontal = 1;
place = (658,17);
type = Stem;
}
);
shapes = (
{
closed = 0;
nodes = (
(161,14,l),
(161,296,l)
);
},
{
closed = 0;
nodes = (
(367,385,l),
(45,385,l)
);
},
{
closed = 0;
nodes = (
(161,476,l),
(161,494,ls),
(161,579,o),
(197,641,o),
(289,641,cs),
(354,641,o),
(398,607,o),
(398,523,cs)
);
}
);
};
layerId = m01;
shapes = (
{
closed = 1;
nodes = (
(134,28,ls),
(134,13,o),
(146,1,o),
(161,1,cs),
(176,1,o),
(188,13,o),
(188,28,cs),
(188,327,ls),
(188,343,o),
(176,354,o),
(161,354,cs),
(146,354,o),
(134,343,o),
(134,327,cs)
);
},
{
closed = 1;
nodes = (
(367,372,ls),
(382,372,o),
(394,383,o),
(394,399,cs),
(394,414,o),
(382,426,o),
(367,426,cs),
(45,426,ls),
(30,426,o),
(18,414,o),
(18,399,cs),
(18,383,o),
(30,372,o),
(45,372,cs)
);
},
{
closed = 1;
nodes = (
(425,637,o),
(367,682,o),
(289,682,cs),
(180,682,o),
(134,607,o),
(134,507,cs),
(134,472,ls),
(134,457,o),
(146,445,o),
(161,445,cs),
(176,445,o),
(188,457,o),
(188,472,cs),
(188,507,ls),
(188,586,o),
(212,627,o),
(289,627,cs),
(345,627,o),
(371,607,o),
(371,536,cs),
(371,521,o),
(382,509,o),
(398,509,cs),
(413,509,o),
(425,521,o),
(425,536,cs)
);
}
);
width = 434;
}
);
note = f;
unicode = 102;
},
{
glyphname = g;
kernLeft = g;
kernRight = g;
lastChange = "2023-10-27 14:19:29 +0000";
layers = (
{
anchors = (
{
name = bottom;
pos = (274,-162);
},
{
name = top;
pos = (274,567);
}
);
background = {
hints = (
{
horizontal = 1;
place = (-200,22);
type = Stem;
},
{
horizontal = 1;
place = (2,23);
type = Stem;
},
{
horizontal = 1;
place = (494,23);
type = Stem;
},
{
place = (28,23);
type = Stem;
},
{
place = (277,24);
type = Stem;
},
{
place = (347,22);
type = Stem;
}
);
shapes = (
{
closed = 0;
nodes = (
(74,3,l),
(74,-99,o),
(162,-143,o),
(268,-143,cs),
(401,-143,o),
(462,-63,o),
(462,32,cs),
(462,485,l)
);
},
{
closed = 0;
nodes = (
(462,304,ls),
(462,418,o),
(362,491,o),
(271,491,cs),
(144,491,o),
(63,384,o),
(63,252,cs),
(63,121,o),
(144,14,o),
(271,14,cs),
(390,14,o),
(462,90,o),
(462,228,cs)
);
}
);
};
layerId = m01;
shapes = (
{
closed = 1;
nodes = (
(435,27,ls),
(435,-59,o),
(388,-120,o),
(268,-120,cs),
(168,-120,o),
(101,-87,o),
(101,-2,cs),
(101,14,o),
(89,25,o),
(74,25,cs),
(59,25,o),
(47,14,o),
(47,-2,cs),
(47,-123,o),
(152,-174,o),
(268,-174,cs),
(419,-174,o),
(489,-80,o),
(489,27,cs),
(489,99,ls),
(489,115,o),
(477,127,o),
(462,127,cs),
(447,127,o),
(435,115,o),
(435,99,cs)
);
},
{
closed = 1;
nodes = (
(489,499,ls),
(489,514,o),
(477,526,o),
(462,526,cs),
(447,526,o),
(435,514,o),
(435,499,cs),
(435,179,ls),
(435,164,o),
(447,152,o),
(462,152,cs),
(477,152,o),
(489,164,o),
(489,179,cs)
);
},
{
closed = 1;
nodes = (
(330,58,o),
(302,50,o),
(271,50,cs),
(157,50,o),
(90,138,o),
(90,265,cs),
(90,388,o),
(157,477,o),
(271,477,cs),
(306,477,o),
(334,471,o),
(358,457,cs),
(362,454,o),
(367,453,o),
(372,453,cs),
(387,453,o),
(399,465,o),
(399,480,cs),
(399,490,o),
(393,499,o),
(385,504,cs),
(353,523,o),
(314,532,o),
(271,532,cs),
(127,532,o),
(36,410,o),
(36,265,cs),
(36,117,o),
(127,-5,o),
(271,-5,cs),
(310,-5,o),
(352,7,o),
(386,30,cs),
(394,34,o),
(399,42,o),
(399,52,cs),
(399,68,o),
(387,80,o),
(372,80,cs),
(366,80,o),
(361,78,o),
(357,75,cs)
);
}
);
width = 552;
}
);
note = g;
unicode = 103;
},
{
glyphname = h;
kernLeft = h;
kernRight = n;
lastChange = "2023-10-27 14:19:29 +0000";
layers = (
{
anchors = (
{
name = bottom;
pos = (283,14);
},
{
name = center;
pos = (283,363);
},
{
name = top;
pos = (95,706);
}
);
background = {
hints = (
{
horizontal = 1;
place = (494,23);
type = Stem;
},
{
place = (56,22);
type = Stem;
},
{
place = (130,24);
type = Stem;
},
{
place = (372,22);
type = Stem;
}
);
shapes = (
{
closed = 0;
nodes = (
(90,619,l),
(90,13,l)
);
},
{
closed = 0;
nodes = (
(485,13,l),
(485,318,ls),
(485,440,o),
(412,490,o),
(304,490,cs),
(183,490,o),
(90,400,o),
(90,276,c)
);
}
);
};
guides = (
{
angle = 270;
pos = (200,685);
}
);
layerId = m01;
shapes = (
{
closed = 1;
nodes = (
(118,654,ls),
(118,669,o),
(106,681,o),
(90,681,cs),
(75,681,o),
(63,669,o),
(63,654,cs),
(63,27,ls),
(63,12,o),
(75,0,o),
(90,0,cs),
(106,0,o),
(118,12,o),
(118,27,cs)
);
},
{
closed = 1;
nodes = (
(227,466,o),
(262,477,o),
(304,477,cs),
(404,477,o),
(457,440,o),
(457,332,cs),
(457,27,ls),
(457,12,o),
(469,0,o),
(485,0,cs),
(500,0,o),
(512,12,o),
(512,27,cs),
(512,332,ls),
(512,473,o),
(424,532,o),
(304,532,cs),
(252,532,o),
(204,516,o),
(166,491,cs),
(158,486,o),
(154,477,o),
(154,468,cs),
(154,453,o),
(165,441,o),
(181,441,cs),
(186,441,o),
(192,443,o),
(195,446,cs)
);
}
);
width = 566;
}
);
note = h;
unicode = 104;
},
{
glyphname = hbar;
kernLeft = h;
kernRight = n;
lastChange = "2023-10-27 14:16:26 +0000";
layers = (
{
layerId = m01;
shapes = (
{
pos = (122,0);
ref = h;
},
{
closed = 1;
nodes = (
(36,604,ls),
(21,604,o),
(9,592,o),
(9,577,cs),
(9,561,o),
(21,550,o),
(36,550,cs),
(120,550,ls),
(136,550,o),
(147,561,o),
(147,577,cs),
(147,592,o),
(136,604,o),
(120,604,cs)
);
},
{
closed = 1;
nodes = (
(283,604,ls),
(268,604,o),
(256,592,o),
(256,577,cs),
(256,561,o),
(268,550,o),
(283,550,cs),
(367,550,ls),
(382,550,o),
(394,561,o),
(394,577,cs),
(394,592,o),
(382,604,o),
(367,604,cs)
);
}
);
width = 688;
}
);
metricRight = h;
unicode = 295;
},
{
glyphname = idotless;
kernLeft = i;
kernRight = i;
lastChange = "2023-10-27 14:19:29 +0000";
layers = (
{
anchors = (
{
name = bottom;
pos = (90,14);
},
{
name = ogonek;
pos = (122,23);
},
{
name = top;
pos = (90,567);
}
);
background = {
shapes = (
{
closed = 0;
nodes = (
(90,13,l),
(90,485,l)
);
}
);
};
layerId = m01;
shapes = (
{
closed = 1;
nodes = (
(63,26,ls),
(63,11,o),
(75,-1,o),
(90,-1,cs),
(106,-1,o),
(118,11,o),
(118,26,cs),
(118,499,ls),
(118,514,o),
(106,526,o),
(90,526,cs),
(75,526,o),
(63,514,o),
(63,499,cs)
);
}
);
width = 181;
}
);
unicode = 305;
},
{
glyphname = jdotless;
kernLeft = j;
kernRight = j;
lastChange = "2023-10-27 14:16:26 +0000";
layers = (
{
anchors = (
{
name = top;
pos = (90,567);
}
);
layerId = m01;
shapes = (
{
closed = 1;
nodes = (
(63,91,ls),
(63,76,o),
(75,64,o),
(90,64,cs),
(106,64,o),
(118,76,o),
(118,91,cs),
(118,499,ls),
(118,514,o),
(106,526,o),
(90,526,cs),
(75,526,o),
(63,514,o),
(63,499,cs)
);
},
{
closed = 1;
nodes = (
(63,0,ls),
(63,-52,o),
(56,-120,o),
(-29,-120,cs),
(-75,-120,o),
(-113,-99,o),
(-113,-47,cs),
(-113,-32,o),
(-125,-20,o),
(-140,-20,cs),
(-155,-20,o),
(-167,-32,o),
(-167,-47,cs),
(-167,-140,o),
(-95,-174,o),
(-29,-174,cs),
(89,-174,o),
(118,-72,o),
(118,0,cs),
(118,16,ls),
(118,32,o),
(106,43,o),
(90,43,cs),
(75,43,o),
(63,32,o),
(63,16,cs)
);
}
);
width = 181;
}
);
unicode = 567;
},
{
glyphname = k;
kernLeft = h;
kernRight = k;
lastChange = "2023-10-27 14:19:30 +0000";
layers = (
{
anchors = (
{
name = bottom;
pos = (252,14);
},
{
name = top;
pos = (252,767);
}
);
background = {
anchors = (
{
name = bottom;
pos = (229,0);
},
{
name = top;
pos = (229,754);
}
);
hints = (
{
horizontal = 1;
place = (4,15);
type = Stem;
},
{
horizontal = 1;
place = (493,23);
type = Stem;
},
{
place = (56,22);
type = Stem;
},
{
place = (306,20);
type = Stem;
}
);
shapes = (
{
closed = 0;
nodes = (
(90,13,l),
(90,640,l)
);
},
{
closed = 0;
nodes = (
(90,252,l),
(369,485,l)
);
},
{
closed = 0;
nodes = (
(412,13,l),
(165,313,l)
);
}
);
};
layerId = m01;
shapes = (
{
closed = 1;
nodes = (
(63,27,ls),
(63,12,o),
(75,0,o),
(90,0,cs),
(106,0,o),
(118,12,o),
(118,27,cs),
(118,654,ls),
(118,669,o),
(106,681,o),
(90,681,cs),
(75,681,o),
(63,669,o),
(63,654,cs)
);
},
{
closed = 1;
nodes = (
(146,329,ls),
(140,324,o),
(137,316,o),
(137,308,cs),
(137,293,o),
(148,281,o),
(164,281,cs),
(170,281,o),
(176,284,o),
(181,287,cs),
(410,478,ls),
(416,484,o),
(419,491,o),
(419,499,cs),
(419,514,o),
(408,526,o),
(392,526,cs),
(386,526,o),
(380,523,o),
(375,520,cs)
);
},
{
closed = 1;
nodes = (
(415,10,ls),
(419,4,o),
(428,0,o),
(436,0,cs),
(451,0,o),
(463,12,o),
(463,27,cs),
(463,33,o),
(460,40,o),
(457,44,cs),
(257,287,ls),
(252,293,o),
(244,297,o),
(236,297,cs),
(221,297,o),
(209,285,o),
(209,269,cs),
(209,263,o),
(212,257,o),
(215,252,cs)
);
}
);
width = 481;
}
);
note = k;
unicode = 107;
},
{
glyphname = kgreenlandic;
kernLeft = n;
kernRight = k;
lastChange = "2023-10-27 14:16:26 +0000";
layers = (
{
anchors = (
{
name = bottom;
pos = (261,14);
},
{
name = top;
pos = (261,767);
}
);
layerId = m01;
shapes = (
{
closed = 1;
nodes = (
(72,27,ls),
(72,12,o),
(84,0,o),
(99,0,cs),
(115,0,o),
(127,12,o),
(127,27,cs),
(127,499,ls),
(127,514,o),
(115,526,o),
(99,526,cs),
(84,526,o),
(72,514,o),
(72,499,cs)
);
},
{
closed = 1;
nodes = (
(155,329,ls),
(149,324,o),
(146,316,o),
(146,308,cs),
(146,293,o),
(157,281,o),
(173,281,cs),
(179,281,o),
(185,284,o),
(190,287,cs),
(419,478,ls),
(425,484,o),
(428,491,o),
(428,499,cs),
(428,514,o),
(417,526,o),
(401,526,cs),
(395,526,o),
(389,523,o),
(384,520,cs)
);
},
{
closed = 1;
nodes = (
(424,10,ls),
(428,4,o),
(437,0,o),
(445,0,cs),
(460,0,o),
(472,12,o),
(472,27,cs),
(472,33,o),
(469,40,o),
(466,44,cs),
(266,287,ls),
(261,293,o),
(253,297,o),
(245,297,cs),
(230,297,o),
(218,285,o),
(218,269,cs),
(218,263,o),
(221,257,o),
(224,252,cs)
);
}
);
width = 490;
}
);
unicode = 312;
},
{
glyphname = l;
kernLeft = h;
kernRight = l;
lastChange = "2023-10-27 14:19:30 +0000";
layers = (
{
anchors = (
{
name = bottom;
pos = (90,13);
},
{
name = center;
pos = (193,363);
},
{
name = top;
pos = (92,479);
},
{
name = topright;
pos = (147,713);
}
);
background = {
anchors = (
{
name = bottom;
pos = (17,0);
},
{
name = center;
pos = (17,350);
},
{
name = top;
pos = (17,754);
},
{
name = topright;
pos = (147,700);
}
);
hints = (
{
horizontal = 1;
place = (2,23);
type = Stem;
},
{
horizontal = 1;
place = (542,24);
type = Stem;
},
{
horizontal = 1;
place = (653,24);
type = Stem;
},
{
place = (108,23);
type = Stem;
},
{
horizontal = 1;
place = (2,30);
type = Stem;
}
);
shapes = (
{
closed = 1;
nodes = (
(-79,676,ls),
(-85,676,o),
(-90,671,o),
(-90,664,cs),
(-90,658,o),
(-85,653,o),
(-79,653,cs),
(24,653,l),
(24,566,l),
(-79,566,ls),
(-85,566,o),
(-90,560,o),
(-90,554,cs),
(-90,548,o),
(-85,542,o),
(-79,542,cs),
(24,542,l),
(24,69,l),
(24,55,o),
(27,41,o),
(34,28,cs),
(38,22,o),
(42,16,o),
(49,12,cs),
(55,7,o),
(62,4,o),
(71,3,c),
(72,2,o),
(75,2,o),
(77,2,cs),
(88,2,o),
(98,5,o),
(106,12,cs),
(110,16,o),
(111,24,o),
(108,28,cs),
(103,33,o),
(96,33,o),
(91,30,cs),
(88,26,o),
(82,24,o),
(77,24,cs),
(74,24,ls),
(71,25,o),
(66,27,o),
(62,30,cs),
(59,33,o),
(56,36,o),
(53,40,cs),
(49,48,o),
(47,58,o),
(46,69,c),
(46,664,ls),
(46,671,o),
(42,676,o),
(35,676,cs)
);
},
{
closed = 0;
nodes = (
(90,13,l),
(90,640,l)
);
}
);
};
layerId = m01;
shapes = (
{
closed = 1;
nodes = (
(63,27,ls),
(63,12,o),
(75,0,o),
(90,0,cs),
(106,0,o),
(118,12,o),
(118,27,cs),
(118,654,ls),
(118,669,o),
(106,681,o),
(90,681,cs),
(75,681,o),
(63,669,o),
(63,654,cs)
);
}
);
width = 181;
}
);
note = l;
unicode = 108;
},
{
glyphname = lslash;
kernLeft = lslash;
kernRight = lslash;
lastChange = "2023-10-27 14:16:26 +0000";
layers = (
{
layerId = m01;
shapes = (
{
pos = (81,0);
ref = l;
},
{
closed = 1;
nodes = (
(19,258,ls),
(13,252,o),
(9,245,o),
(9,237,cs),
(9,221,o),
(21,210,o),
(36,210,cs),
(42,210,o),
(49,212,o),
(53,216,cs),
(118,270,ls),
(125,276,o),
(128,283,o),
(128,291,cs),
(128,306,o),
(117,318,o),
(101,318,cs),
(95,318,o),
(89,315,o),
(84,312,cs)
);
},
{
closed = 1;
nodes = (
(237,437,ls),
(231,432,o),
(228,425,o),
(228,417,cs),
(228,401,o),
(240,390,o),
(255,390,cs),
(262,390,o),
(268,392,o),
(273,397,cs),
(339,457,ls),
(344,461,o),
(348,468,o),
(348,476,cs),
(348,492,o),
(336,504,o),
(321,504,cs),
(314,504,o),
(307,501,o),
(303,496,cs)
);
}
);
width = 357;
}
);
unicode = 322;
},
{
glyphname = m;
kernLeft = n;
kernRight = n;
lastChange = "2023-10-27 14:19:30 +0000";
layers = (
{
anchors = (
{
name = bottom;
pos = (469,14);
},
{
name = top;
pos = (469,567);
}
);
background = {
hints = (
{
horizontal = 1;
place = (313,22);
type = Stem;
},
{
horizontal = 1;
place = (494,23);
type = Stem;
},
{
place = (53,23);
type = Stem;
},
{
place = (341,23);
type = Stem;
},
{
place = (636,23);
type = Stem;
},
{
horizontal = 1;
place = (494,23);
type = Stem;
}
);
shapes = (
{
closed = 1;
nodes = (
(58,14,ls),
(58,7,o),
(63,3,o),
(70,3,cs),
(76,3,o),
(80,7,o),
(80,14,cs),
(80,313,l),
(345,313,l),
(345,14,ls),
(345,7,o),
(350,3,o),
(356,3,cs),
(363,3,o),
(368,7,o),
(368,14,cs),
(368,313,l),
(641,313,l),
(641,14,ls),
(641,7,o),
(645,3,o),
(652,3,cs),
(658,3,o),
(664,7,o),
(664,14,cs),
(664,401,l),
(662,430,o),
(649,459,o),
(629,480,cs),
(608,501,o),
(580,513,o),
(551,515,cs),
(547,516,o),
(542,516,o),
(539,516,cs),
(517,516,o),
(495,512,o),
(476,503,cs),
(453,493,o),
(432,478,o),
(414,461,cs),
(396,445,o),
(381,427,o),
(367,401,c),
(367,430,o),
(354,457,o),
(336,477,cs),
(316,498,o),
(289,512,o),
(261,515,cs),
(255,516,o),
(250,517,o),
(244,517,cs),
(223,517,o),
(203,513,o),
(184,504,cs),
(161,494,o),
(140,479,o),
(122,461,cs),
(106,444,o),
(91,424,o),
(80,396,c),
(80,474,l),
(79,486,o),
(74,499,o),
(68,511,c),
(64,515,o),
(57,517,o),
(52,514,c),
(47,511,o),
(45,504,o),
(48,498,cs),
(53,490,o),
(57,481,o),
(58,471,c)
);
},
{
closed = 1;
nodes = (
(345,334,l),
(80,334,l),
(80,346,l),
(92,383,o),
(111,418,o),
(138,445,cs),
(155,461,o),
(173,475,o),
(193,484,cs),
(210,490,o),
(227,494,o),
(244,494,cs),
(249,494,o),
(253,494,o),
(258,494,c),
(281,490,o),
(304,479,o),
(319,462,cs),
(335,445,o),
(344,421,o),
(345,399,cs)
);
},
{
closed = 1;
nodes = (
(641,334,l),
(368,334,l),
(368,362,l),
(383,392,o),
(404,421,o),
(429,445,cs),
(446,460,o),
(465,474,o),
(485,482,cs),
(502,489,o),
(521,494,o),
(539,494,cs),
(550,494,l),
(573,491,o),
(596,480,o),
(613,464,cs),
(629,447,o),
(639,424,o),
(641,400,c)
);
}
);
};
guides = (
{
angle = 270;
pos = (200,685);
},
{
angle = 270;
pos = (618,670);
}
);
layerId = m01;
shapes = (
{
closed = 1;
nodes = (
(118,499,ls),
(118,514,o),
(106,526,o),
(90,526,cs),
(75,526,o),
(63,514,o),
(63,499,cs),
(63,27,ls),
(63,12,o),
(75,0,o),
(90,0,cs),
(106,0,o),
(118,12,o),
(118,27,cs)
);
},
{
closed = 1;
nodes = (
(605,466,o),
(640,477,o),
(682,477,cs),
(782,477,o),
(835,440,o),
(835,333,cs),
(835,27,ls),
(835,12,o),
(847,0,o),
(862,0,cs),
(878,0,o),
(890,12,o),
(890,27,cs),
(890,333,ls),
(890,473,o),
(802,532,o),
(682,532,cs),
(630,532,o),
(582,516,o),
(544,491,cs),
(536,486,o),
(532,477,o),
(532,468,cs),
(532,453,o),
(543,441,o),
(559,441,cs),
(564,441,o),
(570,443,o),
(573,446,cs)
);
},
{
closed = 1;
nodes = (
(225,468,o),
(256,477,o),
(295,477,cs),
(390,477,o),
(441,441,o),
(441,333,cs),
(441,27,ls),
(441,12,o),
(453,0,o),
(468,0,cs),
(484,0,o),
(495,12,o),
(495,27,cs),
(495,333,ls),
(495,472,o),
(411,532,o),
(295,532,cs),
(248,532,o),
(202,518,o),
(165,494,cs),
(158,489,o),
(154,480,o),
(154,471,cs),
(154,456,o),
(165,444,o),
(181,444,cs),
(186,444,o),
(192,446,o),
(196,448,cs)
);
}
);
width = 953;
}
);
note = m;
unicode = 109;
},
{
glyphname = n;
kernLeft = n;
kernRight = n;
lastChange = "2023-10-27 14:19:30 +0000";
layers = (
{
anchors = (
{
name = bottom;
pos = (306,14);
},
{
name = top;
pos = (306,567);
}
);
background = {
hints = (
{
horizontal = 1;
place = (327,22);
type = Stem;
},
{
horizontal = 1;
place = (494,23);
type = Stem;
},
{
place = (54,22);
type = Stem;
},
{
place = (371,22);
type = Stem;
},
{
horizontal = 1;
place = (514,-20);
target = down;
type = TopGhost;
}
);
shapes = (
{
closed = 1;
nodes = (
(59,14,ls),
(59,7,o),
(63,2,o),
(70,2,cs),
(76,2,o),
(80,7,o),
(80,14,cs),
(80,327,l),
(375,327,l),
(375,14,ls),
(375,7,o),
(380,2,o),
(386,2,cs),
(392,2,o),
(397,7,o),
(397,14,cs),
(397,385,ls),
(397,418,o),
(383,449,o),
(362,473,cs),
(339,496,o),
(309,512,o),
(278,515,cs),
(270,516,o),
(264,517,o),
(258,517,cs),
(236,517,o),
(215,513,o),
(196,505,cs),
(170,495,o),
(147,480,o),
(127,461,cs),
(109,444,o),
(93,419,o),
(80,396,c),
(80,474,l),
(79,486,o),
(74,499,o),
(68,511,c),
(64,515,o),
(57,517,o),
(52,514,c),
(47,511,o),
(45,504,o),
(48,498,cs),
(53,490,o),
(57,481,o),
(58,471,cs),
(58,469,o),
(59,466,o),
(59,462,cs)
);
},
{
closed = 1;
nodes = (
(375,349,l),
(82,349,l),
(95,385,o),
(116,419,o),
(144,445,cs),
(161,462,o),
(182,476,o),
(204,484,cs),
(221,491,o),
(240,494,o),
(258,494,cs),
(263,494,o),
(268,494,o),
(274,494,c),
(301,490,o),
(326,476,o),
(345,457,cs),
(362,439,o),
(374,414,o),
(375,384,cs)
);
}
);
};
guides = (
{
angle = 270;
pos = (200,685);
}
);
layerId = m01;
shapes = (
{
closed = 1;
nodes = (
(118,499,ls),
(118,514,o),
(106,526,o),
(90,526,cs),
(75,526,o),
(63,514,o),
(63,499,cs),
(63,27,ls),
(63,12,o),
(75,0,o),
(90,0,cs),
(106,0,o),
(118,12,o),
(118,27,cs)
);
},
{
closed = 1;
nodes = (
(227,466,o),
(262,477,o),
(304,477,cs),
(404,477,o),
(457,440,o),
(457,333,cs),
(457,27,ls),
(457,12,o),
(469,0,o),
(485,0,cs),
(500,0,o),
(512,12,o),
(512,27,cs),
(512,333,ls),
(512,473,o),
(424,532,o),
(304,532,cs),
(252,532,o),
(204,516,o),
(166,491,cs),
(158,486,o),
(154,477,o),
(154,468,cs),
(154,453,o),
(165,441,o),
(181,441,cs),
(186,441,o),
(192,443,o),
(195,446,cs)
);
}
);
width = 575;
}
);
note = n;
unicode = 110;
},
{
glyphname = nhookleft;
kernLeft = nhookleft;
kernRight = nhookleft;
lastChange = "2023-10-27 14:16:26 +0000";
layers = (
{
layerId = m01;
shapes = (
{
ref = n;
},
{
closed = 1;
nodes = (
(63,-116,ls),
(63,-149,o),
(24,-159,o),
(-12,-126,cs),
(-17,-121,o),
(-24,-118,o),
(-31,-118,cs),
(-46,-118,o),
(-58,-130,o),
(-58,-146,cs),
(-58,-154,o),
(-54,-160,o),
(-50,-165,c),
(14,-224,o),
(118,-195,o),
(118,-116,cs),
(118,29,ls),
(118,44,o),
(106,56,o),
(90,56,cs),
(75,56,o),
(63,44,o),
(63,29,cs)
);
}
);
width = 542;
}
);
unicode = 626;
},
{
glyphname = eng;
kernLeft = n;
kernRight = j;
lastChange = "2023-10-27 14:16:26 +0000";
layers = (
{
layerId = m01;
shapes = (
{
ref = n;
},
{
closed = 1;
nodes = (
(457,-117,ls),
(457,-150,o),
(418,-160,o),
(382,-127,cs),
(377,-122,o),
(371,-119,o),
(363,-119,cs),
(348,-119,o),
(336,-131,o),
(336,-146,cs),
(336,-155,o),
(340,-161,o),
(344,-166,c),
(408,-225,o),
(512,-196,o),
(512,-117,cs),
(512,28,ls),
(512,43,o),
(500,55,o),
(485,55,cs),
(469,55,o),
(457,43,o),
(457,28,cs)
);
}
);
width = 542;
}
);
unicode = 331;
},
{
glyphname = o;
kernLeft = o;
kernRight = o;
lastChange = "2024-12-06 21:16:47 +0000";
layers = (
{
anchors = (
{
name = bottom;
pos = (279,14);
},
{
name = center;
pos = (279,263);
},
{
name = ogonek;
pos = (301,23);
},
{
name = top;
pos = (279,567);
},
{
name = topright;
pos = (380,513);
}
);
layerId = m01;
shapes = (
{
closed = 1;
nodes = (
(523,447,o),
(410,532,o),
(279,532,cs),
(149,532,o),
(36,447,o),
(36,306,cs),
(36,290,o),
(48,278,o),
(63,278,cs),
(79,278,o),
(90,290,o),
(90,306,cs),
(90,417,o),
(171,477,o),
(279,477,cs),
(388,477,o),
(468,417,o),
(468,306,cs),
(468,290,o),
(480,278,o),
(495,278,cs),
(511,278,o),
(523,290,o),
(523,306,cs)
);
},
{
closed = 1;
nodes = (
(36,80,o),
(149,-5,o),
(279,-5,cs),
(410,-5,o),
(523,80,o),
(523,221,cs),
(523,237,o),
(511,249,o),
(495,249,cs),
(480,249,o),
(468,237,o),
(468,221,cs),
(468,110,o),
(388,50,o),
(279,50,cs),
(171,50,o),
(90,110,o),
(90,221,cs),
(90,237,o),
(79,249,o),
(63,249,cs),
(48,249,o),
(36,237,o),
(36,221,cs)
);
}
);
width = 559;
}
);
note = o;
unicode = 111;
},
{
glyphname = oslash;
kernLeft = o;
kernRight = o;
lastChange = "2023-10-27 14:16:26 +0000";
layers = (
{
background = {
shapes = (
{
closed = 1;
nodes = (
(163,633,o),
(33,489,o),
(33,316,cs),
(33,144,o),
(163,0,o),
(326,0,cs),
(490,0,o),
(619,144,o),
(619,316,cs),
(619,489,o),
(490,633,o),
(326,633,cs)
);
},
{
closed = 1;
nodes = (
(456,579,o),
(564,463,o),
(564,316,cs),
(564,170,o),
(456,54,o),
(325,54,cs),
(195,54,o),
(87,170,o),
(87,316,cs),
(87,463,o),
(195,579,o),
(325,579,cs)
);
},
{
closed = 1;
nodes = (
(251,176,ls),
(250,174,o),
(250,171,o),
(250,168,cs),
(250,154,o),
(261,141,o),
(278,141,cs),
(289,141,o),
(300,148,o),
(304,160,cs),
(401,469,ls),
(402,472,o),
(402,475,o),
(402,477,cs),
(402,492,o),
(391,504,o),
(375,504,cs),
(363,504,o),
(353,497,o),
(349,485,cs)
);
}
);
};
hints = (
{
horizontal = 1;
place = (-27,54);
type = Stem;
},
{
horizontal = 1;
place = (551,54);
type = Stem;
},
{
place = (33,53);
type = Stem;
},
{
place = (564,55);
type = Stem;
}
);
layerId = m01;
shapes = (
{
ref = o;
},
{
closed = 1;
nodes = (
(202,126,l),
(201,122,o),
(200,118,o),
(200,115,cs),
(200,99,o),
(212,88,o),
(227,88,cs),
(238,88,o),
(249,95,o),
(252,104,cs),
(371,382,l),
(372,386,o),
(372,390,o),
(372,393,cs),
(372,409,o),
(361,420,o),
(345,420,cs),
(334,420,o),
(324,413,o),
(320,404,cs)
);
}
);
width = 569;
}
);
note = oslash;
unicode = 248;
},
{
glyphname = oe;
kernLeft = o;
kernRight = e;
lastChange = "2023-10-27 14:16:26 +0000";
layers = (
{
layerId = m01;
shapes = (
{
ref = o;
},
{
closed = 1;
nodes = (
(581,23,o),
(641,-5,o),
(711,-5,cs),
(871,-5,o),
(936,104,o),
(936,179,cs),
(936,194,o),
(924,206,o),
(909,206,cs),
(893,206,o),
(881,194,o),
(881,179,cs),
(881,123,o),
(837,50,o),
(711,50,cs),
(654,50,o),
(611,69,o),
(577,103,cs),
(572,108,o),
(565,111,o),
(558,111,cs),
(542,111,o),
(531,99,o),
(531,84,cs),
(531,77,o),
(533,70,o),
(539,65,cs)
);
},
{
closed = 1;
nodes = (
(845,239,ls),
(861,239,o),
(872,250,o),
(872,266,cs),
(872,281,o),
(861,293,o),
(845,293,cs),
(566,293,ls),
(551,293,o),
(539,281,o),
(539,266,cs),
(539,250,o),
(551,239,o),
(566,239,cs)
);
},
{
closed = 1;
nodes = (
(936,445,o),
(831,532,o),
(711,532,cs),
(643,532,o),
(585,507,o),
(542,466,c),
(538,461,o),
(534,455,o),
(534,447,cs),
(534,431,o),
(546,419,o),
(561,419,cs),
(569,419,o),
(575,422,o),
(580,427,cs),
(615,460,o),
(655,477,o),
(711,477,cs),
(807,477,o),
(881,416,o),
(881,289,cs),
(881,274,o),
(893,262,o),
(909,262,cs),
(924,262,o),
(936,274,o),
(936,289,cs)
);
}
);
width = 972;
}
);
metricRight = e;
unicode = 339;
},
{
glyphname = p;
kernLeft = p;
kernRight = o;
lastChange = "2023-10-27 14:19:30 +0000";
layers = (
{
anchors = (
{
name = bottom;
pos = (301,14);
},
{
name = top;
pos = (301,567);
}
);
background = {
hints = (
{
horizontal = 1;
place = (1,23);
type = Stem;
},
{
horizontal = 1;
place = (494,22);
type = Stem;
},
{
place = (53,23);
type = Stem;
},
{
place = (161,24);
type = Stem;
},
{
place = (368,23);
type = Stem;
}
);
shapes = (
{
closed = 0;
nodes = (
(90,490,l),
(90,228,ls),
(90,90,o),
(163,14,o),
(281,14,cs),
(409,14,o),
(489,121,o),
(489,252,cs),
(489,384,o),
(409,491,o),
(281,491,cs),
(191,491,o),
(90,418,o),
(90,304,c)
);
},
{
closed = 0;
nodes = (
(90,228,l),
(90,-116,l)
);
}
);
};
layerId = m01;
shapes = (
{
closed = 1;
nodes = (
(118,499,ls),
(118,514,o),
(106,526,o),
(90,526,cs),
(75,526,o),
(63,514,o),
(63,499,cs),
(63,-102,ls),
(63,-118,o),
(75,-129,o),
(90,-129,cs),
(106,-129,o),
(118,-118,o),
(118,-102,cs)
);
},
{
closed = 1;
nodes = (
(219,470,o),
(246,476,o),
(281,476,cs),
(395,476,o),
(462,387,o),
(462,265,cs),
(462,138,o),
(395,50,o),
(281,50,cs),
(250,50,o),
(222,58,o),
(195,75,cs),
(192,78,o),
(186,80,o),
(181,80,cs),
(165,80,o),
(154,68,o),
(154,52,cs),
(154,42,o),
(158,34,o),
(166,30,cs),
(201,7,o),
(242,-5,o),
(281,-5,cs),
(426,-5,o),
(516,117,o),
(516,265,cs),
(516,409,o),
(426,531,o),
(281,531,cs),
(239,531,o),
(199,522,o),
(167,503,cs),
(159,498,o),
(154,489,o),
(154,479,cs),
(154,464,o),
(165,452,o),
(181,452,cs),
(185,452,o),
(191,453,o),
(194,456,cs)
);
}
);
width = 552;
}
);
note = p;
unicode = 112;
},
{
glyphname = thorn;
kernLeft = h;
kernRight = o;
lastChange = "2023-10-27 14:16:26 +0000";
layers = (
{
anchors = (
{
name = bottom;
pos = (290,14);
},
{
name = top;
pos = (290,567);
}
);
hints = (
{
horizontal = 1;
place = (-27,21);
target = up;
type = BottomGhost;
},
{
horizontal = 1;
place = (173,54);
type = Stem;
},
{
horizontal = 1;
place = (481,54);
type = Stem;
},
{
horizontal = 1;
place = (606,-20);
target = down;
type = TopGhost;
},
{
place = (78,54);
type = Stem;
},
{
place = (452,54);
type = Stem;
}
);
layerId = m01;
shapes = (
{
closed = 1;
nodes = (
(208,471,o),
(235,477,o),
(270,477,cs),
(384,477,o),
(451,388,o),
(451,265,cs),
(451,138,o),
(384,50,o),
(270,50,cs),
(240,50,o),
(212,58,o),
(184,75,cs),
(181,78,o),
(175,80,o),
(170,80,cs),
(155,80,o),
(143,68,o),
(143,52,cs),
(143,42,o),
(147,34,o),
(155,30,cs),
(190,7,o),
(231,-5,o),
(270,-5,cs),
(415,-5,o),
(505,117,o),
(505,265,cs),
(505,410,o),
(415,532,o),
(270,532,cs),
(228,532,o),
(188,523,o),
(156,504,cs),
(148,499,o),
(143,490,o),
(143,480,cs),
(143,465,o),
(155,453,o),
(170,453,cs),
(174,453,o),
(180,454,o),
(184,457,cs)
);
},
{
closed = 1;
nodes = (
(52,-102,ls),
(52,-118,o),
(64,-129,o),
(80,-129,cs),
(95,-129,o),
(107,-118,o),
(107,-102,cs),
(107,654,ls),
(107,669,o),
(95,681,o),
(80,681,cs),
(64,681,o),
(52,669,o),
(52,654,cs)
);
}
);
width = 580;
}
);
note = thorn;
unicode = 254;
},
{
glyphname = q;
kernLeft = o;
kernRight = q;
lastChange = "2023-10-27 14:19:30 +0000";
layers = (
{
anchors = (
{
name = bottom;
pos = (274,14);
},
{
name = top;
pos = (274,567);
}
);
layerId = m01;
shapes = (
{
closed = 1;
nodes = (
(489,499,ls),
(489,514,o),
(477,526,o),
(462,526,cs),
(447,526,o),
(435,514,o),
(435,499,cs),
(435,-102,ls),
(435,-118,o),
(447,-129,o),
(462,-129,cs),
(477,-129,o),
(489,-118,o),
(489,-102,cs)
);
},
{
closed = 1;
nodes = (
(330,58,o),
(302,50,o),
(271,50,cs),
(157,50,o),
(90,138,o),
(90,265,cs),
(90,388,o),
(157,477,o),
(271,477,cs),
(306,477,o),
(334,471,o),
(358,457,cs),
(362,454,o),
(367,453,o),
(372,453,cs),
(387,453,o),
(399,465,o),
(399,480,cs),
(399,490,o),
(393,499,o),
(385,504,cs),
(353,523,o),
(314,532,o),
(271,532,cs),
(127,532,o),
(36,410,o),
(36,265,cs),
(36,117,o),
(127,-5,o),
(271,-5,cs),
(310,-5,o),
(352,7,o),
(386,30,cs),
(394,34,o),
(399,42,o),
(399,52,cs),
(399,68,o),
(387,80,o),
(372,80,cs),
(366,80,o),
(361,78,o),
(357,75,cs)
);
}
);
width = 552;
}
);
note = q;
unicode = 113;
},
{
glyphname = r;
kernLeft = n;
kernRight = r;
lastChange = "2023-10-27 14:19:30 +0000";
layers = (
{
anchors = (
{
name = bottom;
pos = (90,14);
},
{
name = top;
pos = (269,567);
}
);
background = {
hints = (
{
horizontal = 1;
place = (392,22);
type = Stem;
},
{
horizontal = 1;
place = (494,22);
type = Stem;
},
{
place = (54,22);
type = Stem;
},
{
horizontal = 1;
place = (380,20);
type = Stem;
},
{
horizontal = 1;
place = (481,20);
type = Stem;
}
);
shapes = (
{
closed = 1;
nodes = (
(80,474,l),
(79,486,o),
(74,499,o),
(68,511,c),
(64,515,o),
(57,517,o),
(52,514,c),
(47,511,o),
(45,504,o),
(48,498,cs),
(53,490,o),
(57,481,o),
(58,471,cs),
(58,468,o),
(59,466,o),
(59,463,cs),
(59,14,l),
(57,7,o),
(62,3,o),
(69,2,cs),
(75,2,o),
(80,7,o),
(80,14,c),
(80,208,l),
(88,249,o),
(108,289,o),
(131,319,cs),
(146,340,o),
(165,359,o),
(186,372,cs),
(207,384,o),
(231,392,o),
(255,392,cs),
(258,392,ls),
(275,391,o),
(292,387,o),
(306,380,cs),
(312,377,o),
(319,379,o),
(322,384,cs),
(325,390,o),
(323,397,o),
(317,400,cs),
(298,409,o),
(278,414,o),
(258,414,cs),
(255,414,ls),
(227,414,o),
(199,406,o),
(174,391,cs),
(150,376,o),
(130,355,o),
(113,334,cs),
(99,315,o),
(89,296,o),
(80,275,c),
(80,324,l),
(91,358,o),
(108,391,o),
(129,420,cs),
(145,441,o),
(164,460,o),
(185,473,cs),
(206,485,o),
(230,494,o),
(253,494,cs),
(256,494,ls),
(273,493,o),
(290,488,o),
(305,481,cs),
(310,478,o),
(317,480,o),
(320,485,cs),
(323,491,o),
(321,498,o),
(315,501,cs),
(297,510,o),
(277,515,o),
(256,515,cs),
(253,515,ls),
(225,515,o),
(197,507,o),
(174,493,cs),
(148,477,o),
(128,457,o),
(111,435,cs),
(99,419,o),
(89,402,o),
(80,385,c)
);
}
);
};
guides = (
{
angle = 270;
pos = (200,685);
}
);
layerId = m01;
shapes = (
{
closed = 1;
nodes = (
(118,499,ls),
(118,514,o),
(106,526,o),
(90,526,cs),
(75,526,o),
(63,514,o),
(63,499,cs),
(63,27,ls),
(63,12,o),
(75,0,o),
(90,0,cs),
(106,0,o),
(118,12,o),
(118,27,cs)
);
},
{
closed = 1;
nodes = (
(448,471,o),
(374,532,o),
(269,532,cs),
(232,532,o),
(196,521,o),
(166,501,cs),
(158,496,o),
(154,487,o),
(154,478,cs),
(154,463,o),
(165,451,o),
(181,451,cs),
(186,451,o),
(192,453,o),
(195,456,cs),
(219,471,o),
(240,477,o),
(269,477,cs),
(351,477,o),
(394,442,o),
(394,333,cs),
(394,317,o),
(406,306,o),
(421,306,cs),
(437,306,o),
(448,317,o),
(448,333,cs)
);
}
);
width = 466;
}
);
note = r;
unicode = 114;
},
{
glyphname = s;
kernLeft = s;
kernRight = s;
lastChange = "2024-12-09 09:46:08 +0000";
layers = (
{
anchors = (
{
name = bottom;
pos = (236,14);
},
{
name = top;
pos = (248,567);
}
);
background = {
anchors = (
{
name = bottom;
pos = (236,0);
},
{
name = top;
pos = (236,526);
}
);
hints = (
{
horizontal = 1;
place = (2,21);
type = Stem;
},
{
horizontal = 1;
place = (494,23);
type = Stem;
},
{
place = (45,23);
type = Stem;
},
{
place = (302,23);
type = Stem;
}
);
shapes = (
{
closed = 0;
nodes = (
(54,161,l),
(54,68,o),
(129,9,o),
(250,9,cs),
(372,9,o),
(447,61,o),
(447,140,cs),
(447,301,o),
(92,221,o),
(92,376,cs),
(92,435,o),
(156,485,o),
(259,485,cs),
(363,485,o),
(427,435,o),
(427,355,c)
);
}
);
};
layerId = m01;
shapes = (
{
closed = 1;
nodes = (
(123,532,o),
(45,473,o),
(45,393,cs),
(45,181,o),
(420,308,o),
(420,154,cs),
(420,89,o),
(363,50,o),
(270,50,cs),
(148,50,o),
(91,95,o),
(91,174,cs),
(91,190,o),
(80,202,o),
(64,202,cs),
(49,202,o),
(37,190,o),
(37,174,cs),
(37,64,o),
(127,-5,o),
(270,-5,cs),
(383,-5,o),
(475,56,o),
(475,154,cs),
(475,363,o),
(99,240,o),
(99,393,cs),
(99,446,o),
(148,477,o),
(204,477,cs),
(220,477,o),
(231,489,o),
(231,504,cs),
(231,520,o),
(220,532,o),
(204,532,cs)
);
},
{
closed = 1;
nodes = (
(454,470,o),
(373,532,o),
(292,532,cs),
(276,532,o),
(265,520,o),
(265,504,cs),
(265,489,o),
(276,477,o),
(292,477,cs),
(348,477,o),
(400,443,o),
(400,375,cs),
(400,360,o),
(411,348,o),
(427,348,cs),
(442,348,o),
(454,360,o),
(454,375,cs)
);
}
);
width = 511;
}
);
note = s;
unicode = 115;
},
{
glyphname = t;
kernLeft = t;
kernRight = t;
lastChange = "2023-10-27 14:19:30 +0000";
layers = (
{
anchors = (
{
name = bottom;
pos = (288,14);
},
{
name = center;
pos = (225,263);
},
{
name = top;
pos = (179,599);
},
{
name = topright;
pos = (376,713);
}
);
background = {
hints = (
{
horizontal = 1;
place = (2,23);
type = Stem;
},
{
horizontal = 1;
place = (396,24);
type = Stem;
},
{
horizontal = 1;
place = (494,22);
type = Stem;
},
{
place = (103,24);
type = Stem;
}
);
shapes = (
{
closed = 0;
nodes = (
(107,485,l),
(54,485,l)
);
},
{
closed = 0;
nodes = (
(407,133,l),
(407,49,o),
(363,14,o),
(298,14,cs),
(206,14,o),
(170,76,o),
(170,162,cs),
(170,641,l)
);
},
{
closed = 0;
nodes = (
(346,485,l),
(223,485,l)
);
}
);
};
layerId = m01;
shapes = (
{
closed = 1;
nodes = (
(98,472,ls),
(113,472,o),
(125,484,o),
(125,499,cs),
(125,514,o),
(113,526,o),
(98,526,cs),
(45,526,ls),
(30,526,o),
(18,514,o),
(18,499,cs),
(18,484,o),
(30,472,o),
(45,472,cs)
);
},
{
closed = 1;
nodes = (
(143,171,ls),
(143,71,o),
(189,-4,o),
(298,-4,cs),
(376,-4,o),
(434,41,o),
(434,142,cs),
(434,157,o),
(422,169,o),
(407,169,cs),
(391,169,o),
(380,157,o),
(380,142,cs),
(380,71,o),
(354,51,o),
(298,51,cs),
(221,51,o),
(197,92,o),
(197,171,cs),
(197,654,ls),
(197,669,o),
(185,681,o),
(170,681,cs),
(155,681,o),
(143,669,o),
(143,654,cs)
);
},
{
closed = 1;
nodes = (
(364,472,ls),
(380,472,o),
(391,484,o),
(391,499,cs),
(391,514,o),
(380,526,o),
(364,526,cs),
(241,526,ls),
(226,526,o),
(214,514,o),
(214,499,cs),
(214,484,o),
(226,472,o),
(241,472,cs)
);
}
);
width = 461;
}
);
note = t;
unicode = 116;
},
{
glyphname = tbar;
kernLeft = t;
kernRight = t;
lastChange = "2023-10-27 14:16:26 +0000";
layers = (
{
layerId = m01;
shapes = (
{
ref = t;
},
{
closed = 1;
nodes = (
(96,296,ls),
(111,296,o),
(123,307,o),
(123,323,cs),
(123,338,o),
(111,350,o),
(96,350,cs),
(43,350,ls),
(28,350,o),
(16,338,o),
(16,323,cs),
(16,307,o),
(28,296,o),
(43,296,cs)
);
},
{
closed = 1;
nodes = (
(363,296,ls),
(378,296,o),
(390,307,o),
(390,323,cs),
(390,338,o),
(378,350,o),
(363,350,cs),
(240,350,ls),
(224,350,o),
(212,338,o),
(212,323,cs),
(212,307,o),
(224,296,o),
(240,296,cs)
);
}
);
width = 542;
}
);
unicode = 359;
},
{
glyphname = u;
kernLeft = u;
kernRight = u;
lastChange = "2024-12-06 21:17:15 +0000";
layers = (
{
anchors = (
{
name = bottom;
pos = (295,14);
},
{
name = ogonek;
pos = (504,23);
},
{
name = top;
pos = (295,567);
},
{
name = topright;
pos = (512,499);
}
);
background = {
hints = (
{
horizontal = 1;
place = (2,23);
type = Stem;
},
{
horizontal = 1;
place = (514,-20);
target = down;
type = TopGhost;
},
{
place = (51,22);
type = Stem;
},
{
place = (356,22);
type = Stem;
}
);
shapes = (
{
closed = 0;
nodes = (
(485,490,l),
(485,17,l)
);
},
{
closed = 0;
nodes = (
(90,490,l),
(90,184,ls),
(90,62,o),
(163,13,o),
(271,13,cs),
(317,13,o),
(360,26,o),
(394,49,c)
);
}
);
};
guides = (
{
angle = 270;
pos = (436,685);
}
);
layerId = m01;
shapes = (
{
closed = 1;
nodes = (
(512,499,ls),
(512,514,o),
(500,526,o),
(485,526,cs),
(469,526,o),
(457,514,o),
(457,499,cs),
(457,27,ls),
(457,12,o),
(469,0,o),
(485,0,cs),
(500,0,o),
(512,12,o),
(512,27,cs)
);
},
{
closed = 1;
nodes = (
(348,61,o),
(313,50,o),
(271,50,cs),
(171,50,o),
(118,87,o),
(118,198,cs),
(118,499,ls),
(118,514,o),
(106,526,o),
(90,526,cs),
(75,526,o),
(63,514,o),
(63,499,cs),
(63,198,ls),
(63,54,o),
(151,-5,o),
(271,-5,cs),
(323,-5,o),
(371,11,o),
(409,36,cs),
(417,41,o),
(421,50,o),
(421,59,cs),
(421,74,o),
(410,86,o),
(394,86,cs),
(389,86,o),
(383,84,o),
(380,81,cs)
);
}
);
width = 575;
}
);
note = u;
unicode = 117;
},
{
glyphname = v;
kernLeft = v;
kernRight = v;
lastChange = "2023-10-27 14:19:30 +0000";
layers = (
{
anchors = (
{
name = bottom;
pos = (274,14);
},
{
name = top;
pos = (274,567);
}
);
background = {
hints = (
{
horizontal = 1;
place = (515,-20);
target = down;
type = TopGhost;
},
{
place = (20,357);
type = Stem;
},
{
place = (250,22);
type = Stem;
}
);
shapes = (
{
closed = 0;
nodes = (
(54,485,l),
(274,13,l),
(494,485,l)
);
},
{
closed = 0;
nodes = (
(54,485,l),
(234,99,l)
);
},
{
closed = 0;
nodes = (
(274,13,l),
(494,485,l)
);
}
);
};
layerId = m01;
shapes = (
{
closed = 1;
nodes = (
(79,511,ls),
(74,520,o),
(65,526,o),
(54,526,cs),
(39,526,o),
(27,514,o),
(27,499,cs),
(27,494,o),
(28,491,o),
(30,487,cs),
(210,100,ls),
(214,91,o),
(223,85,o),
(234,85,cs),
(250,85,o),
(261,97,o),
(261,112,cs),
(261,117,o),
(260,120,o),
(259,124,cs)
);
},
{
closed = 1;
nodes = (
(250,39,ls),
(248,35,o),
(247,32,o),
(247,27,cs),
(247,12,o),
(259,0,o),
(274,0,cs),
(285,0,o),
(294,6,o),
(298,15,cs),
(518,487,ls),
(520,491,o),
(521,494,o),
(521,499,cs),
(521,514,o),
(509,526,o),
(494,526,cs),
(483,526,o),
(474,520,o),
(469,511,cs)
);
}
);
width = 548;
}
);
note = v;
unicode = 118;
},
{
glyphname = w;
kernLeft = w;
kernRight = w;
lastChange = "2023-10-27 14:19:30 +0000";
layers = (
{
anchors = (
{
name = bottom;
pos = (393,14);
},
{
name = top;
pos = (393,567);
}
);
background = {
hints = (
{
horizontal = 1;
place = (494,23);
type = Stem;
},
{
place = (553,12);
type = Stem;
}
);
shapes = (
{
closed = 0;
nodes = (
(288,485,l),
(352,349,l)
);
},
{
closed = 0;
nodes = (
(274,13,l),
(494,485,l)
);
},
{
closed = 0;
nodes = (
(509,13,l),
(729,485,l)
);
},
{
closed = 0;
nodes = (
(54,485,l),
(234,97,l)
);
},
{
closed = 0;
nodes = (
(429,179,l),
(472,88,l)
);
}
);
};
layerId = m01;
shapes = (
{
closed = 1;
nodes = (
(313,511,ls),
(308,520,o),
(299,526,o),
(288,526,cs),
(273,526,o),
(261,514,o),
(261,499,cs),
(261,494,o),
(262,491,o),
(264,487,cs),
(327,351,ls),
(332,342,o),
(341,335,o),
(352,335,cs),
(367,335,o),
(379,347,o),
(379,363,cs),
(379,367,o),
(378,371,o),
(376,374,cs)
);
},
{
closed = 1;
nodes = (
(250,39,ls),
(248,35,o),
(247,32,o),
(247,27,cs),
(247,12,o),
(259,0,o),
(274,0,cs),
(285,0,o),
(294,6,o),
(298,15,cs),
(518,487,ls),
(520,491,o),
(521,494,o),
(521,499,cs),
(521,514,o),
(509,526,o),
(494,526,cs),
(483,526,o),
(474,520,o),
(469,511,cs)
);
},
{
closed = 1;
nodes = (
(485,39,ls),
(483,35,o),
(482,32,o),
(482,27,cs),
(482,12,o),
(494,0,o),
(509,0,cs),
(520,0,o),
(529,6,o),
(533,15,cs),
(753,487,ls),
(755,491,o),
(756,494,o),
(756,499,cs),
(756,514,o),
(744,526,o),
(729,526,cs),
(718,526,o),
(709,520,o),
(704,511,cs)
);
},
{
closed = 1;
nodes = (
(79,511,ls),
(74,520,o),
(65,526,o),
(54,526,cs),
(39,526,o),
(27,514,o),
(27,499,cs),
(27,494,o),
(28,491,o),
(30,487,cs),
(210,99,ls),
(214,89,o),
(223,83,o),
(234,83,cs),
(250,83,o),
(261,95,o),
(261,110,cs),
(261,115,o),
(260,118,o),
(259,122,cs)
);
},
{
closed = 1;
nodes = (
(454,204,ls),
(449,213,o),
(440,220,o),
(429,220,cs),
(414,220,o),
(402,208,o),
(402,193,cs),
(402,188,o),
(403,184,o),
(405,181,cs),
(447,89,ls),
(452,80,o),
(461,74,o),
(472,74,cs),
(487,74,o),
(499,86,o),
(499,101,cs),
(499,106,o),
(498,109,o),
(496,113,cs)
);
}
);
width = 783;
}
);
note = w;
unicode = 119;
},
{
glyphname = x;
kernLeft = x;
kernRight = x;
lastChange = "2023-10-27 14:19:30 +0000";
layers = (
{
anchors = (
{
name = bottom;
pos = (272,14);
},
{
name = top;
pos = (272,567);
}
);
background = {
hints = (
{
horizontal = 1;
place = (3,23);
type = Stem;
},
{
place = (36,339);
type = Stem;
}
);
shapes = (
{
closed = 0;
nodes = (
(54,485,l),
(223,300,l)
);
},
{
closed = 0;
nodes = (
(54,12,l),
(488,485,l)
);
},
{
closed = 0;
nodes = (
(316,199,l),
(488,12,l)
);
}
);
};
layerId = m01;
shapes = (
{
closed = 1;
nodes = (
(74,517,ls),
(70,523,o),
(62,526,o),
(54,526,cs),
(39,526,o),
(27,514,o),
(27,499,cs),
(27,492,o),
(30,485,o),
(34,481,cs),
(203,296,ls),
(208,290,o),
(215,287,o),
(223,287,cs),
(239,287,o),
(250,298,o),
(250,314,cs),
(250,321,o),
(248,327,o),
(243,332,cs)
);
},
{
closed = 1;
nodes = (
(34,45,ls),
(30,41,o),
(27,34,o),
(27,27,cs),
(27,12,o),
(39,0,o),
(54,0,cs),
(62,0,o),
(70,4,o),
(74,9,cs),
(508,481,ls),
(513,485,o),
(515,492,o),
(515,499,cs),
(515,514,o),
(504,526,o),
(488,526,cs),
(480,526,o),
(473,523,o),
(468,517,cs)
);
},
{
closed = 1;
nodes = (
(336,231,ls),
(332,236,o),
(325,240,o),
(316,240,cs),
(301,240,o),
(289,228,o),
(289,212,cs),
(289,205,o),
(292,199,o),
(297,194,cs),
(468,9,ls),
(473,4,o),
(480,0,o),
(488,0,cs),
(504,0,o),
(515,12,o),
(515,27,cs),
(515,34,o),
(513,41,o),
(508,45,cs)
);
}
);
width = 542;
}
);
note = x;
unicode = 120;
},
{
glyphname = y;
kernLeft = y;
kernRight = y;
lastChange = "2023-10-27 14:19:30 +0000";
layers = (
{
anchors = (
{
name = bottom;
pos = (282,14);
},
{
name = top;
pos = (282,567);
}
);
background = {
hints = (
{
horizontal = 1;
place = (-200,22);
type = Stem;
},
{
horizontal = 1;
place = (0,23);
type = Stem;
},
{
horizontal = 1;
place = (514,-20);
target = down;
type = TopGhost;
},
{
place = (49,23);
type = Stem;
},
{
place = (240,24);
type = Stem;
},
{
place = (342,24);
type = Stem;
}
);
shapes = (
{
closed = 0;
nodes = (
(84,490,l),
(84,184,ls),
(84,62,o),
(156,13,o),
(265,13,cs),
(386,13,o),
(478,102,o),
(478,227,c)
);
},
{
closed = 0;
nodes = (
(90,3,l),
(90,-99,o),
(178,-143,o),
(285,-143,cs),
(418,-143,o),
(478,-63,o),
(478,32,cs),
(478,511,l)
);
}
);
};
layerId = m01;
shapes = (
{
closed = 1;
nodes = (
(505,499,ls),
(505,514,o),
(494,526,o),
(478,526,cs),
(463,526,o),
(451,514,o),
(451,499,cs),
(451,175,ls),
(451,160,o),
(463,148,o),
(478,148,cs),
(494,148,o),
(505,160,o),
(505,175,cs)
);
},
{
closed = 1;
nodes = (
(351,61,o),
(315,50,o),
(274,50,cs),
(174,50,o),
(120,87,o),
(120,198,cs),
(120,499,ls),
(120,514,o),
(108,526,o),
(93,526,cs),
(78,526,o),
(66,514,o),
(66,499,cs),
(66,198,ls),
(66,54,o),
(154,-5,o),
(274,-5,cs),
(325,-5,o),
(373,11,o),
(411,36,cs),
(419,41,o),
(424,50,o),
(424,59,cs),
(424,74,o),
(412,86,o),
(397,86,cs),
(391,86,o),
(386,84,o),
(382,81,cs)
);
},
{
closed = 1;
nodes = (
(451,27,ls),
(451,-59,o),
(404,-120,o),
(285,-120,cs),
(184,-120,o),
(118,-87,o),
(118,-2,cs),
(118,14,o),
(106,25,o),
(90,25,cs),
(75,25,o),
(63,14,o),
(63,-2,cs),
(63,-123,o),
(168,-174,o),
(285,-174,cs),
(435,-174,o),
(505,-80,o),
(505,27,cs),
(505,99,ls),
(505,115,o),
(494,127,o),
(478,127,cs),
(463,127,o),
(451,115,o),
(451,99,cs)
);
}
);
width = 569;
}
);
note = y;
unicode = 121;
},
{
glyphname = z;
kernLeft = z;
kernRight = z;
lastChange = "2023-10-27 14:19:30 +0000";
layers = (
{
anchors = (
{
name = bottom;
pos = (267,14);
},
{
name = center;
pos = (267,263);
},
{
name = top;
pos = (285,567);
}
);
background = {
hints = (
{
horizontal = 1;
place = (2,24);
type = Stem;
},
{
horizontal = 1;
place = (284,24);
type = Stem;
},
{
horizontal = 1;
place = (494,22);
type = Stem;
},
{
place = (23,331);
type = Stem;
}
);
shapes = (
{
closed = 1;
nodes = (
(90,515,l),
(84,516,o),
(80,511,o),
(79,504,cs),
(79,498,o),
(84,494,o),
(90,494,cs),
(324,494,l),
(211,307,l),
(97,307,ls),
(90,307,o),
(86,302,o),
(86,296,cs),
(86,289,o),
(90,284,o),
(97,284,cs),
(196,284,l),
(34,20,l),
(33,15,o),
(33,12,o),
(34,8,cs),
(36,5,o),
(40,2,o),
(44,2,cs),
(353,2,ls),
(360,2,o),
(364,7,o),
(364,14,cs),
(364,20,o),
(360,25,o),
(353,25,cs),
(64,25,l),
(223,284,l),
(321,284,ls),
(327,284,o),
(332,289,o),
(332,296,cs),
(332,302,o),
(327,307,o),
(321,307,cs),
(237,307,l),
(353,498,ls),
(356,502,o),
(356,506,o),
(354,510,cs),
(352,513,o),
(348,515,o),
(344,515,cs)
);
}
);
};
layerId = m01;
shapes = (
{
closed = 1;
nodes = (
(74,526,ls),
(59,526,o),
(47,514,o),
(47,499,cs),
(47,484,o),
(59,472,o),
(74,472,cs),
(470,472,ls),
(485,472,o),
(497,484,o),
(497,499,cs),
(497,514,o),
(485,526,o),
(470,526,cs)
);
},
{
closed = 1;
nodes = (
(424,406,l),
(428,411,o),
(430,417,o),
(430,424,cs),
(430,439,o),
(419,451,o),
(403,451,cs),
(395,451,o),
(388,447,o),
(382,442,cs),
(100,119,l),
(97,114,o),
(94,108,o),
(94,101,cs),
(94,86,o),
(106,74,o),
(121,74,cs),
(129,74,o),
(137,78,o),
(142,83,cs)
);
},
{
closed = 1;
nodes = (
(54,54,ls),
(39,54,o),
(27,42,o),
(27,27,cs),
(27,12,o),
(39,0,o),
(54,0,cs),
(477,0,ls),
(493,0,o),
(504,12,o),
(504,27,cs),
(504,42,o),
(493,54,o),
(477,54,cs)
);
}
);
width = 532;
}
);
note = z;
unicode = 122;
},
{
color = 4;
glyphname = saltillo;
lastChange = "2024-12-06 21:19:49 +0000";
layers = (
{
layerId = m01;
shapes = (
{
closed = 1;
nodes = (
(63,408,ls),
(63,393,o),
(75,381,o),
(90,381,cs),
(106,381,o),
(118,393,o),
(118,408,cs),
(118,654,ls),
(118,669,o),
(106,681,o),
(90,681,cs),
(75,681,o),
(63,669,o),
(63,654,cs)
);
}
);
width = 180;
}
);
unicode = 42892;
},
{
glyphname = a.blackCircled;
lastChange = "2024-12-09 10:23:19 +0000";
layers = (
{
layerId = m01;
shapes = (
{
ref = _part.blackCircle;
scale = (0.9882,0.9882);
},
{
closed = 1;
nodes = (
(615,389,ls),
(615,464,o),
(551,491,o),
(500,491,cs),
(450,491,o),
(386,464,o),
(386,394,cs),
(386,383,o),
(395,374,o),
(407,374,cs),
(418,374,o),
(427,383,o),
(427,394,cs),
(427,436,o),
(460,450,o),
(500,450,cs),
(541,450,o),
(574,436,o),
(574,389,cs),
(574,185,ls),
(574,174,o),
(583,164,o),
(594,164,cs),
(606,164,o),
(615,174,o),
(615,185,cs)
);
},
{
closed = 1;
nodes = (
(509,212,o),
(491,203,o),
(458,203,cs),
(436,203,o),
(396,211,o),
(396,251,cs),
(396,295,o),
(425,309,o),
(471,322,cs),
(546,344,l),
(555,348,o),
(561,355,o),
(561,364,cs),
(561,378,o),
(548,388,o),
(536,384,cs),
(460,361,ls),
(416,349,o),
(355,323,o),
(356,251,cs),
(356,179,o),
(428,162,o),
(458,162,cs),
(493,162,o),
(527,175,o),
(554,199,c),
(557,203,o),
(560,208,o),
(560,214,cs),
(560,225,o),
(551,234,o),
(540,234,cs),
(535,234,o),
(530,231,o),
(527,229,c)
);
}
);
width = 1000;
}
);
metricLeft = "=40";
metricRight = "=|";
},
{
glyphname = b.blackCircled;
lastChange = "2024-12-09 10:23:19 +0000";
layers = (
{
layerId = m01;
shapes = (
{
locked = 1;
ref = _part.blackCircle;
scale = (0.9882,0.9882);
},
{
closed = 1;
nodes = (
(406,539,ls),
(406,550,o),
(396,559,o),
(385,559,cs),
(374,559,o),
(365,550,o),
(365,539,cs),
(365,176,ls),
(365,165,o),
(374,156,o),
(385,156,cs),
(396,156,o),
(406,165,o),
(406,176,cs)
);
},
{
closed = 1;
nodes = (
(463,438,o),
(478,441,o),
(499,441,cs),
(565,441,o),
(603,390,o),
(603,318,cs),
(603,245,o),
(565,194,o),
(499,194,cs),
(482,194,o),
(466,199,o),
(450,208,c),
(448,211,o),
(442,212,o),
(439,212,cs),
(428,212,o),
(419,203,o),
(419,191,cs),
(419,184,o),
(422,177,o),
(428,174,c),
(449,160,o),
(475,153,o),
(499,153,cs),
(588,153,o),
(644,228,o),
(644,318,cs),
(644,407,o),
(588,482,o),
(499,482,cs),
(474,482,o),
(448,477,o),
(429,464,c),
(423,461,o),
(419,454,o),
(419,447,cs),
(419,436,o),
(428,427,o),
(439,427,cs),
(443,427,o),
(447,427,o),
(449,430,c)
);
}
);
width = 1000;
}
);
metricLeft = "=40";
metricRight = "=|";
},
{
glyphname = c.blackCircled;
lastChange = "2024-12-09 10:23:19 +0000";
layers = (
{
layerId = m01;
shapes = (
{
locked = 1;
ref = _part.blackCircle;
scale = (0.9882,0.9882);
},
{
closed = 1;
nodes = (
(595,232,o),
(564,203,o),
(501,203,cs),
(435,203,o),
(397,254,o),
(397,328,cs),
(397,400,o),
(435,450,o),
(501,450,cs),
(554,450,o),
(590,426,o),
(590,380,cs),
(590,369,o),
(599,360,o),
(610,360,cs),
(621,360,o),
(630,369,o),
(630,380,cs),
(630,451,o),
(570,491,o),
(501,491,cs),
(413,491,o),
(357,416,o),
(357,328,cs),
(357,238,o),
(413,162,o),
(501,162,cs),
(583,162,o),
(635,212,o),
(635,284,cs),
(635,295,o),
(626,304,o),
(615,304,cs),
(604,304,o),
(595,295,o),
(595,284,cs)
);
}
);
width = 1000;
}
);
metricLeft = "=40";
metricRight = "=|";
},
{
glyphname = d.blackCircled;
lastChange = "2024-12-09 10:23:19 +0000";
layers = (
{
layerId = m01;
shapes = (
{
locked = 1;
ref = _part.blackCircle;
scale = (0.9882,0.9882);
},
{
closed = 1;
nodes = (
(598,539,ls),
(598,550,o),
(589,559,o),
(578,559,cs),
(567,559,o),
(558,550,o),
(558,539,cs),
(558,176,ls),
(558,165,o),
(567,156,o),
(578,156,cs),
(589,156,o),
(598,165,o),
(598,176,cs)
);
},
{
closed = 1;
nodes = (
(497,199,o),
(482,194,o),
(464,194,cs),
(398,194,o),
(360,245,o),
(360,318,cs),
(360,390,o),
(398,441,o),
(464,441,cs),
(485,441,o),
(501,438,o),
(514,430,c),
(516,427,o),
(520,427,o),
(524,427,cs),
(535,427,o),
(545,436,o),
(545,447,cs),
(545,455,o),
(540,461,o),
(534,464,c),
(515,477,o),
(490,482,o),
(464,482,cs),
(376,482,o),
(320,407,o),
(320,318,cs),
(320,228,o),
(376,153,o),
(464,153,cs),
(488,153,o),
(515,160,o),
(535,175,c),
(541,177,o),
(545,184,o),
(545,191,cs),
(545,203,o),
(535,212,o),
(524,212,cs),
(520,212,o),
(516,211,o),
(513,208,c)
);
}
);
width = 1000;
}
);
metricLeft = "=40";
metricRight = "=|";
},
{
glyphname = e.blackCircled;
lastChange = "2024-12-09 10:23:19 +0000";
layers = (
{
layerId = m01;
shapes = (
{
locked = 1;
ref = _part.blackCircle;
scale = (0.9882,0.9882);
},
{
closed = 1;
nodes = (
(638,437,o),
(574,491,o),
(500,491,cs),
(408,491,o),
(348,417,o),
(348,328,cs),
(348,237,o),
(408,162,o),
(500,162,cs),
(599,162,o),
(638,230,o),
(638,276,cs),
(638,287,o),
(629,296,o),
(618,296,cs),
(607,296,o),
(598,287,o),
(598,276,cs),
(598,245,o),
(572,203,o),
(500,203,cs),
(429,203,o),
(388,255,o),
(388,328,cs),
(388,399,o),
(429,450,o),
(500,450,cs),
(556,450,o),
(598,416,o),
(598,342,cs),
(598,331,o),
(607,322,o),
(618,322,cs),
(629,322,o),
(638,331,o),
(638,342,cs)
);
},
{
closed = 1;
nodes = (
(575,322,ls),
(586,322,o),
(595,331,o),
(595,342,cs),
(595,353,o),
(586,362,o),
(575,362,cs),
(413,362,ls),
(402,362,o),
(393,353,o),
(393,342,cs),
(393,331,o),
(402,322,o),
(413,322,cs)
);
}
);
width = 1000;
}
);
metricLeft = "=40";
metricRight = "=|";
},
{
glyphname = f.blackCircled;
lastChange = "2024-12-09 10:23:19 +0000";
layers = (
{
layerId = m01;
shapes = (
{
locked = 1;
ref = _part.blackCircle;
scale = (0.9882,0.9882);
},
{
closed = 1;
nodes = (
(456,179,ls),
(456,168,o),
(465,159,o),
(476,159,cs),
(487,159,o),
(496,168,o),
(496,179,cs),
(496,358,ls),
(496,369,o),
(487,378,o),
(476,378,cs),
(465,378,o),
(456,369,o),
(456,358,cs)
);
},
{
closed = 1;
nodes = (
(599,380,ls),
(610,380,o),
(620,389,o),
(620,401,cs),
(620,412,o),
(610,421,o),
(599,421,cs),
(407,421,ls),
(396,421,o),
(387,412,o),
(387,401,cs),
(387,389,o),
(396,380,o),
(407,380,cs)
);
},
{
closed = 1;
nodes = (
(638,545,o),
(601,574,o),
(553,574,cs),
(485,574,o),
(456,527,o),
(456,465,cs),
(456,444,ls),
(456,433,o),
(465,424,o),
(476,424,cs),
(487,424,o),
(496,433,o),
(496,444,cs),
(496,465,ls),
(496,510,o),
(510,533,o),
(553,533,cs),
(584,533,o),
(598,523,o),
(598,483,cs),
(598,472,o),
(606,462,o),
(618,462,cs),
(629,462,o),
(638,472,o),
(638,483,cs)
);
}
);
width = 1000;
}
);
metricLeft = "=40";
metricRight = "=|";
},
{
glyphname = g.blackCircled;
lastChange = "2024-12-09 10:23:19 +0000";
layers = (
{
layerId = m01;
shapes = (
{
locked = 1;
ref = _part.blackCircle;
scale = (0.9882,0.9882);
},
{
closed = 1;
nodes = (
(593,186,ls),
(593,137,o),
(567,102,o),
(497,102,cs),
(438,102,o),
(401,121,o),
(401,169,cs),
(401,180,o),
(392,189,o),
(381,189,cs),
(370,189,o),
(361,180,o),
(361,169,cs),
(361,93,o),
(427,62,o),
(497,62,cs),
(590,62,o),
(633,120,o),
(633,186,cs),
(633,229,ls),
(633,241,o),
(624,250,o),
(613,250,cs),
(602,250,o),
(593,241,o),
(593,229,cs)
);
},
{
closed = 1;
nodes = (
(633,468,ls),
(633,479,o),
(624,489,o),
(613,489,cs),
(602,489,o),
(593,479,o),
(593,468,cs),
(593,277,ls),
(593,266,o),
(602,257,o),
(613,257,cs),
(624,257,o),
(633,266,o),
(633,277,cs)
);
},
{
closed = 1;
nodes = (
(532,209,o),
(517,204,o),
(499,204,cs),
(433,204,o),
(395,255,o),
(395,328,cs),
(395,400,o),
(433,451,o),
(499,451,cs),
(520,451,o),
(536,448,o),
(549,440,c),
(551,437,o),
(555,437,o),
(559,437,cs),
(570,437,o),
(580,446,o),
(580,457,cs),
(580,465,o),
(575,471,o),
(569,474,c),
(550,487,o),
(525,492,o),
(499,492,cs),
(411,492,o),
(355,417,o),
(355,328,cs),
(355,238,o),
(411,163,o),
(499,163,cs),
(523,163,o),
(550,170,o),
(570,185,c),
(576,187,o),
(580,194,o),
(580,201,cs),
(580,213,o),
(570,222,o),
(559,222,cs),
(555,222,o),
(551,221,o),
(548,218,c)
);
}
);
width = 1000;
}
);
metricLeft = "=40";
metricRight = "=|";
},
{
glyphname = h.blackCircled;
lastChange = "2024-12-09 10:23:19 +0000";
layers = (
{
layerId = m01;
shapes = (
{
locked = 1;
ref = _part.blackCircle;
scale = (0.9882,0.9882);
},
{
closed = 1;
nodes = (
(415,544,ls),
(415,555,o),
(405,564,o),
(394,564,cs),
(383,564,o),
(374,555,o),
(374,544,cs),
(374,169,ls),
(374,158,o),
(383,149,o),
(394,149,cs),
(405,149,o),
(415,158,o),
(415,169,cs)
);
},
{
closed = 1;
nodes = (
(478,428,o),
(498,434,o),
(522,434,cs),
(580,434,o),
(609,414,o),
(609,352,cs),
(609,169,ls),
(609,158,o),
(618,149,o),
(630,149,cs),
(641,149,o),
(650,158,o),
(650,169,cs),
(650,352,ls),
(650,439,o),
(596,475,o),
(522,475,cs),
(490,475,o),
(460,466,o),
(437,450,c),
(431,447,o),
(428,439,o),
(428,433,cs),
(428,422,o),
(437,413,o),
(448,413,cs),
(451,413,o),
(457,414,o),
(459,417,c)
);
}
);
width = 1000;
}
);
metricLeft = "=40";
metricRight = "=|";
},
{
glyphname = k.blackCircled;
lastChange = "2024-12-09 10:23:19 +0000";
layers = (
{
layerId = m01;
shapes = (
{
locked = 1;
ref = _part.blackCircle;
scale = (0.9882,0.9882);
},
{
closed = 1;
nodes = (
(383,169,ls),
(383,158,o),
(392,149,o),
(403,149,cs),
(414,149,o),
(424,158,o),
(424,169,cs),
(424,544,ls),
(424,555,o),
(414,564,o),
(403,564,cs),
(392,564,o),
(383,555,o),
(383,544,cs)
);
},
{
closed = 1;
nodes = (
(433,353,l),
(430,349,o),
(427,343,o),
(427,337,cs),
(427,326,o),
(436,317,o),
(447,317,cs),
(452,317,o),
(456,320,o),
(459,322,cs),
(596,436,l),
(601,439,o),
(604,446,o),
(604,451,cs),
(604,462,o),
(595,472,o),
(583,472,cs),
(579,472,o),
(574,469,o),
(571,467,cs)
);
},
{
closed = 1;
nodes = (
(594,157,l),
(597,152,o),
(604,149,o),
(610,149,cs),
(621,149,o),
(630,158,o),
(630,169,cs),
(630,174,o),
(627,179,o),
(625,182,cs),
(506,328,l),
(502,331,o),
(496,335,o),
(490,335,cs),
(479,335,o),
(470,325,o),
(470,314,cs),
(470,309,o),
(473,305,o),
(475,302,cs)
);
}
);
width = 1000;
}
);
metricLeft = "=40";
metricRight = "=|";
},
{
glyphname = l.blackCircled;
lastChange = "2024-12-09 10:23:19 +0000";
layers = (
{
layerId = m01;
shapes = (
{
locked = 1;
ref = _part.blackCircle;
scale = (0.9882,0.9882);
},
{
closed = 1;
nodes = (
(480,169,ls),
(480,158,o),
(489,149,o),
(500,149,cs),
(511,149,o),
(521,158,o),
(521,169,cs),
(521,544,ls),
(521,555,o),
(511,564,o),
(500,564,cs),
(489,564,o),
(480,555,o),
(480,544,cs)
);
}
);
width = 1000;
}
);
metricLeft = "=40";
metricRight = "=|";
},
{
glyphname = m.blackCircled;
lastChange = "2024-12-09 10:23:19 +0000";
layers = (
{
layerId = m01;
shapes = (
{
locked = 1;
ref = _part.blackCircle;
scale = (0.9882,0.9882);
},
{
closed = 1;
nodes = (
(295,465,ls),
(295,476,o),
(285,486,o),
(274,486,cs),
(263,486,o),
(254,476,o),
(254,465,cs),
(254,183,ls),
(254,172,o),
(263,163,o),
(274,163,cs),
(285,163,o),
(295,172,o),
(295,183,cs)
);
},
{
closed = 1;
nodes = (
(584,442,o),
(604,448,o),
(628,448,cs),
(686,448,o),
(715,428,o),
(715,366,cs),
(715,183,ls),
(715,172,o),
(725,163,o),
(735,163,cs),
(747,163,o),
(756,172,o),
(756,183,cs),
(756,366,ls),
(756,453,o),
(702,489,o),
(628,489,cs),
(596,489,o),
(566,480,o),
(543,464,cs),
(538,461,o),
(534,453,o),
(534,447,cs),
(534,436,o),
(543,427,o),
(554,427,cs),
(557,427,o),
(563,428,o),
(565,431,c)
);
},
{
closed = 1;
nodes = (
(357,443,o),
(374,448,o),
(396,448,cs),
(451,448,o),
(480,428,o),
(480,366,cs),
(480,183,ls),
(480,172,o),
(489,163,o),
(500,163,cs),
(511,163,o),
(520,172,o),
(520,183,cs),
(520,366,ls),
(520,451,o),
(468,489,o),
(396,489,cs),
(367,489,o),
(339,481,o),
(317,465,c),
(311,462,o),
(308,455,o),
(308,449,cs),
(308,438,o),
(317,429,o),
(328,429,cs),
(331,429,o),
(336,430,o),
(339,432,cs)
);
}
);
width = 1000;
}
);
metricLeft = "=40";
metricRight = "=|";
},
{
glyphname = n.blackCircled;
lastChange = "2024-12-09 10:23:19 +0000";
layers = (
{
layerId = m01;
shapes = (
{
locked = 1;
ref = _part.blackCircle;
scale = (0.9882,0.9882);
},
{
closed = 1;
nodes = (
(393,465,ls),
(393,476,o),
(383,486,o),
(372,486,cs),
(361,486,o),
(352,476,o),
(352,465,cs),
(352,183,ls),
(352,172,o),
(361,163,o),
(372,163,cs),
(383,163,o),
(393,172,o),
(393,183,cs)
);
},
{
closed = 1;
nodes = (
(456,442,o),
(476,448,o),
(500,448,cs),
(558,448,o),
(587,428,o),
(587,366,cs),
(587,183,ls),
(587,172,o),
(596,163,o),
(608,163,cs),
(619,163,o),
(628,172,o),
(628,183,cs),
(628,366,ls),
(628,453,o),
(574,489,o),
(500,489,cs),
(468,489,o),
(438,480,o),
(415,464,c),
(409,461,o),
(406,453,o),
(406,447,cs),
(406,436,o),
(415,427,o),
(426,427,cs),
(429,427,o),
(435,428,o),
(437,431,c)
);
}
);
width = 1000;
}
);
metricLeft = "=40";
metricRight = "=|";
},
{
glyphname = o.blackCircled;
lastChange = "2024-12-09 10:23:19 +0000";
layers = (
{
layerId = m01;
shapes = (
{
locked = 1;
ref = _part.blackCircle;
scale = (0.9882,0.9882);
},
{
closed = 1;
nodes = (
(651,438,o),
(581,491,o),
(501,491,cs),
(421,491,o),
(352,438,o),
(352,352,cs),
(352,340,o),
(361,331,o),
(372,331,cs),
(383,331,o),
(392,340,o),
(392,352,cs),
(392,416,o),
(438,450,o),
(501,450,cs),
(564,450,o),
(610,416,o),
(610,352,cs),
(610,340,o),
(619,331,o),
(630,331,cs),
(642,331,o),
(651,340,o),
(651,352,cs)
);
},
{
closed = 1;
nodes = (
(352,215,o),
(421,162,o),
(501,162,cs),
(581,162,o),
(651,215,o),
(651,301,cs),
(651,313,o),
(642,322,o),
(630,322,cs),
(619,322,o),
(610,313,o),
(610,301,cs),
(610,237,o),
(564,203,o),
(501,203,cs),
(438,203,o),
(392,237,o),
(392,301,cs),
(392,313,o),
(383,322,o),
(372,322,cs),
(361,322,o),
(352,313,o),
(352,301,cs)
);
}
);
width = 1000;
}
);
metricLeft = "=40";
metricRight = "=|";
},
{
glyphname = p.blackCircled;
lastChange = "2024-12-09 10:23:19 +0000";
layers = (
{
layerId = m01;
shapes = (
{
locked = 1;
ref = _part.blackCircle;
scale = (0.9882,0.9882);
},
{
closed = 1;
nodes = (
(396,474,ls),
(396,485,o),
(386,495,o),
(375,495,cs),
(364,495,o),
(355,485,o),
(355,474,cs),
(355,115,ls),
(355,103,o),
(364,95,o),
(375,95,cs),
(386,95,o),
(396,103,o),
(396,115,cs)
);
},
{
closed = 1;
nodes = (
(454,453,o),
(469,457,o),
(489,457,cs),
(555,457,o),
(593,405,o),
(593,334,cs),
(593,261,o),
(555,210,o),
(489,210,cs),
(472,210,o),
(456,215,o),
(440,224,c),
(438,227,o),
(432,228,o),
(429,228,cs),
(418,228,o),
(409,219,o),
(409,207,cs),
(409,200,o),
(412,193,o),
(418,190,c),
(439,176,o),
(465,169,o),
(489,169,cs),
(578,169,o),
(634,244,o),
(634,334,cs),
(634,423,o),
(578,498,o),
(489,498,cs),
(464,498,o),
(438,492,o),
(419,480,cs),
(413,477,o),
(409,469,o),
(409,462,cs),
(409,451,o),
(418,442,o),
(429,442,cs),
(432,442,o),
(437,443,o),
(439,446,c)
);
}
);
width = 1000;
}
);
metricLeft = "=40";
metricRight = "=|";
},
{
glyphname = q.blackCircled;
lastChange = "2024-12-09 10:23:19 +0000";
layers = (
{
layerId = m01;
shapes = (
{
locked = 1;
ref = _part.blackCircle;
scale = (0.9882,0.9882);
},
{
closed = 1;
nodes = (
(633,474,ls),
(633,485,o),
(624,495,o),
(613,495,cs),
(602,495,o),
(593,485,o),
(593,474,cs),
(593,115,ls),
(593,103,o),
(602,95,o),
(613,95,cs),
(624,95,o),
(633,103,o),
(633,115,cs)
);
},
{
closed = 1;
nodes = (
(532,215,o),
(517,210,o),
(499,210,cs),
(433,210,o),
(395,261,o),
(395,334,cs),
(395,406,o),
(433,457,o),
(499,457,cs),
(520,457,o),
(536,454,o),
(549,446,c),
(551,443,o),
(555,443,o),
(559,443,cs),
(570,443,o),
(580,452,o),
(580,463,cs),
(580,471,o),
(575,477,o),
(569,480,c),
(550,493,o),
(525,498,o),
(499,498,cs),
(411,498,o),
(355,423,o),
(355,334,cs),
(355,244,o),
(411,169,o),
(499,169,cs),
(523,169,o),
(550,176,o),
(570,191,c),
(576,193,o),
(580,200,o),
(580,207,cs),
(580,219,o),
(570,228,o),
(559,228,cs),
(555,228,o),
(551,227,o),
(548,224,c)
);
}
);
width = 1000;
}
);
metricLeft = "=40";
metricRight = "=|";
},
{
glyphname = r.blackCircled;
lastChange = "2024-12-09 10:23:19 +0000";
layers = (
{
layerId = m01;
shapes = (
{
locked = 1;
ref = _part.blackCircle;
scale = (0.9882,0.9882);
},
{
closed = 1;
nodes = (
(435,465,ls),
(435,476,o),
(425,486,o),
(414,486,cs),
(403,486,o),
(394,476,o),
(394,465,cs),
(394,183,ls),
(394,172,o),
(403,163,o),
(414,163,cs),
(425,163,o),
(435,172,o),
(435,183,cs)
);
},
{
closed = 1;
nodes = (
(632,451,o),
(586,489,o),
(521,489,cs),
(498,489,o),
(475,483,o),
(457,470,c),
(451,467,o),
(448,459,o),
(448,453,cs),
(448,442,o),
(457,433,o),
(468,433,cs),
(471,433,o),
(477,434,o),
(479,437,c),
(493,445,o),
(504,448,o),
(521,448,cs),
(568,448,o),
(592,429,o),
(592,366,cs),
(592,355,o),
(601,346,o),
(612,346,cs),
(623,346,o),
(632,355,o),
(632,366,cs)
);
}
);
width = 1000;
}
);
metricLeft = "=40";
metricRight = "=|";
},
{
glyphname = s.blackCircled;
lastChange = "2024-12-09 10:23:19 +0000";
layers = (
{
layerId = m01;
shapes = (
{
locked = 1;
ref = _part.blackCircle;
scale = (0.9882,0.9882);
},
{
closed = 1;
nodes = (
(425,491,o),
(382,454,o),
(382,404,cs),
(382,274,o),
(594,347,o),
(594,261,cs),
(594,225,o),
(562,203,o),
(497,203,cs),
(432,203,o),
(399,228,o),
(399,273,cs),
(399,285,o),
(391,294,o),
(379,294,cs),
(368,294,o),
(359,285,o),
(359,273,cs),
(359,205,o),
(415,162,o),
(497,162,cs),
(578,162,o),
(635,199,o),
(635,261,cs),
(635,389,o),
(422,319,o),
(422,404,cs),
(422,434,o),
(443,450,o),
(475,450,cs),
(487,450,o),
(495,459,o),
(495,470,cs),
(495,482,o),
(487,491,o),
(475,491,cs)
);
},
{
closed = 1;
nodes = (
(622,452,o),
(580,491,o),
(529,491,cs),
(518,491,o),
(509,482,o),
(509,470,cs),
(509,459,o),
(518,450,o),
(529,450,cs),
(561,450,o),
(582,432,o),
(582,393,cs),
(582,382,o),
(591,373,o),
(602,373,cs),
(613,373,o),
(622,382,o),
(622,393,cs)
);
}
);
width = 1000;
}
);
metricLeft = "=40";
metricRight = "=|";
},
{
glyphname = t.blackCircled;
lastChange = "2024-12-09 10:23:19 +0000";
layers = (
{
layerId = m01;
shapes = (
{
locked = 1;
ref = _part.blackCircle;
scale = (0.9882,0.9882);
},
{
closed = 1;
nodes = (
(418,432,ls),
(429,432,o),
(438,441,o),
(438,452,cs),
(438,463,o),
(429,473,o),
(418,473,cs),
(386,473,ls),
(375,473,o),
(366,463,o),
(366,452,cs),
(366,441,o),
(375,432,o),
(386,432,cs)
);
},
{
closed = 1;
nodes = (
(441,256,ls),
(441,194,o),
(469,148,o),
(537,148,cs),
(586,148,o),
(623,177,o),
(623,239,cs),
(623,250,o),
(613,259,o),
(602,259,cs),
(591,259,o),
(582,250,o),
(582,239,cs),
(582,198,o),
(569,188,o),
(537,188,cs),
(494,188,o),
(481,210,o),
(481,256,cs),
(481,545,ls),
(481,556,o),
(472,565,o),
(461,565,cs),
(450,565,o),
(441,556,o),
(441,545,cs)
);
},
{
closed = 1;
nodes = (
(577,432,ls),
(588,432,o),
(597,441,o),
(597,452,cs),
(597,463,o),
(588,473,o),
(577,473,cs),
(503,473,ls),
(492,473,o),
(483,463,o),
(483,452,cs),
(483,441,o),
(492,432,o),
(503,432,cs)
);
}
);
width = 1000;
}
);
metricLeft = "=40";
metricRight = "=|";
},
{
glyphname = u.blackCircled;
lastChange = "2024-12-09 10:23:19 +0000";
layers = (
{
layerId = m01;
shapes = (
{
locked = 1;
ref = _part.blackCircle;
scale = (0.9882,0.9882);
},
{
closed = 1;
nodes = (
(634,469,ls),
(634,480,o),
(625,490,o),
(614,490,cs),
(602,490,o),
(593,480,o),
(593,469,cs),
(593,187,ls),
(593,176,o),
(602,167,o),
(614,167,cs),
(625,167,o),
(634,176,o),
(634,187,cs)
);
},
{
closed = 1;
nodes = (
(530,211,o),
(510,205,o),
(486,205,cs),
(428,205,o),
(399,225,o),
(399,289,cs),
(399,469,ls),
(399,480,o),
(389,490,o),
(378,490,cs),
(367,490,o),
(358,480,o),
(358,469,cs),
(358,289,ls),
(358,200,o),
(412,164,o),
(486,164,cs),
(518,164,o),
(548,174,o),
(571,190,cs),
(576,193,o),
(580,200,o),
(580,206,cs),
(580,217,o),
(571,226,o),
(560,226,cs),
(557,226,o),
(551,225,o),
(549,222,c)
);
}
);
width = 1000;
}
);
metricLeft = "=40";
metricRight = "=|";
},
{
glyphname = v.blackCircled;
lastChange = "2024-12-09 10:23:19 +0000";
layers = (
{
layerId = m01;
shapes = (
{
locked = 1;
ref = _part.blackCircle;
scale = (0.9882,0.9882);
},
{
closed = 1;
nodes = (
(387,477,l),
(383,483,o),
(377,488,o),
(368,488,cs),
(357,488,o),
(348,478,o),
(348,467,cs),
(348,464,o),
(350,461,o),
(350,459,c),
(458,228,ls),
(461,220,o),
(468,216,o),
(476,216,cs),
(488,216,o),
(496,225,o),
(496,236,cs),
(496,241,o),
(495,243,o),
(495,244,c)
);
},
{
closed = 1;
nodes = (
(483,194,l),
(480,192,o),
(480,189,o),
(480,185,cs),
(480,174,o),
(489,165,o),
(500,165,cs),
(507,165,o),
(515,170,o),
(518,176,cs),
(650,459,l),
(650,461,o),
(652,464,o),
(652,467,cs),
(652,478,o),
(642,488,o),
(631,488,cs),
(624,488,o),
(616,483,o),
(612,477,c)
);
}
);
width = 1000;
}
);
metricLeft = "=40";
metricRight = "=|";
},
{
glyphname = w.blackCircled;
lastChange = "2024-12-09 10:23:19 +0000";
layers = (
{
layerId = m01;
shapes = (
{
locked = 1;
ref = _part.blackCircle;
scale = (0.9882,0.9882);
},
{
closed = 1;
nodes = (
(457,477,l),
(453,483,o),
(447,488,o),
(438,488,cs),
(427,488,o),
(418,478,o),
(418,467,cs),
(418,464,o),
(420,461,o),
(420,459,c),
(458,377,l),
(462,372,o),
(468,365,o),
(477,365,cs),
(487,365,o),
(497,375,o),
(497,386,cs),
(497,389,o),
(496,393,o),
(495,395,cs)
);
},
{
closed = 1;
nodes = (
(413,194,l),
(410,192,o),
(410,189,o),
(410,185,cs),
(410,174,o),
(419,165,o),
(430,165,cs),
(437,165,o),
(445,170,o),
(448,176,cs),
(580,459,l),
(580,461,o),
(582,464,o),
(582,467,cs),
(582,478,o),
(572,488,o),
(561,488,cs),
(554,488,o),
(546,483,o),
(542,477,c)
);
},
{
closed = 1;
nodes = (
(552,194,ls),
(551,192,o),
(550,189,o),
(550,185,cs),
(550,174,o),
(559,165,o),
(570,165,cs),
(579,165,o),
(585,170,o),
(589,176,c),
(719,458,l),
(722,462,o),
(722,464,o),
(722,467,cs),
(722,478,o),
(713,488,o),
(702,488,cs),
(693,488,o),
(687,483,o),
(683,477,c)
);
},
{
closed = 1;
nodes = (
(317,477,l),
(313,483,o),
(307,488,o),
(298,488,cs),
(287,488,o),
(278,478,o),
(278,467,cs),
(278,464,o),
(280,461,o),
(280,459,c),
(388,227,ls),
(391,219,o),
(398,215,o),
(406,215,cs),
(418,215,o),
(426,224,o),
(426,235,cs),
(426,240,o),
(425,242,o),
(425,243,c)
);
},
{
closed = 1;
nodes = (
(541,293,ls),
(538,299,o),
(531,305,o),
(523,305,cs),
(512,305,o),
(502,295,o),
(502,284,cs),
(502,280,o),
(503,277,o),
(504,275,cs),
(529,220,l),
(533,214,o),
(541,209,o),
(548,209,cs),
(559,209,o),
(568,218,o),
(568,229,cs),
(568,232,o),
(568,235,o),
(567,239,c)
);
}
);
width = 1000;
}
);
metricLeft = "=40";
metricRight = "=|";
},
{
glyphname = x.blackCircled;
lastChange = "2024-12-09 10:23:19 +0000";
layers = (
{
layerId = m01;
shapes = (
{
locked = 1;
ref = _part.blackCircle;
scale = (0.9882,0.9882);
},
{
closed = 1;
nodes = (
(384,480,l),
(381,486,o),
(375,488,o),
(369,488,cs),
(358,488,o),
(349,478,o),
(349,467,cs),
(349,462,o),
(352,457,o),
(354,454,c),
(455,343,ls),
(459,338,o),
(466,337,o),
(470,337,cs),
(482,337,o),
(491,345,o),
(491,357,cs),
(491,362,o),
(488,367,o),
(485,371,cs)
);
},
{
closed = 1;
nodes = (
(354,199,l),
(352,196,o),
(349,190,o),
(349,185,cs),
(349,174,o),
(358,165,o),
(369,165,cs),
(375,165,o),
(382,168,o),
(384,172,c),
(644,454,l),
(647,456,o),
(649,462,o),
(649,467,cs),
(649,478,o),
(640,488,o),
(629,488,cs),
(623,488,o),
(617,485,o),
(614,481,cs)
);
},
{
closed = 1;
nodes = (
(541,309,l),
(539,313,o),
(532,317,o),
(526,317,cs),
(515,317,o),
(506,307,o),
(506,296,cs),
(506,291,o),
(509,286,o),
(512,282,cs),
(614,171,l),
(618,168,o),
(623,165,o),
(629,165,cs),
(640,165,o),
(649,174,o),
(649,185,cs),
(649,191,o),
(647,197,o),
(644,199,c)
);
}
);
width = 1000;
}
);
metricLeft = "=40";
metricRight = "=|";
},
{
glyphname = y.blackCircled;
lastChange = "2024-12-09 10:23:19 +0000";
layers = (
{
layerId = m01;
shapes = (
{
locked = 1;
ref = _part.blackCircle;
scale = (0.9882,0.9882);
},
{
closed = 1;
nodes = (
(637,469,ls),
(637,480,o),
(628,490,o),
(617,490,cs),
(606,490,o),
(597,480,o),
(597,469,cs),
(597,276,ls),
(597,265,o),
(606,256,o),
(617,256,cs),
(628,256,o),
(637,265,o),
(637,276,cs)
);
},
{
closed = 1;
nodes = (
(539,211,o),
(518,205,o),
(495,205,cs),
(437,205,o),
(407,226,o),
(407,289,cs),
(407,469,ls),
(407,480,o),
(398,490,o),
(387,490,cs),
(376,490,o),
(366,480,o),
(366,469,cs),
(366,289,ls),
(366,200,o),
(421,164,o),
(495,164,cs),
(526,164,o),
(556,174,o),
(579,190,c),
(585,193,o),
(589,200,o),
(589,206,cs),
(589,217,o),
(579,226,o),
(568,226,cs),
(564,226,o),
(560,225,o),
(557,222,c)
);
},
{
closed = 1;
nodes = (
(597,187,ls),
(597,138,o),
(571,103,o),
(501,103,cs),
(442,103,o),
(406,122,o),
(406,170,cs),
(406,181,o),
(396,190,o),
(385,190,cs),
(374,190,o),
(365,181,o),
(365,170,cs),
(365,94,o),
(430,63,o),
(501,63,cs),
(593,63,o),
(637,121,o),
(637,187,cs),
(637,230,ls),
(637,242,o),
(628,251,o),
(617,251,cs),
(606,251,o),
(597,242,o),
(597,230,cs)
);
}
);
width = 1000;
}
);
metricLeft = "=40";
metricRight = "=|";
},
{
glyphname = z.blackCircled;
lastChange = "2024-12-09 10:23:19 +0000";
layers = (
{
layerId = m01;
shapes = (
{
locked = 1;
ref = _part.blackCircle;
scale = (0.9882,0.9882);
},
{
closed = 1;
nodes = (
(374,488,ls),
(363,488,o),
(354,478,o),
(354,467,cs),
(354,456,o),
(363,447,o),
(374,447,cs),
(611,447,ls),
(622,447,o),
(631,456,o),
(631,467,cs),
(631,478,o),
(622,488,o),
(611,488,cs)
);
},
{
closed = 1;
nodes = (
(587,410,ls),
(590,413,o),
(591,417,o),
(591,423,cs),
(591,434,o),
(583,443,o),
(571,443,cs),
(565,443,o),
(560,439,o),
(555,436,c),
(387,242,ls),
(385,239,o),
(382,235,o),
(382,229,cs),
(382,218,o),
(391,209,o),
(402,209,cs),
(408,209,o),
(414,213,o),
(418,216,c)
);
},
{
closed = 1;
nodes = (
(362,205,ls),
(351,205,o),
(342,196,o),
(342,185,cs),
(342,174,o),
(351,165,o),
(362,165,cs),
(615,165,ls),
(627,165,o),
(635,174,o),
(635,185,cs),
(635,196,o),
(627,205,o),
(615,205,cs)
);
}
);
width = 1000;
}
);
metricLeft = "=40";
metricRight = "=|";
},
{
glyphname = f_f_ij;
kernLeft = f;
kernRight = j;
lastChange = "2024-12-09 09:52:06 +0000";
layers = (
{
anchors = (
{
name = bottom_1;
pos = (185,0);
},
{
name = bottom_2;
pos = (556,0);
},
{
name = bottom_3;
pos = (926,0);
},
{
name = caret_1;
pos = (370,0);
},
{
name = caret_2;
pos = (741,0);
},
{
name = top_1;
pos = (185,723);
},
{
name = top_2;
pos = (556,723);
},
{
name = top_3;
pos = (926,723);
}
);
layerId = m01;
shapes = (
{
ref = f;
},
{
pos = (939,0);
ref = j;
},
{
closed = 1;
nodes = (
(450,28,ls),
(450,13,o),
(462,1,o),
(477,1,cs),
(492,1,o),
(504,13,o),
(504,28,cs),
(504,327,ls),
(504,343,o),
(492,354,o),
(477,354,cs),
(462,354,o),
(450,343,o),
(450,327,cs)
);
},
{
closed = 1;
nodes = (
(703,372,ls),
(718,372,o),
(730,383,o),
(730,399,cs),
(730,414,o),
(718,426,o),
(703,426,cs),
(361,426,ls),
(346,426,o),
(334,414,o),
(334,399,cs),
(334,383,o),
(346,372,o),
(361,372,cs)
);
},
{
closed = 1;
nodes = (
(821,607,o),
(763,682,o),
(635,682,cs),
(517,682,o),
(450,607,o),
(450,507,cs),
(450,472,ls),
(450,457,o),
(462,445,o),
(477,445,cs),
(492,445,o),
(504,457,o),
(504,472,cs),
(504,507,ls),
(504,576,o),
(548,627,o),
(635,627,cs),
(731,627,o),
(767,577,o),
(767,516,cs),
(767,501,o),
(778,489,o),
(794,489,cs),
(809,489,o),
(821,501,o),
(821,516,cs)
);
},
{
closed = 1;
nodes = (
(767,26,ls),
(767,11,o),
(779,-1,o),
(794,-1,cs),
(810,-1,o),
(822,11,o),
(822,26,cs),
(822,429,ls),
(822,444,o),
(810,456,o),
(794,456,cs),
(779,456,o),
(767,444,o),
(767,429,cs)
);
}
);
width = 1120;
}
);
metricLeft = f;
metricRight = ij;
},
{
glyphname = f_i;
kernLeft = f;
kernRight = dotlessi;
lastChange = "2024-12-09 09:53:57 +0000";
layers = (
{
anchors = (
{
name = bottom;
pos = (201,14);
},
{
name = bottom_1;
pos = (149,0);
},
{
name = bottom_2;
pos = (447,0);
},
{
name = caret_1;
pos = (298,0);
},
{
name = ogonek;
pos = (510,23);
},
{
name = top;
pos = (201,767);
},
{
name = top_1;
pos = (149,723);
},
{
name = top_2;
pos = (447,723);
}
);
layerId = m01;
shapes = (
{
closed = 1;
nodes = (
(134,28,ls),
(134,13,o),
(146,1,o),
(161,1,cs),
(176,1,o),
(188,13,o),
(188,28,cs),
(188,327,ls),
(188,343,o),
(176,354,o),
(161,354,cs),
(146,354,o),
(134,343,o),
(134,327,cs)
);
},
{
closed = 1;
nodes = (
(387,372,ls),
(402,372,o),
(414,383,o),
(414,399,cs),
(414,414,o),
(402,426,o),
(387,426,cs),
(45,426,ls),
(30,426,o),
(18,414,o),
(18,399,cs),
(18,383,o),
(30,372,o),
(45,372,cs)
);
},
{
closed = 1;
nodes = (
(506,607,o),
(447,682,o),
(319,682,cs),
(201,682,o),
(134,607,o),
(134,507,cs),
(134,472,ls),
(134,457,o),
(146,445,o),
(161,445,cs),
(176,445,o),
(188,457,o),
(188,472,cs),
(188,507,ls),
(188,576,o),
(232,627,o),
(319,627,cs),
(415,627,o),
(451,577,o),
(451,516,cs),
(451,501,o),
(462,489,o),
(478,489,cs),
(493,489,o),
(506,501,o),
(506,516,cs)
);
},
{
closed = 1;
nodes = (
(451,26,ls),
(451,11,o),
(463,-1,o),
(478,-1,cs),
(494,-1,o),
(506,11,o),
(506,26,cs),
(506,429,ls),
(506,444,o),
(494,456,o),
(478,456,cs),
(463,456,o),
(451,444,o),
(451,429,cs)
);
}
);
width = 558;
}
);
metricLeft = f;
metricRight = i;
},
{
glyphname = f_l;
kernLeft = f;
kernRight = l;
lastChange = "2024-12-09 09:53:57 +0000";
layers = (
{
anchors = (
{
name = bottom;
pos = (201,14);
},
{
name = bottom_1;
pos = (149,0);
},
{
name = bottom_2;
pos = (447,0);
},
{
name = caret_1;
pos = (298,0);
},
{
name = ogonek;
pos = (510,23);
},
{
name = top;
pos = (201,767);
},
{
name = top_1;
pos = (149,723);
},
{
name = top_2;
pos = (447,723);
}
);
layerId = m01;
shapes = (
{
closed = 1;
nodes = (
(134,28,ls),
(134,13,o),
(146,1,o),
(161,1,cs),
(176,1,o),
(188,13,o),
(188,28,cs),
(188,327,ls),
(188,343,o),
(176,354,o),
(161,354,cs),
(146,354,o),
(134,343,o),
(134,327,cs)
);
},
{
closed = 1;
nodes = (
(387,372,ls),
(402,372,o),
(414,383,o),
(414,399,cs),
(414,414,o),
(402,426,o),
(387,426,cs),
(45,426,ls),
(30,426,o),
(18,414,o),
(18,399,cs),
(18,383,o),
(30,372,o),
(45,372,cs)
);
},
{
closed = 1;
nodes = (
(506,608,o),
(447,682,o),
(319,682,cs),
(201,682,o),
(134,607,o),
(134,507,cs),
(134,472,ls),
(134,457,o),
(146,445,o),
(161,445,cs),
(176,445,o),
(188,457,o),
(188,472,cs),
(188,507,ls),
(188,576,o),
(232,627,o),
(319,627,cs),
(415,627,o),
(451,578,o),
(451,517,cs),
(451,502,o),
(462,489,o),
(478,489,cs),
(493,489,o),
(506,502,o),
(506,517,cs)
);
},
{
closed = 1;
nodes = (
(451,26,ls),
(451,11,o),
(463,-1,o),
(478,-1,cs),
(494,-1,o),
(506,11,o),
(506,26,cs),
(506,517,ls),
(506,532,o),
(494,544,o),
(478,544,cs),
(463,544,o),
(451,532,o),
(451,517,cs)
);
}
);
width = 569;
}
);
metricLeft = f;
metricRight = l;
},
{
color = 4;
glyphname = s_t;
lastChange = "2024-12-09 09:49:34 +0000";
layers = (
{
anchors = (
{
name = bottom;
pos = (781,14);
},
{
name = center;
pos = (718,263);
},
{
name = top;
pos = (672,599);
},
{
name = topright;
pos = (869,713);
}
);
layerId = m01;
shapes = (
{
ref = s;
},
{
closed = 1;
nodes = (
(591,472,ls),
(606,472,o),
(618,484,o),
(618,499,cs),
(618,514,o),
(606,526,o),
(591,526,cs),
(498,526,ls),
(483,526,o),
(471,514,o),
(471,499,cs),
(471,484,o),
(483,472,o),
(498,472,cs)
);
},
{
closed = 1;
nodes = (
(636,171,ls),
(636,71,o),
(682,-4,o),
(791,-4,cs),
(869,-4,o),
(927,41,o),
(927,142,cs),
(927,157,o),
(915,169,o),
(900,169,cs),
(884,169,o),
(873,157,o),
(873,142,cs),
(873,71,o),
(847,51,o),
(791,51,cs),
(714,51,o),
(690,92,o),
(690,171,cs),
(690,566,ls),
(690,581,o),
(678,593,o),
(663,593,cs),
(648,593,o),
(636,581,o),
(636,566,cs)
);
},
{
closed = 1;
nodes = (
(857,472,ls),
(873,472,o),
(884,484,o),
(884,499,cs),
(884,514,o),
(873,526,o),
(857,526,cs),
(734,526,ls),
(719,526,o),
(707,514,o),
(707,499,cs),
(707,484,o),
(719,472,o),
(734,472,cs)
);
},
{
closed = 1;
nodes = (
(387,585,cs),
(387,650,o),
(434,689,o),
(507,689,cs),
(589,689,o),
(636,644,o),
(636,565,cs),
(636,549,o),
(647,537,o),
(663,537,cs),
(678,537,o),
(690,549,o),
(690,565,cs),
(690,675,o),
(610,744,o),
(507,744,cs),
(414,744,o),
(332,683,o),
(332,585,cs),
(332,568,o),
(343,557,o),
(360,557,cs),
(377,557,o),
(387,568,o)
);
}
);
width = 954;
}
);
metricLeft = s;
metricRight = t;
},
{
color = 4;
glyphname = w_w_w;
lastChange = "2024-12-09 09:45:24 +0000";
layers = (
{
anchors = (
{
name = bottom;
pos = (1176,14);
},
{
name = top;
pos = (1176,567);
}
);
layerId = m01;
shapes = (
{
ref = w;
},
{
closed = 1;
nodes = (
(1004,511,ls),
(999,520,o),
(990,526,o),
(979,526,cs),
(964,526,o),
(952,514,o),
(952,499,cs),
(952,494,o),
(953,491,o),
(955,487,cs),
(1018,351,ls),
(1023,342,o),
(1032,335,o),
(1043,335,cs),
(1058,335,o),
(1070,347,o),
(1070,363,cs),
(1070,367,o),
(1069,371,o),
(1067,374,cs)
);
},
{
closed = 1;
nodes = (
(941,39,ls),
(939,35,o),
(938,32,o),
(938,27,cs),
(938,12,o),
(950,0,o),
(965,0,cs),
(976,0,o),
(985,6,o),
(989,15,cs),
(1209,487,ls),
(1211,491,o),
(1212,494,o),
(1212,499,cs),
(1212,514,o),
(1200,526,o),
(1185,526,cs),
(1174,526,o),
(1165,520,o),
(1160,511,cs)
);
},
{
closed = 1;
nodes = (
(1176,39,ls),
(1174,35,o),
(1173,32,o),
(1173,27,cs),
(1173,12,o),
(1185,0,o),
(1200,0,cs),
(1211,0,o),
(1220,6,o),
(1224,15,cs),
(1444,487,ls),
(1446,491,o),
(1447,494,o),
(1447,499,cs),
(1447,514,o),
(1435,526,o),
(1420,526,cs),
(1409,526,o),
(1400,520,o),
(1395,511,cs)
);
},
{
closed = 1;
nodes = (
(803,439,ls),
(799,448,o),
(789,454,o),
(778,454,cs),
(763,454,o),
(751,442,o),
(751,427,cs),
(751,422,o),
(752,419,o),
(754,415,cs),
(901,99,ls),
(906,89,o),
(914,83,o),
(925,83,cs),
(941,83,o),
(952,95,o),
(952,110,cs),
(952,115,o),
(952,118,o),
(950,122,cs)
);
},
{
closed = 1;
nodes = (
(1145,204,ls),
(1140,213,o),
(1131,220,o),
(1120,220,cs),
(1105,220,o),
(1093,208,o),
(1093,193,cs),
(1093,188,o),
(1094,184,o),
(1096,181,cs),
(1138,89,ls),
(1143,80,o),
(1152,74,o),
(1163,74,cs),
(1178,74,o),
(1190,86,o),
(1190,101,cs),
(1190,106,o),
(1189,109,o),
(1187,113,cs)
);
},
{
closed = 1;
nodes = (
(1694,511,ls),
(1689,520,o),
(1680,526,o),
(1669,526,cs),
(1654,526,o),
(1642,514,o),
(1642,499,cs),
(1642,494,o),
(1643,491,o),
(1645,487,cs),
(1708,351,ls),
(1713,342,o),
(1722,335,o),
(1733,335,cs),
(1748,335,o),
(1760,347,o),
(1760,363,cs),
(1760,367,o),
(1759,371,o),
(1757,374,cs)
);
},
{
closed = 1;
nodes = (
(1631,39,ls),
(1629,35,o),
(1628,32,o),
(1628,27,cs),
(1628,12,o),
(1640,0,o),
(1655,0,cs),
(1666,0,o),
(1675,6,o),
(1679,15,cs),
(1899,487,ls),
(1901,491,o),
(1902,494,o),
(1902,499,cs),
(1902,514,o),
(1890,526,o),
(1875,526,cs),
(1864,526,o),
(1855,520,o),
(1850,511,cs)
);
},
{
closed = 1;
nodes = (
(1866,39,ls),
(1864,35,o),
(1863,32,o),
(1863,27,cs),
(1863,12,o),
(1875,0,o),
(1890,0,cs),
(1901,0,o),
(1910,6,o),
(1914,15,cs),
(2134,487,ls),
(2136,491,o),
(2137,494,o),
(2137,499,cs),
(2137,514,o),
(2125,526,o),
(2110,526,cs),
(2099,526,o),
(2090,520,o),
(2085,511,cs)
);
},
{
closed = 1;
nodes = (
(1493,439,ls),
(1489,448,o),
(1479,454,o),
(1468,454,cs),
(1453,454,o),
(1441,442,o),
(1441,427,cs),
(1441,422,o),
(1442,419,o),
(1444,415,cs),
(1591,99,ls),
(1596,89,o),
(1604,83,o),
(1615,83,cs),
(1631,83,o),
(1642,95,o),
(1642,110,cs),
(1642,115,o),
(1642,118,o),
(1640,122,cs)
);
},
{
closed = 1;
nodes = (
(1835,204,ls),
(1830,213,o),
(1821,220,o),
(1810,220,cs),
(1795,220,o),
(1783,208,o),
(1783,193,cs),
(1783,188,o),
(1784,184,o),
(1786,181,cs),
(1828,89,ls),
(1833,80,o),
(1842,74,o),
(1853,74,cs),
(1868,74,o),
(1880,86,o),
(1880,101,cs),
(1880,106,o),
(1879,109,o),
(1877,113,cs)
);
}
);
width = 2164;
}
);
metricLeft = w;
metricRight = w;
},
{
glyphname = Delta;
lastChange = "2023-10-27 14:16:26 +0000";
layers = (
{
layerId = m01;
shapes = (
{
closed = 1;
nodes = (
(57,41,ls),
(42,41,o),
(30,29,o),
(30,14,cs),
(30,-2,o),
(42,-14,o),
(57,-14,cs),
(485,-14,ls),
(501,-14,o),
(513,-2,o),
(513,14,cs),
(513,29,o),
(501,41,o),
(485,41,cs)
);
},
{
closed = 1;
nodes = (
(440,74,ls),
(444,63,o),
(455,55,o),
(466,55,cs),
(486,55,o),
(498,75,o),
(493,90,cs),
(311,649,ls),
(307,660,o),
(297,668,o),
(285,668,cs),
(265,668,o),
(254,648,o),
(259,633,cs)
);
},
{
closed = 1;
nodes = (
(255,549,ls),
(260,566,o),
(247,584,o),
(229,584,cs),
(217,584,o),
(206,576,o),
(202,565,cs),
(50,90,ls),
(44,73,o),
(58,55,o),
(76,55,cs),
(88,55,o),
(99,63,o),
(102,74,cs)
);
}
);
width = 542;
}
);
unicode = 916;
},
{
glyphname = Omega;
lastChange = "2023-10-27 14:16:26 +0000";
layers = (
{
layerId = m01;
shapes = (
{
closed = 1;
nodes = (
(39,54,ls),
(24,54,o),
(12,42,o),
(12,27,cs),
(12,12,o),
(24,0,o),
(39,0,cs),
(233,0,ls),
(249,0,o),
(260,12,o),
(260,27,cs),
(260,42,o),
(249,54,o),
(233,54,cs)
);
},
{
closed = 1;
nodes = (
(324,54,ls),
(308,54,o),
(297,42,o),
(297,27,cs),
(297,12,o),
(308,0,o),
(324,0,cs),
(505,0,ls),
(521,0,o),
(532,12,o),
(532,27,cs),
(532,42,o),
(521,54,o),
(505,54,cs)
);
},
{
closed = 1;
nodes = (
(486,103,o),
(541,235,o),
(541,363,cs),
(541,497,o),
(456,654,o),
(278,654,cs),
(102,654,o),
(15,497,o),
(15,363,cs),
(15,235,o),
(70,103,o),
(219,73,cs),
(235,70,o),
(251,81,o),
(251,99,cs),
(251,113,o),
(242,124,o),
(230,126,cs),
(106,151,o),
(70,254,o),
(70,363,cs),
(70,474,o),
(131,600,o),
(278,600,cs),
(427,600,o),
(487,474,o),
(487,363,cs),
(487,255,o),
(450,151,o),
(327,126,cs),
(315,124,o),
(306,113,o),
(306,99,cs),
(306,81,o),
(322,70,o),
(338,73,cs)
);
}
);
width = 542;
}
);
unicode = 937;
},
{
glyphname = pi;
lastChange = "2023-10-27 14:16:26 +0000";
layers = (
{
layerId = m01;
shapes = (
{
closed = 1;
nodes = (
(69,415,ls),
(53,415,o),
(42,403,o),
(42,388,cs),
(42,372,o),
(53,361,o),
(69,361,cs),
(475,361,ls),
(490,361,o),
(502,372,o),
(502,388,cs),
(502,403,o),
(490,415,o),
(475,415,cs)
);
},
{
closed = 1;
nodes = (
(368,14,ls),
(368,-2,o),
(380,-14,o),
(395,-14,cs),
(410,-14,o),
(422,-2,o),
(422,14,cs),
(422,306,ls),
(422,322,o),
(410,334,o),
(395,334,cs),
(380,334,o),
(368,322,o),
(368,306,cs)
);
},
{
closed = 1;
nodes = (
(121,14,ls),
(121,-2,o),
(133,-14,o),
(148,-14,cs),
(164,-14,o),
(175,-2,o),
(175,14,cs),
(175,306,ls),
(175,322,o),
(164,334,o),
(148,334,cs),
(133,334,o),
(121,322,o),
(121,306,cs)
);
}
);
width = 542;
}
);
unicode = 960;
},
{
glyphname = zero;
kernLeft = zero;
kernRight = zero;
lastChange = "2023-10-27 14:16:26 +0000";
layers = (
{
background = {
hints = (
{
horizontal = 1;
place = (2,24);
type = Stem;
},
{
horizontal = 1;
place = (657,23);
type = Stem;
},
{
place = (39,23);
type = Stem;
},
{
place = (380,23);
type = Stem;
}
);
shapes = (
{
closed = 1;
nodes = (
(274,607,ls),
(241,607,o),
(202,598,o),
(166,573,cs),
(135,552,o),
(110,524,o),
(92,493,cs),
(63,442,o),
(49,376,o),
(49,308,cs),
(49,138,o),
(140,-4,o),
(285,-4,cs),
(290,-4,ls),
(328,-4,o),
(364,9,o),
(395,29,cs),
(426,49,o),
(450,76,o),
(468,106,cs),
(504,165,o),
(514,231,o),
(514,296,cs),
(514,365,o),
(503,437,o),
(464,499,cs),
(445,530,o),
(419,558,o),
(386,578,cs),
(354,597,o),
(317,607,o),
(279,607,cs)
);
},
{
closed = 1;
nodes = (
(101,308,cs),
(101,351,o),
(107,414,o),
(137,466,cs),
(151,491,o),
(170,513,o),
(193,528,cs),
(221,546,o),
(250,554,o),
(274,554,cs),
(278,554,ls),
(305,554,o),
(333,546,o),
(356,532,cs),
(381,518,o),
(401,496,o),
(417,472,cs),
(448,421,o),
(459,362,o),
(459,298,cs),
(459,254,o),
(454,191,o),
(421,137,cs),
(407,113,o),
(388,92,o),
(365,78,cs),
(343,63,o),
(315,53,o),
(288,53,cs),
(285,53,ls),
(165,53,o),
(101,178,o)
);
}
);
};
layerId = m01;
shapes = (
{
closed = 1;
nodes = (
(286,50,ls),
(145,50,o),
(90,188,o),
(90,325,cs),
(90,336,ls),
(90,472,o),
(145,610,o),
(286,610,cs),
(288,610,ls),
(304,610,o),
(315,622,o),
(315,637,cs),
(315,653,o),
(304,664,o),
(288,664,cs),
(286,664,ls),
(106,664,o),
(36,486,o),
(36,336,cs),
(36,325,ls),
(36,174,o),
(106,-5,o),
(286,-5,cs),
(288,-5,ls),
(304,-5,o),
(315,7,o),
(315,23,cs),
(315,38,o),
(304,50,o),
(288,50,cs)
);
},
{
closed = 1;
nodes = (
(381,610,ls),
(523,610,o),
(577,472,o),
(577,336,cs),
(577,325,ls),
(577,188,o),
(523,50,o),
(381,50,cs),
(379,50,ls),
(363,50,o),
(352,38,o),
(352,23,cs),
(352,7,o),
(363,-5,o),
(379,-5,cs),
(381,-5,ls),
(561,-5,o),
(631,174,o),
(631,325,cs),
(631,336,ls),
(631,486,o),
(561,664,o),
(381,664,cs),
(379,664,ls),
(363,664,o),
(352,653,o),
(352,637,cs),
(352,622,o),
(363,610,o),
(379,610,cs)
);
}
);
width = 667;
}
);
note = zero;
unicode = 48;
},
{
glyphname = one;
kernLeft = one;
kernRight = one;
lastChange = "2023-10-27 14:16:26 +0000";
layers = (
{
background = {
hints = (
{
horizontal = 1;
place = (675,-20);
target = down;
type = TopGhost;
},
{
place = (123,22);
type = Stem;
}
);
shapes = (
{
closed = 1;
nodes = (
(80,523,ls),
(71,518,o),
(66,509,o),
(66,499,cs),
(66,494,o),
(67,491,o),
(70,486,cs),
(74,478,o),
(83,473,o),
(93,473,cs),
(98,473,o),
(101,474,o),
(106,476,cs),
(246,558,ls),
(254,562,o),
(259,571,o),
(259,581,cs),
(259,586,o),
(259,589,o),
(256,594,cs),
(251,602,o),
(242,607,o),
(232,607,cs),
(228,607,o),
(224,607,o),
(220,604,cs)
);
},
{
closed = 1;
nodes = (
(206,27,ls),
(206,12,o),
(218,0,o),
(233,0,cs),
(249,0,o),
(260,12,o),
(260,27,cs),
(260,481,ls),
(260,496,o),
(249,508,o),
(233,508,cs),
(218,508,o),
(206,496,o),
(206,481,cs)
);
}
);
};
layerId = m01;
shapes = (
{
closed = 1;
nodes = (
(209,27,ls),
(209,12,o),
(221,0,o),
(236,0,cs),
(251,0,o),
(263,12,o),
(263,27,cs),
(263,633,ls),
(263,648,o),
(251,660,o),
(236,660,cs),
(221,660,o),
(209,648,o),
(209,633,cs)
);
},
{
closed = 1;
nodes = (
(174,568,l),
(182,572,o),
(186,581,o),
(186,591,cs),
(186,607,o),
(174,618,o),
(159,618,cs),
(154,618,o),
(149,617,o),
(145,615,c),
(49,556,l),
(41,551,o),
(36,542,o),
(36,532,cs),
(36,517,o),
(48,505,o),
(63,505,cs),
(69,505,o),
(73,506,o),
(78,509,c)
);
}
);
width = 353;
}
);
note = one;
unicode = 49;
},
{
glyphname = two;
kernLeft = two;
kernRight = two;
lastChange = "2023-10-27 14:16:26 +0000";
layers = (
{
background = {
hints = (
{
horizontal = 1;
place = (2,24);
type = Stem;
},
{
horizontal = 1;
place = (116,22);
type = Stem;
},
{
horizontal = 1;
place = (654,23);
type = Stem;
},
{
place = (323,23);
type = Stem;
}
);
shapes = (
{
closed = 1;
nodes = (
(238,605,ls),
(206,605,o),
(167,597,o),
(133,573,cs),
(102,551,o),
(80,521,o),
(71,485,cs),
(66,469,o),
(79,452,o),
(97,452,cs),
(109,452,o),
(120,460,o),
(123,473,cs),
(128,494,o),
(143,515,o),
(164,530,cs),
(187,547,o),
(214,553,o),
(236,553,cs),
(238,553,ls),
(259,553,o),
(286,547,o),
(308,530,cs),
(327,515,o),
(340,495,o),
(344,475,cs),
(344,469,o),
(345,464,o),
(345,458,cs),
(345,447,o),
(344,437,o),
(340,426,cs),
(334,410,o),
(325,393,o),
(312,378,cs),
(284,344,o),
(242,316,o),
(201,286,cs),
(159,255,o),
(117,220,o),
(88,174,cs),
(64,136,o),
(51,92,o),
(51,48,cs),
(51,43,ls),
(51,37,o),
(51,31,o),
(52,24,cs),
(52,11,o),
(65,0,o),
(79,0,cs),
(95,0,o),
(107,14,o),
(106,30,cs),
(106,43,ls),
(106,77,o),
(116,111,o),
(135,141,cs),
(149,164,o),
(173,193,o),
(234,239,cs),
(274,268,o),
(319,298,o),
(354,341,cs),
(371,360,o),
(384,381,o),
(392,406,cs),
(398,422,o),
(400,439,o),
(400,457,cs),
(400,466,o),
(400,475,o),
(398,484,cs),
(391,518,o),
(371,550,o),
(342,571,cs),
(309,596,o),
(270,605,o),
(240,605,cs)
);
},
{
closed = 1;
nodes = (
(149,54,ls),
(134,54,o),
(122,42,o),
(122,27,cs),
(122,12,o),
(134,0,o),
(149,0,cs),
(381,0,ls),
(396,0,o),
(408,12,o),
(408,27,cs),
(408,42,o),
(396,54,o),
(381,54,cs)
);
},
{
closed = 0;
nodes = (
(388,13,l),
(136,13,l)
);
},
{
closed = 0;
nodes = (
(45,13,l),
(45,187,o),
(367,307,o),
(367,477,cs),
(367,567,o),
(298,623,o),
(209,623,cs),
(119,623,o),
(51,567,o),
(51,477,cs)
);
}
);
};
layerId = m01;
shapes = (
{
closed = 1;
nodes = (
(388,0,ls),
(403,0,o),
(415,12,o),
(415,27,cs),
(415,42,o),
(403,54,o),
(388,54,cs),
(127,54,ls),
(111,54,o),
(99,42,o),
(99,27,cs),
(99,12,o),
(111,0,o),
(127,0,cs)
);
},
{
closed = 1;
nodes = (
(78,569,o),
(129,610,o),
(209,610,cs),
(288,610,o),
(340,569,o),
(340,492,cs),
(340,341,o),
(18,221,o),
(18,27,cs),
(18,12,o),
(30,0,o),
(45,0,cs),
(61,0,o),
(72,12,o),
(72,27,cs),
(72,183,o),
(394,303,o),
(394,492,cs),
(394,598,o),
(312,664,o),
(209,664,cs),
(106,664,o),
(24,598,o),
(24,492,cs),
(24,476,o),
(35,465,o),
(51,465,cs),
(66,465,o),
(78,476,o),
(78,492,cs)
);
}
);
width = 442;
}
);
note = two;
unicode = 50;
},
{
glyphname = three;
kernLeft = three;
kernRight = three;
lastChange = "2023-10-27 14:16:26 +0000";
layers = (
{
background = {
hints = (
{
horizontal = 1;
place = (2,24);
type = Stem;
},
{
horizontal = 1;
place = (248,22);
type = Stem;
},
{
horizontal = 1;
place = (369,24);
type = Stem;
},
{
horizontal = 1;
place = (654,23);
type = Stem;
},
{
place = (348,22);
type = Stem;
},
{
place = (321,23);
type = Stem;
}
);
shapes = (
{
closed = 1;
nodes = (
(262,607,ls),
(250,607,o),
(239,605,o),
(227,602,cs),
(215,599,o),
(204,596,o),
(193,590,cs),
(183,585,o),
(173,579,o),
(164,571,cs),
(155,564,o),
(146,556,o),
(139,547,cs),
(132,538,o),
(126,528,o),
(121,518,c),
(115,508,o),
(110,498,o),
(110,484,cs),
(110,469,o),
(122,457,o),
(137,457,cs),
(149,457,o),
(161,466,o),
(164,478,cs),
(165,485,o),
(166,491,o),
(169,497,cs),
(172,504,o),
(175,510,o),
(180,515,cs),
(184,521,o),
(190,526,o),
(195,531,cs),
(201,535,o),
(207,539,o),
(214,542,cs),
(221,546,o),
(229,549,o),
(237,551,cs),
(245,552,o),
(253,553,o),
(261,553,cs),
(264,553,ls),
(271,553,o),
(278,552,o),
(286,551,cs),
(293,549,o),
(300,547,o),
(307,544,cs),
(314,541,o),
(320,538,o),
(325,534,cs),
(332,530,o),
(337,525,o),
(342,520,cs),
(346,514,o),
(351,509,o),
(354,503,cs),
(363,487,o),
(365,478,o),
(365,463,cs),
(365,451,o),
(360,428,o),
(349,413,cs),
(345,408,o),
(341,402,o),
(336,397,cs),
(332,392,o),
(326,388,o),
(321,384,cs),
(314,379,o),
(306,374,o),
(297,371,cs),
(289,368,o),
(280,366,o),
(271,364,cs),
(262,363,o),
(253,362,o),
(244,362,cs),
(229,362,o),
(217,350,o),
(217,334,cs),
(217,319,o),
(229,307,o),
(244,307,cs),
(256,307,o),
(268,308,o),
(279,310,cs),
(292,312,o),
(305,315,o),
(316,319,cs),
(329,324,o),
(341,330,o),
(352,338,cs),
(360,344,o),
(368,351,o),
(375,358,cs),
(382,365,o),
(389,373,o),
(394,381,cs),
(410,406,o),
(419,430,o),
(419,462,cs),
(419,490,o),
(413,508,o),
(401,529,cs),
(396,539,o),
(390,548,o),
(382,556,cs),
(375,564,o),
(367,571,o),
(358,578,cs),
(349,584,o),
(339,589,o),
(329,594,cs),
(319,598,o),
(308,602,o),
(297,604,cs),
(287,606,o),
(276,607,o),
(265,607,cs)
);
},
{
closed = 1;
nodes = (
(425,267,l),
(412,288,o),
(395,303,o),
(381,312,cs),
(377,315,o),
(372,316,o),
(367,316,cs),
(358,316,o),
(349,312,o),
(344,304,cs),
(341,299,o),
(339,294,o),
(339,289,cs),
(339,280,o),
(344,271,o),
(352,266,cs),
(358,262,o),
(371,252,o),
(378,240,cs),
(389,221,o),
(394,200,o),
(394,178,cs),
(394,159,o),
(391,137,o),
(379,116,cs),
(369,98,o),
(353,81,o),
(333,71,cs),
(311,58,o),
(283,50,o),
(250,50,cs),
(214,50,o),
(179,60,o),
(154,78,cs),
(143,85,o),
(134,94,o),
(127,104,cs),
(121,111,o),
(113,115,o),
(105,115,cs),
(99,115,o),
(93,113,o),
(89,109,cs),
(81,104,o),
(78,96,o),
(78,88,cs),
(78,81,o),
(80,76,o),
(83,71,cs),
(94,57,o),
(108,44,o),
(123,33,cs),
(164,5,o),
(212,-5,o),
(250,-5,cs),
(295,-5,o),
(333,6,o),
(362,23,cs),
(390,39,o),
(412,61,o),
(428,89,cs),
(445,119,o),
(450,151,o),
(450,177,cs),
(450,208,o),
(442,239,o),
(426,266,c)
);
},
{
closed = 0;
nodes = (
(194,332,l),
(255,332,ls),
(365,332,o),
(449,278,o),
(450,171,cs),
(450,171,o),
(450,169,o),
(450,169,cs),
(450,70,o),
(365,8,o),
(257,8,cs),
(148,8,o),
(63,70,o),
(63,169,cs)
);
},
{
closed = 0;
nodes = (
(261,332,ls),
(347,332,o),
(412,388,o),
(412,477,cs),
(412,567,o),
(347,623,o),
(261,623,cs),
(175,623,o),
(110,567,o),
(110,477,cs)
);
}
);
};
layerId = m01;
shapes = (
{
closed = 1;
nodes = (
(137,569,o),
(185,610,o),
(261,610,cs),
(337,610,o),
(385,569,o),
(385,492,cs),
(385,415,o),
(337,373,o),
(261,373,cs),
(215,373,ls),
(200,373,o),
(188,362,o),
(188,346,cs),
(188,331,o),
(200,319,o),
(215,319,cs),
(261,319,ls),
(361,319,o),
(439,386,o),
(439,492,cs),
(439,598,o),
(361,664,o),
(261,664,cs),
(162,664,o),
(83,598,o),
(83,492,cs),
(83,476,o),
(95,465,o),
(110,465,cs),
(126,465,o),
(137,476,o),
(137,492,cs)
);
},
{
closed = 1;
nodes = (
(36,67,o),
(135,-5,o),
(257,-5,cs),
(379,-5,o),
(477,67,o),
(477,184,cs),
(477,184,o),
(477,185,o),
(477,185,cs),
(477,250,o),
(449,299,o),
(406,331,cs),
(401,334,o),
(396,336,o),
(390,336,cs),
(374,336,o),
(363,325,o),
(363,309,cs),
(363,300,o),
(367,292,o),
(373,287,cs),
(406,264,o),
(423,234,o),
(423,185,cs),
(423,185,o),
(423,184,o),
(423,184,cs),
(423,98,o),
(356,50,o),
(257,50,cs),
(157,50,o),
(90,98,o),
(90,184,cs),
(90,199,o),
(79,211,o),
(63,211,cs),
(48,211,o),
(36,199,o),
(36,184,cs)
);
}
);
width = 513;
}
);
note = three;
unicode = 51;
},
{
glyphname = four;
kernLeft = four;
kernRight = four;
lastChange = "2024-12-09 10:52:07 +0000";
layers = (
{
background = {
hints = (
{
horizontal = 1;
place = (130,22);
type = Stem;
},
{
horizontal = 1;
place = (224,24);
type = Stem;
},
{
horizontal = 1;
place = (675,-20);
target = down;
type = TopGhost;
},
{
place = (250,22);
type = Stem;
}
);
shapes = (
{
closed = 1;
nodes = (
(39,219,ls),
(36,214,o),
(34,209,o),
(34,204,cs),
(34,200,o),
(35,193,o),
(38,189,cs),
(42,180,o),
(50,177,o),
(60,177,cs),
(293,177,ls),
(308,177,o),
(320,189,o),
(320,204,cs),
(320,220,o),
(308,231,o),
(293,231,cs),
(113,231,l),
(333,565,ls),
(335,570,o),
(337,575,o),
(337,579,cs),
(337,589,o),
(333,598,o),
(325,603,cs),
(320,606,o),
(315,607,o),
(310,607,cs),
(301,607,o),
(292,603,o),
(287,595,cs)
);
},
{
closed = 1;
nodes = (
(335,26,ls),
(335,11,o),
(347,-1,o),
(363,-1,cs),
(378,-1,o),
(390,11,o),
(390,26,cs),
(390,419,ls),
(390,435,o),
(378,447,o),
(363,447,cs),
(347,447,o),
(335,435,o),
(335,419,cs)
);
},
{
closed = 0;
nodes = (
(366,13,l),
(366,492,l)
);
},
{
closed = 0;
nodes = (
(366,618,l),
(63,199,l)
);
},
{
closed = 0;
nodes = (
(159,199,l),
(291,199,l)
);
}
);
};
layerId = m01;
shapes = (
{
closed = 1;
nodes = (
(364,27,ls),
(364,12,o),
(376,0,o),
(391,0,cs),
(406,0,o),
(418,12,o),
(418,27,cs),
(418,496,ls),
(418,512,o),
(406,523,o),
(391,523,cs),
(376,523,o),
(364,512,o),
(364,496,cs)
);
},
{
closed = 1;
nodes = (
(388,617,ls),
(391,621,o),
(393,626,o),
(393,633,cs),
(393,648,o),
(381,660,o),
(366,660,cs),
(357,660,o),
(349,655,o),
(344,649,cs),
(42,230,ls),
(38,225,o),
(36,220,o),
(36,213,cs),
(36,198,o),
(48,186,o),
(63,186,cs),
(72,186,o),
(80,191,o),
(85,197,cs)
);
},
{
closed = 1;
nodes = (
(150,241,ls),
(135,241,o),
(123,230,o),
(123,213,cs),
(123,198,o),
(135,186,o),
(150,186,cs),
(320,186,ls),
(335,186,o),
(347,198,o),
(347,213,cs),
(347,230,o),
(335,241,o),
(320,241,cs)
);
},
{
closed = 1;
nodes = (
(460,241,ls),
(445,241,o),
(433,230,o),
(433,213,cs),
(433,198,o),
(445,186,o),
(460,186,cs),
(487,186,ls),
(502,186,o),
(514,198,o),
(514,213,cs),
(514,230,o),
(502,241,o),
(487,241,cs)
);
}
);
width = 534;
}
);
note = four;
unicode = 52;
},
{
glyphname = five;
kernLeft = five;
kernRight = five;
lastChange = "2024-12-09 10:51:08 +0000";
layers = (
{
background = {
hints = (
{
horizontal = 1;
place = (2,23);
type = Stem;
},
{
horizontal = 1;
place = (402,24);
type = Stem;
},
{
horizontal = 1;
place = (546,22);
type = Stem;
},
{
horizontal = 1;
place = (653,24);
type = Stem;
},
{
place = (70,23);
type = Stem;
},
{
place = (362,23);
type = Stem;
}
);
shapes = (
{
closed = 0;
nodes = (
(376,618,l),
(68,618,l)
);
},
{
closed = 0;
nodes = (
(68,306,l),
(97,352,o),
(155,381,o),
(231,381,cs),
(341,381,o),
(425,319,o),
(426,196,cs),
(426,196,o),
(426,193,o),
(426,193,cs),
(426,79,o),
(341,8,o),
(232,8,cs),
(124,8,o),
(39,79,o),
(39,169,cs)
);
},
{
closed = 0;
nodes = (
(68,550,l),
(68,375,l)
);
}
);
};
layerId = m01;
shapes = (
{
closed = 1;
nodes = (
(420,606,ls),
(436,606,o),
(448,617,o),
(448,633,cs),
(448,648,o),
(436,660,o),
(420,660,cs),
(92,660,ls),
(77,660,o),
(65,648,o),
(65,633,cs),
(65,617,o),
(77,606,o),
(92,606,cs)
);
},
{
closed = 1;
nodes = (
(36,77,o),
(135,-5,o),
(257,-5,cs),
(379,-5,o),
(477,77,o),
(477,208,cs),
(477,208,o),
(477,211,o),
(477,211,cs),
(477,351,o),
(378,423,o),
(255,423,cs),
(170,423,o),
(103,389,o),
(70,335,cs),
(67,332,o),
(65,326,o),
(65,321,cs),
(65,306,o),
(77,294,o),
(92,294,cs),
(102,294,o),
(110,299,o),
(115,306,cs),
(140,345,o),
(185,369,o),
(255,369,cs),
(356,369,o),
(423,320,o),
(423,211,cs),
(423,211,o),
(423,208,o),
(423,208,cs),
(423,106,o),
(355,50,o),
(257,50,cs),
(158,50,o),
(90,106,o),
(90,184,cs),
(90,199,o),
(79,211,o),
(63,211,cs),
(48,211,o),
(36,199,o),
(36,184,cs)
);
},
{
closed = 1;
nodes = (
(119,564,ls),
(119,579,o),
(108,591,o),
(92,591,cs),
(77,591,o),
(65,579,o),
(65,564,cs),
(65,419,ls),
(65,403,o),
(77,391,o),
(92,391,cs),
(108,391,o),
(119,403,o),
(119,419,cs)
);
}
);
width = 523;
}
);
note = five;
unicode = 53;
},
{
glyphname = six;
kernLeft = six;
kernRight = six;
lastChange = "2024-12-09 10:29:15 +0000";
layers = (
{
background = {
hints = (
{
horizontal = 1;
place = (2,23);
type = Stem;
},
{
horizontal = 1;
place = (346,23);
type = Stem;
},
{
horizontal = 1;
place = (676,-20);
target = down;
type = TopGhost;
},
{
place = (24,23);
type = Stem;
},
{
place = (361,23);
type = Stem;
}
);
shapes = (
{
closed = 1;
nodes = (
(275,310,ls),
(298,308,o),
(321,301,o),
(340,290,cs),
(362,278,o),
(379,259,o),
(391,240,cs),
(401,221,o),
(407,199,o),
(407,178,cs),
(407,174,o),
(407,169,o),
(406,165,cs),
(403,139,o),
(391,114,o),
(372,94,cs),
(352,73,o),
(320,58,o),
(287,54,cs),
(283,53,o),
(278,53,o),
(272,53,cs),
(248,53,o),
(223,60,o),
(203,71,cs),
(179,84,o),
(160,104,o),
(148,127,cs),
(141,141,o),
(131,168,o),
(131,210,cs),
(131,230,o),
(134,250,o),
(138,268,cs),
(152,325,o),
(181,372,o),
(221,424,cs),
(264,481,o),
(323,530,o),
(391,564,cs),
(401,569,o),
(407,579,o),
(407,589,cs),
(407,592,o),
(406,597,o),
(404,600,cs),
(400,610,o),
(390,616,o),
(380,616,cs),
(376,616,o),
(372,615,o),
(368,613,cs),
(293,575,o),
(228,522,o),
(179,458,cs),
(137,404,o),
(103,350,o),
(87,282,cs),
(81,259,o),
(79,235,o),
(79,211,cs),
(79,156,o),
(93,121,o),
(103,102,cs),
(120,70,o),
(147,42,o),
(182,24,cs),
(211,8,o),
(243,0,o),
(277,0,cs),
(284,0,o),
(291,0,o),
(298,1,cs),
(344,5,o),
(386,25,o),
(417,56,cs),
(445,84,o),
(462,120,o),
(466,157,cs),
(467,164,o),
(467,170,o),
(467,176,cs),
(467,207,o),
(459,238,o),
(444,265,cs),
(428,293,o),
(404,317,o),
(374,334,cs),
(341,354,o),
(298,364,o),
(260,364,cs),
(247,364,o),
(234,363,o),
(222,361,cs),
(210,358,o),
(201,346,o),
(201,334,cs),
(201,317,o),
(216,305,o),
(232,307,cs),
(241,309,o),
(251,310,o),
(261,310,cs)
);
},
{
closed = 0;
nodes = (
(410,477,l),
(410,567,o),
(342,623,o),
(252,623,cs),
(97,623,o),
(67,503,o),
(67,290,cs),
(67,287,l)
);
},
{
closed = 0;
nodes = (
(67,218,l),
(67,84,o),
(151,8,o),
(254,8,cs),
(357,8,o),
(441,84,o),
(441,218,cs),
(441,352,o),
(357,427,o),
(254,427,cs),
(216,427,o),
(180,417,o),
(150,396,c)
);
}
);
};
layerId = m01;
shapes = (
{
closed = 1;
nodes = (
(108,323,ls),
(108,512,o),
(142,610,o),
(265,610,cs),
(356,610,o),
(408,569,o),
(408,492,cs),
(408,476,o),
(420,465,o),
(435,465,cs),
(450,465,o),
(462,476,o),
(462,492,cs),
(462,598,o),
(380,664,o),
(265,664,cs),
(99,664,o),
(54,521,o),
(54,323,cs),
(54,301,ls),
(54,286,o),
(66,274,o),
(81,274,cs),
(97,274,o),
(108,286,o),
(108,301,cs)
);
},
{
closed = 1;
nodes = (
(206,370,o),
(234,378,o),
(268,378,cs),
(362,378,o),
(428,318,o),
(428,214,cs),
(428,110,o),
(361,50,o),
(268,50,cs),
(176,50,o),
(108,110,o),
(108,214,cs),
(108,230,o),
(97,241,o),
(81,241,cs),
(66,241,o),
(54,230,o),
(54,214,cs),
(54,83,o),
(151,-5,o),
(268,-5,cs),
(386,-5,o),
(483,83,o),
(483,214,cs),
(483,345,o),
(395,432,o),
(268,432,cs),
(226,432,o),
(184,420,o),
(149,397,cs),
(142,391,o),
(137,383,o),
(137,374,cs),
(137,359,o),
(149,347,o),
(165,347,cs),
(170,347,o),
(175,349,o),
(180,352,cs)
);
}
);
width = 528;
}
);
note = six;
unicode = 54;
},
{
glyphname = seven;
kernLeft = seven;
kernRight = seven;
lastChange = "2024-12-09 10:30:00 +0000";
layers = (
{
background = {
hints = (
{
horizontal = 1;
place = (320,24);
type = Stem;
},
{
horizontal = 1;
place = (423,22);
type = Stem;
},
{
horizontal = 1;
place = (653,24);
type = Stem;
},
{
place = (43,315);
type = Stem;
},
{
place = (44,20);
type = Stem;
}
);
shapes = (
{
closed = 1;
nodes = (
(111,607,ls),
(95,607,o),
(84,596,o),
(84,580,cs),
(84,565,o),
(95,553,o),
(111,553,cs),
(403,553,ls),
(418,553,o),
(430,565,o),
(430,580,cs),
(430,596,o),
(418,607,o),
(403,607,cs)
);
},
{
closed = 1;
nodes = (
(104,39,ls),
(103,35,o),
(102,31,o),
(102,27,cs),
(102,13,o),
(112,0,o),
(129,0,cs),
(139,0,o),
(149,5,o),
(153,15,cs),
(380,474,ls),
(382,477,o),
(383,482,o),
(383,485,cs),
(383,500,o),
(373,513,o),
(356,513,cs),
(346,513,o),
(336,507,o),
(331,497,cs)
);
},
{
closed = 0;
nodes = (
(77,618,l),
(421,618,l)
);
},
{
closed = 0;
nodes = (
(389,553,l),
(122,13,l)
);
}
);
};
layerId = m01;
shapes = (
{
closed = 1;
nodes = (
(47,660,ls),
(32,660,o),
(20,648,o),
(20,633,cs),
(20,617,o),
(32,606,o),
(47,606,cs),
(421,606,ls),
(436,606,o),
(448,617,o),
(448,633,cs),
(448,648,o),
(436,660,o),
(421,660,cs)
);
},
{
closed = 1;
nodes = (
(413,554,ls),
(414,558,o),
(415,561,o),
(415,566,cs),
(415,581,o),
(404,593,o),
(388,593,cs),
(377,593,o),
(368,587,o),
(364,578,cs),
(98,39,ls),
(96,35,o),
(95,32,o),
(95,27,cs),
(95,12,o),
(107,0,o),
(122,0,cs),
(133,0,o),
(142,6,o),
(147,15,cs)
);
}
);
width = 470;
}
);
note = seven;
unicode = 55;
},
{
glyphname = eight;
kernLeft = eight;
kernRight = eight;
lastChange = "2024-12-09 10:29:33 +0000";
layers = (
{
background = {
hints = (
{
horizontal = 1;
place = (2,24);
type = Stem;
},
{
horizontal = 1;
place = (656,24);
type = Stem;
},
{
place = (40,23);
type = Stem;
},
{
place = (197,24);
type = Stem;
},
{
place = (352,23);
type = Stem;
},
{
place = (50,23);
type = Stem;
},
{
place = (338,23);
type = Stem;
}
);
shapes = (
{
closed = 1;
nodes = (
(333,421,l),
(330,414,o),
(326,407,o),
(322,400,cs),
(318,396,o),
(316,391,o),
(316,384,cs),
(316,376,o),
(320,368,o),
(327,363,cs),
(332,359,o),
(337,357,o),
(344,357,cs),
(352,357,o),
(360,361,o),
(365,368,cs),
(372,378,o),
(379,389,o),
(383,400,cs),
(391,418,o),
(394,437,o),
(394,456,cs),
(394,475,o),
(391,494,o),
(383,512,cs),
(371,544,o),
(346,571,o),
(315,589,cs),
(293,601,o),
(268,607,o),
(242,607,cs),
(233,607,o),
(224,607,o),
(215,605,cs),
(171,597,o),
(134,569,o),
(113,535,cs),
(100,514,o),
(90,487,o),
(90,456,cs),
(90,441,o),
(92,427,o),
(97,412,cs),
(109,370,o),
(141,334,o),
(182,317,cs),
(193,313,o),
(219,306,o),
(244,304,cs),
(259,302,o),
(286,297,o),
(295,293,cs),
(325,278,o),
(348,250,o),
(359,219,cs),
(363,205,o),
(366,191,o),
(366,176,cs),
(366,158,o),
(363,140,o),
(355,124,cs),
(342,95,o),
(316,71,o),
(287,60,cs),
(274,55,o),
(259,52,o),
(245,52,cs),
(225,52,o),
(201,58,o),
(178,72,cs),
(146,93,o),
(124,129,o),
(120,167,cs),
(119,172,o),
(119,176,o),
(119,181,cs),
(119,207,o),
(127,230,o),
(137,247,cs),
(143,255,o),
(149,263,o),
(156,270,cs),
(162,276,o),
(165,283,o),
(165,290,cs),
(165,297,o),
(162,304,o),
(156,309,cs),
(151,315,o),
(144,317,o),
(137,317,cs),
(130,317,o),
(123,315,o),
(118,309,cs),
(108,299,o),
(99,287,o),
(91,275,cs),
(77,250,o),
(65,218,o),
(65,180,cs),
(65,174,o),
(65,167,o),
(66,161,cs),
(71,107,o),
(102,56,o),
(148,26,cs),
(181,5,o),
(216,-2,o),
(245,-2,cs),
(265,-2,o),
(286,2,o),
(305,9,cs),
(349,25,o),
(385,59,o),
(404,101,cs),
(415,125,o),
(420,151,o),
(420,177,cs),
(420,197,o),
(417,217,o),
(410,236,cs),
(395,281,o),
(363,320,o),
(320,341,cs),
(302,350,o),
(269,355,o),
(251,357,cs),
(232,359,o),
(213,363,o),
(204,367,cs),
(181,377,o),
(158,400,o),
(149,428,cs),
(146,437,o),
(145,446,o),
(145,456,cs),
(145,476,o),
(151,494,o),
(159,508,cs),
(173,530,o),
(197,548,o),
(226,553,cs),
(231,554,o),
(237,555,o),
(242,555,cs),
(259,555,o),
(275,551,o),
(289,542,cs),
(308,532,o),
(325,513,o),
(333,493,cs),
(337,482,o),
(340,469,o),
(340,457,cs),
(340,445,o),
(338,433,o),
(334,422,c)
);
},
{
closed = 0;
nodes = (
(278,330,l),
(349,344,o),
(401,404,o),
(401,476,cs),
(401,558,o),
(334,624,o),
(248,624,cs),
(162,624,o),
(94,558,o),
(94,476,cs),
(94,259,o),
(433,410,o),
(432,180,cs),
(432,86,o),
(348,9,o),
(248,9,cs),
(147,9,o),
(63,86,o),
(63,180,cs),
(63,259,o),
(129,329,o),
(213,344,c)
);
}
);
};
layerId = m01;
shapes = (
{
closed = 1;
nodes = (
(61,297,o),
(36,247,o),
(36,183,cs),
(36,74,o),
(133,-5,o),
(258,-5,cs),
(373,-5,o),
(459,74,o),
(459,183,cs),
(459,416,o),
(121,310,o),
(121,490,cs),
(121,570,o),
(173,610,o),
(248,610,cs),
(323,610,o),
(374,560,o),
(374,490,cs),
(374,459,o),
(364,437,o),
(345,413,cs),
(341,408,o),
(339,401,o),
(339,395,cs),
(339,380,o),
(351,368,o),
(366,368,cs),
(374,368,o),
(381,372,o),
(387,377,cs),
(413,408,o),
(428,447,o),
(428,490,cs),
(428,587,o),
(348,664,o),
(248,664,cs),
(147,664,o),
(67,597,o),
(67,490,cs),
(67,263,o),
(404,355,o),
(404,183,cs),
(404,101,o),
(347,50,o),
(258,50,cs),
(158,50,o),
(90,111,o),
(90,183,cs),
(90,232,o),
(107,265,o),
(137,292,cs),
(142,297,o),
(146,304,o),
(146,312,cs),
(146,327,o),
(134,339,o),
(118,339,cs),
(111,339,o),
(105,336,o),
(100,332,cs)
);
}
);
width = 495;
}
);
note = eight;
unicode = 56;
},
{
glyphname = nine;
kernLeft = nine;
kernRight = nine;
lastChange = "2023-10-27 14:16:26 +0000";
layers = (
{
background = {
hints = (
{
horizontal = 1;
place = (309,23);
type = Stem;
},
{
horizontal = 1;
place = (654,23);
type = Stem;
},
{
place = (39,23);
type = Stem;
},
{
place = (348,23);
type = Stem;
}
);
shapes = (
{
closed = 1;
nodes = (
(92,434,ls),
(95,463,o),
(108,492,o),
(131,514,cs),
(147,531,o),
(173,546,o),
(203,551,cs),
(211,552,o),
(218,553,o),
(225,553,cs),
(246,553,o),
(267,548,o),
(284,539,cs),
(299,530,o),
(315,515,o),
(327,494,cs),
(338,476,o),
(344,456,o),
(347,434,cs),
(349,423,o),
(350,411,o),
(350,400,cs),
(350,375,o),
(346,350,o),
(340,325,cs),
(326,274,o),
(300,224,o),
(266,179,cs),
(228,129,o),
(181,85,o),
(127,48,cs),
(119,42,o),
(116,34,o),
(116,25,cs),
(116,20,o),
(118,14,o),
(120,10,cs),
(126,2,o),
(134,-2,o),
(143,-2,cs),
(148,-2,o),
(154,0,o),
(158,3,cs),
(216,43,o),
(268,91,o),
(309,146,cs),
(347,195,o),
(377,251,o),
(392,312,cs),
(400,341,o),
(404,371,o),
(404,400,cs),
(404,414,o),
(403,428,o),
(401,441,cs),
(398,468,o),
(390,495,o),
(375,521,cs),
(357,551,o),
(333,571,o),
(310,584,cs),
(285,598,o),
(256,606,o),
(227,606,cs),
(217,606,o),
(207,605,o),
(197,603,cs),
(158,596,o),
(123,577,o),
(97,551,cs),
(65,520,o),
(45,479,o),
(42,437,cs),
(41,431,o),
(41,427,o),
(41,422,cs),
(41,383,o),
(54,344,o),
(80,314,cs),
(118,270,o),
(155,254,o),
(205,254,cs),
(219,254,o),
(234,256,o),
(250,258,cs),
(262,260,o),
(271,271,o),
(271,284,cs),
(271,300,o),
(257,313,o),
(240,310,cs),
(233,309,o),
(226,308,o),
(219,308,cs),
(207,308,o),
(195,310,o),
(184,313,cs),
(163,318,o),
(138,330,o),
(119,352,cs),
(101,372,o),
(92,399,o),
(92,425,cs)
);
}
);
};
layerId = m01;
shapes = (
{
angle = 180;
pos = (528,660);
ref = six;
}
);
width = 528;
}
);
note = nine;
unicode = 57;
},
{
glyphname = zero.zero;
lastChange = "2024-12-09 10:50:29 +0000";
layers = (
{
layerId = m01;
shapes = (
{
alignment = 1;
ref = zero;
},
{
closed = 1;
nodes = (
(213,116,ls),
(212,113,o),
(211,109,o),
(211,106,cs),
(211,90,o),
(223,78,o),
(238,78,cs),
(249,78,o),
(258,82,o),
(263,94,cs),
(454,543,ls),
(455,546,o),
(456,550,o),
(456,554,cs),
(456,569,o),
(444,581,o),
(429,581,cs),
(418,581,o),
(409,576,o),
(404,565,cs)
);
}
);
width = 667;
},
{
associatedMasterId = m01;
layerId = m004;
name = Black;
shapes = (
{
ref = zero;
},
{
pos = (129,80);
ref = slash;
}
);
width = 622;
}
);
},
{
glyphname = zero.blackCircled;
lastChange = "2024-12-09 10:23:19 +0000";
layers = (
{
layerId = m01;
shapes = (
{
locked = 1;
ref = _part.blackCircle;
scale = (0.9882,0.9882);
},
{
closed = 1;
nodes = (
(473,168,ls),
(394,168,o),
(363,245,o),
(363,323,cs),
(363,330,ls),
(363,408,o),
(394,485,o),
(473,485,cs),
(474,485,ls),
(485,485,o),
(494,493,o),
(494,504,cs),
(494,515,o),
(485,524,o),
(474,524,cs),
(473,524,ls),
(365,524,o),
(324,418,o),
(324,330,cs),
(324,323,ls),
(324,235,o),
(365,128,o),
(473,128,cs),
(474,128,ls),
(485,128,o),
(494,137,o),
(494,148,cs),
(494,159,o),
(485,168,o),
(474,168,cs)
);
},
{
closed = 1;
nodes = (
(528,485,ls),
(607,485,o),
(637,408,o),
(637,330,cs),
(637,323,ls),
(637,245,o),
(607,168,o),
(528,168,cs),
(527,168,ls),
(515,168,o),
(507,159,o),
(507,148,cs),
(507,137,o),
(515,128,o),
(527,128,cs),
(528,128,ls),
(635,128,o),
(677,235,o),
(677,323,cs),
(677,330,ls),
(677,418,o),
(635,524,o),
(528,524,cs),
(527,524,ls),
(515,524,o),
(507,515,o),
(507,504,cs),
(507,493,o),
(515,485,o),
(527,485,cs)
);
}
);
width = 1000;
}
);
metricLeft = "=40";
metricRight = "=|";
unicode = 9471;
},
{
glyphname = one.blackCircled;
lastChange = "2024-12-09 10:23:19 +0000";
layers = (
{
layerId = m01;
shapes = (
{
locked = 1;
ref = _part.blackCircle;
scale = (0.9882,0.9882);
},
{
closed = 1;
nodes = (
(501,151,ls),
(501,140,o),
(510,131,o),
(521,131,cs),
(531,131,o),
(540,140,o),
(540,151,cs),
(540,502,ls),
(540,513,o),
(531,522,o),
(521,522,cs),
(510,522,o),
(501,513,o),
(501,502,cs)
);
},
{
closed = 1;
nodes = (
(487,461,ls),
(492,464,o),
(496,471,o),
(496,478,cs),
(496,489,o),
(487,497,o),
(476,497,cs),
(472,497,o),
(468,497,o),
(466,494,c),
(410,460,ls),
(405,457,o),
(401,450,o),
(401,443,cs),
(401,433,o),
(410,424,o),
(421,424,cs),
(424,424,o),
(427,424,o),
(431,427,cs)
);
}
);
width = 1000;
}
);
metricLeft = "=40";
metricRight = "=|";
unicode = 10102;
},
{
glyphname = two.blackCircled;
lastChange = "2024-12-09 10:23:19 +0000";
layers = (
{
layerId = m01;
shapes = (
{
locked = 1;
ref = _part.blackCircle;
scale = (0.9882,0.9882);
},
{
closed = 1;
nodes = (
(600,130,ls),
(611,130,o),
(620,139,o),
(620,150,cs),
(620,160,o),
(611,169,o),
(600,169,cs),
(449,169,ls),
(437,169,o),
(428,160,o),
(428,150,cs),
(428,139,o),
(437,130,o),
(449,130,cs)
);
},
{
closed = 1;
nodes = (
(424,462,o),
(452,484,o),
(496,484,cs),
(540,484,o),
(568,462,o),
(568,419,cs),
(568,335,o),
(381,264,o),
(381,150,cs),
(381,139,o),
(390,130,o),
(401,130,cs),
(412,130,o),
(421,139,o),
(421,150,cs),
(421,237,o),
(607,308,o),
(607,419,cs),
(607,483,o),
(558,523,o),
(496,523,cs),
(434,523,o),
(385,483,o),
(385,419,cs),
(385,408,o),
(393,400,o),
(405,400,cs),
(415,400,o),
(424,408,o),
(424,419,cs)
);
}
);
width = 1000;
}
);
metricLeft = "=40";
metricRight = "=|";
unicode = 10103;
},
{
glyphname = three.blackCircled;
lastChange = "2024-12-09 10:23:19 +0000";
layers = (
{
layerId = m01;
shapes = (
{
locked = 1;
ref = _part.blackCircle;
scale = (0.9882,0.9882);
},
{
closed = 1;
nodes = (
(435,463,o),
(461,485,o),
(503,485,cs),
(545,485,o),
(571,463,o),
(571,420,cs),
(571,378,o),
(545,355,o),
(503,355,cs),
(477,355,ls),
(466,355,o),
(457,347,o),
(457,336,cs),
(457,325,o),
(466,316,o),
(477,316,cs),
(503,316,ls),
(563,316,o),
(610,357,o),
(610,420,cs),
(610,484,o),
(563,524,o),
(503,524,cs),
(444,524,o),
(396,484,o),
(396,420,cs),
(396,409,o),
(405,401,o),
(416,401,cs),
(427,401,o),
(435,409,o),
(435,420,cs)
);
},
{
closed = 1;
nodes = (
(369,172,o),
(428,128,o),
(501,128,cs),
(574,128,o),
(632,172,o),
(632,242,cs),
(632,281,o),
(615,311,o),
(589,330,cs),
(586,332,o),
(583,334,o),
(578,334,cs),
(567,334,o),
(558,325,o),
(558,314,cs),
(558,308,o),
(562,302,o),
(565,298,c),
(584,285,o),
(593,270,o),
(593,242,cs),
(593,226,o),
(586,168,o),
(501,168,cs),
(445,168,o),
(408,194,o),
(408,242,cs),
(408,252,o),
(400,261,o),
(389,261,cs),
(378,261,o),
(369,252,o),
(369,242,cs)
);
}
);
width = 1000;
}
);
metricLeft = "=40";
metricRight = "=|";
unicode = 10104;
},
{
glyphname = four.blackCircled;
lastChange = "2024-12-09 10:23:19 +0000";
layers = (
{
layerId = m01;
shapes = (
{
locked = 1;
ref = _part.blackCircle;
scale = (0.9882,0.9882);
},
{
closed = 1;
nodes = (
(539,151,ls),
(539,140,o),
(548,131,o),
(559,131,cs),
(570,131,o),
(579,140,o),
(579,151,cs),
(579,428,ls),
(579,440,o),
(570,448,o),
(559,448,cs),
(548,448,o),
(539,440,o),
(539,428,cs)
);
},
{
closed = 1;
nodes = (
(555,490,ls),
(557,493,o),
(559,497,o),
(559,502,cs),
(559,513,o),
(550,522,o),
(539,522,cs),
(533,522,o),
(526,518,o),
(523,513,cs),
(348,270,ls),
(346,267,o),
(344,264,o),
(344,258,cs),
(344,248,o),
(353,239,o),
(364,239,cs),
(370,239,o),
(376,243,o),
(379,246,c)
);
},
{
closed = 1;
nodes = (
(424,278,ls),
(413,278,o),
(404,270,o),
(404,258,cs),
(404,248,o),
(413,239,o),
(424,239,cs),
(511,239,ls),
(522,239,o),
(531,248,o),
(531,258,cs),
(531,270,o),
(522,278,o),
(511,278,cs)
);
}
);
width = 1000;
}
);
metricLeft = "=40";
metricRight = "=|";
unicode = 10105;
},
{
glyphname = five.blackCircled;
lastChange = "2024-12-09 10:23:19 +0000";
layers = (
{
layerId = m01;
shapes = (
{
locked = 1;
ref = _part.blackCircle;
scale = (0.9882,0.9882);
},
{
closed = 1;
nodes = (
(584,483,ls),
(595,483,o),
(604,492,o),
(604,503,cs),
(604,514,o),
(595,523,o),
(584,523,cs),
(405,523,ls),
(395,523,o),
(386,514,o),
(386,503,cs),
(386,492,o),
(395,483,o),
(405,483,cs)
);
},
{
closed = 1;
nodes = (
(369,179,o),
(428,129,o),
(501,129,cs),
(574,129,o),
(632,179,o),
(632,257,cs),
(632,317,o),
(606,385,o),
(500,385,cs),
(450,385,o),
(409,364,o),
(390,332,c),
(388,330,o),
(386,326,o),
(386,322,cs),
(386,311,o),
(395,302,o),
(405,302,cs),
(412,302,o),
(419,306,o),
(422,311,cs),
(436,333,o),
(460,346,o),
(500,346,cs),
(556,346,o),
(593,319,o),
(593,258,cs),
(593,208,o),
(572,169,o),
(501,169,cs),
(446,169,o),
(408,199,o),
(408,243,cs),
(408,253,o),
(400,262,o),
(389,262,cs),
(378,262,o),
(369,253,o),
(369,243,cs)
);
},
{
closed = 1;
nodes = (
(415,453,ls),
(415,464,o),
(407,473,o),
(395,473,cs),
(385,473,o),
(376,464,o),
(376,453,cs),
(376,389,ls),
(376,378,o),
(385,369,o),
(395,369,cs),
(407,369,o),
(415,378,o),
(415,389,cs)
);
}
);
width = 1000;
}
);
metricLeft = "=40";
metricRight = "=|";
unicode = 10106;
},
{
glyphname = six.blackCircled;
lastChange = "2024-12-09 10:23:19 +0000";
layers = (
{
layerId = m01;
shapes = (
{
locked = 1;
ref = _part.blackCircle;
scale = (0.9882,0.9882);
},
{
closed = 1;
nodes = (
(412,322,ls),
(412,442,o),
(425,485,o),
(500,485,cs),
(544,485,o),
(572,463,o),
(572,420,cs),
(572,409,o),
(581,401,o),
(591,401,cs),
(602,401,o),
(611,409,o),
(611,420,cs),
(611,484,o),
(561,524,o),
(500,524,cs),
(394,524,o),
(372,450,o),
(372,322,cs),
(372,309,ls),
(372,299,o),
(381,290,o),
(392,290,cs),
(403,290,o),
(412,299,o),
(412,309,cs)
);
},
{
closed = 1;
nodes = (
(467,345,o),
(482,350,o),
(500,350,cs),
(553,350,o),
(589,317,o),
(589,259,cs),
(589,201,o),
(552,168,o),
(500,168,cs),
(449,168,o),
(412,201,o),
(412,259,cs),
(412,270,o),
(403,279,o),
(392,279,cs),
(381,279,o),
(372,270,o),
(372,259,cs),
(372,181,o),
(431,128,o),
(500,128,cs),
(571,128,o),
(629,181,o),
(629,259,cs),
(629,337,o),
(570,389,o),
(500,389,cs),
(475,389,o),
(452,382,o),
(435,371,cs),
(430,368,o),
(426,361,o),
(426,355,cs),
(426,344,o),
(435,335,o),
(447,335,cs),
(451,335,o),
(454,337,o),
(457,339,cs)
);
}
);
width = 1000;
}
);
metricLeft = "=40";
metricRight = "=|";
unicode = 10107;
},
{
glyphname = seven.blackCircled;
lastChange = "2024-12-09 10:23:19 +0000";
layers = (
{
layerId = m01;
shapes = (
{
locked = 1;
ref = _part.blackCircle;
scale = (0.9882,0.9882);
},
{
closed = 1;
nodes = (
(400,522,ls),
(389,522,o),
(380,513,o),
(380,502,cs),
(380,491,o),
(389,482,o),
(400,482,cs),
(599,482,ls),
(610,482,o),
(619,491,o),
(619,502,cs),
(619,513,o),
(610,522,o),
(599,522,cs)
);
},
{
closed = 1;
nodes = (
(593,442,ls),
(599,454,o),
(595,471,o),
(575,471,cs),
(567,471,o),
(560,466,o),
(557,460,cs),
(408,160,ls),
(406,156,o),
(407,154,o),
(407,151,cs),
(407,140,o),
(415,131,o),
(426,131,cs),
(434,131,o),
(441,135,o),
(445,142,cs)
);
}
);
width = 1000;
}
);
metricLeft = "=40";
metricRight = "=|";
unicode = 10108;
},
{
glyphname = eight.blackCircled;
lastChange = "2024-12-09 10:23:19 +0000";
layers = (
{
layerId = m01;
shapes = (
{
locked = 1;
ref = _part.blackCircle;
scale = (0.9882,0.9882);
},
{
closed = 1;
nodes = (
(386,302,o),
(373,279,o),
(373,247,cs),
(373,182,o),
(431,128,o),
(500,128,cs),
(588,128,o),
(628,182,o),
(628,247,cs),
(628,379,o),
(430,314,o),
(430,419,cs),
(430,458,o),
(458,485,o),
(500,485,cs),
(541,485,o),
(569,458,o),
(569,419,cs),
(569,402,o),
(567,393,o),
(560,385,cs),
(558,382,o),
(555,377,o),
(555,373,cs),
(555,362,o),
(564,353,o),
(575,353,cs),
(581,353,o),
(587,357,o),
(590,360,cs),
(601,371,o),
(608,393,o),
(608,419,cs),
(608,477,o),
(560,524,o),
(500,524,cs),
(439,524,o),
(391,477,o),
(391,419,cs),
(391,275,o),
(587,340,o),
(587,246,cs),
(587,200,o),
(559,168,o),
(500,168,cs),
(450,168,o),
(412,201,o),
(412,247,cs),
(412,268,o),
(419,280,o),
(436,294,cs),
(439,297,o),
(443,303,o),
(443,309,cs),
(443,320,o),
(434,328,o),
(422,328,cs),
(417,328,o),
(413,326,o),
(409,323,cs)
);
}
);
width = 1000;
}
);
metricLeft = "=40";
metricRight = "=|";
unicode = 10109;
},
{
glyphname = nine.blackCircled;
lastChange = "2024-12-09 10:23:19 +0000";
layers = (
{
layerId = m01;
shapes = (
{
locked = 1;
ref = _part.blackCircle;
scale = (0.9882,0.9882);
},
{
closed = 1;
nodes = (
(590,330,ls),
(590,210,o),
(577,167,o),
(502,167,cs),
(458,167,o),
(430,189,o),
(430,232,cs),
(430,243,o),
(421,251,o),
(411,251,cs),
(400,251,o),
(391,243,o),
(391,232,cs),
(391,168,o),
(441,128,o),
(502,128,cs),
(608,128,o),
(630,202,o),
(630,330,cs),
(630,343,ls),
(630,353,o),
(621,362,o),
(610,362,cs),
(599,362,o),
(590,353,o),
(590,343,cs)
);
},
{
closed = 1;
nodes = (
(535,307,o),
(520,302,o),
(502,302,cs),
(449,302,o),
(413,335,o),
(413,393,cs),
(413,451,o),
(450,484,o),
(502,484,cs),
(553,484,o),
(590,451,o),
(590,393,cs),
(590,382,o),
(599,373,o),
(610,373,cs),
(621,373,o),
(630,382,o),
(630,393,cs),
(630,471,o),
(571,524,o),
(502,524,cs),
(431,524,o),
(373,471,o),
(373,393,cs),
(373,315,o),
(432,263,o),
(502,263,cs),
(527,263,o),
(550,270,o),
(567,281,cs),
(572,284,o),
(576,291,o),
(576,297,cs),
(576,308,o),
(567,317,o),
(555,317,cs),
(551,317,o),
(548,315,o),
(545,313,cs)
);
}
);
width = 1000;
}
);
metricLeft = "=40";
metricRight = "=|";
unicode = 10110;
},
{
glyphname = zero.circled;
lastChange = "2024-12-09 10:13:01 +0000";
layers = (
{
layerId = m01;
shapes = (
{
locked = 1;
pos = (1,0);
ref = _part.circle;
scale = (0.9882,0.9882);
},
{
closed = 1;
nodes = (
(474,168,ls),
(395,168,o),
(364,245,o),
(364,323,cs),
(364,330,ls),
(364,408,o),
(395,485,o),
(474,485,cs),
(475,485,ls),
(486,485,o),
(495,493,o),
(495,504,cs),
(495,515,o),
(486,524,o),
(475,524,cs),
(474,524,ls),
(366,524,o),
(325,418,o),
(325,330,cs),
(325,323,ls),
(325,235,o),
(366,128,o),
(474,128,cs),
(475,128,ls),
(486,128,o),
(495,137,o),
(495,148,cs),
(495,159,o),
(486,168,o),
(475,168,cs)
);
},
{
closed = 1;
nodes = (
(529,485,ls),
(608,485,o),
(638,408,o),
(638,330,cs),
(638,323,ls),
(638,245,o),
(608,168,o),
(529,168,cs),
(528,168,ls),
(516,168,o),
(508,159,o),
(508,148,cs),
(508,137,o),
(516,128,o),
(528,128,cs),
(529,128,ls),
(636,128,o),
(678,235,o),
(678,323,cs),
(678,330,ls),
(678,418,o),
(636,524,o),
(529,524,cs),
(528,524,ls),
(516,524,o),
(508,515,o),
(508,504,cs),
(508,493,o),
(516,485,o),
(528,485,cs)
);
}
);
width = 995;
}
);
metricLeft = "=40";
metricRight = "=|";
unicode = 9450;
},
{
glyphname = one.circled;
lastChange = "2024-12-09 10:13:46 +0000";
layers = (
{
layerId = m01;
shapes = (
{
locked = 1;
pos = (1,0);
ref = _part.circle;
scale = (0.9882,0.9882);
},
{
closed = 1;
nodes = (
(502,151,ls),
(502,140,o),
(511,131,o),
(522,131,cs),
(532,131,o),
(541,140,o),
(541,151,cs),
(541,502,ls),
(541,513,o),
(532,522,o),
(522,522,cs),
(511,522,o),
(502,513,o),
(502,502,cs)
);
},
{
closed = 1;
nodes = (
(488,461,ls),
(493,464,o),
(497,471,o),
(497,478,cs),
(497,489,o),
(488,497,o),
(477,497,cs),
(473,497,o),
(469,497,o),
(467,494,c),
(411,460,ls),
(406,457,o),
(402,450,o),
(402,443,cs),
(402,433,o),
(411,424,o),
(422,424,cs),
(425,424,o),
(428,424,o),
(432,427,cs)
);
}
);
width = 995;
}
);
metricLeft = "=40";
metricRight = "=|";
unicode = 9312;
},
{
glyphname = two.circled;
lastChange = "2024-12-09 10:13:01 +0000";
layers = (
{
layerId = m01;
shapes = (
{
locked = 1;
pos = (1,0);
ref = _part.circle;
scale = (0.9882,0.9882);
},
{
closed = 1;
nodes = (
(601,130,ls),
(612,130,o),
(621,139,o),
(621,150,cs),
(621,160,o),
(612,169,o),
(601,169,cs),
(450,169,ls),
(438,169,o),
(429,160,o),
(429,150,cs),
(429,139,o),
(438,130,o),
(450,130,cs)
);
},
{
closed = 1;
nodes = (
(425,462,o),
(453,484,o),
(497,484,cs),
(541,484,o),
(569,462,o),
(569,419,cs),
(569,335,o),
(382,264,o),
(382,150,cs),
(382,139,o),
(391,130,o),
(402,130,cs),
(413,130,o),
(422,139,o),
(422,150,cs),
(422,237,o),
(608,308,o),
(608,419,cs),
(608,483,o),
(559,523,o),
(497,523,cs),
(435,523,o),
(386,483,o),
(386,419,cs),
(386,408,o),
(394,400,o),
(406,400,cs),
(416,400,o),
(425,408,o),
(425,419,cs)
);
}
);
width = 995;
}
);
metricLeft = "=40";
metricRight = "=|";
unicode = 9313;
},
{
glyphname = three.circled;
lastChange = "2024-12-09 10:14:04 +0000";
layers = (
{
layerId = m01;
shapes = (
{
locked = 1;
pos = (1,0);
ref = _part.circle;
scale = (0.9882,0.9882);
},
{
closed = 1;
nodes = (
(436,463,o),
(462,485,o),
(504,485,cs),
(546,485,o),
(572,463,o),
(572,420,cs),
(572,378,o),
(546,355,o),
(504,355,cs),
(478,355,ls),
(467,355,o),
(458,347,o),
(458,336,cs),
(458,325,o),
(467,316,o),
(478,316,cs),
(504,316,ls),
(564,316,o),
(611,357,o),
(611,420,cs),
(611,484,o),
(564,524,o),
(504,524,cs),
(445,524,o),
(397,484,o),
(397,420,cs),
(397,409,o),
(406,401,o),
(417,401,cs),
(428,401,o),
(436,409,o),
(436,420,cs)
);
},
{
closed = 1;
nodes = (
(370,172,o),
(429,128,o),
(502,128,cs),
(575,128,o),
(633,172,o),
(633,242,cs),
(633,281,o),
(616,311,o),
(590,330,cs),
(587,332,o),
(584,334,o),
(579,334,cs),
(568,334,o),
(559,325,o),
(559,314,cs),
(559,308,o),
(563,302,o),
(566,298,c),
(585,285,o),
(594,270,o),
(594,242,cs),
(594,226,o),
(587,168,o),
(502,168,cs),
(446,168,o),
(409,194,o),
(409,242,cs),
(409,252,o),
(401,261,o),
(390,261,cs),
(379,261,o),
(370,252,o),
(370,242,cs)
);
}
);
width = 995;
}
);
metricLeft = "=40";
metricRight = "=|";
unicode = 9314;
},
{
glyphname = four.circled;
lastChange = "2024-12-09 10:14:21 +0000";
layers = (
{
layerId = m01;
shapes = (
{
locked = 1;
pos = (1,0);
ref = _part.circle;
scale = (0.9882,0.9882);
},
{
closed = 1;
nodes = (
(540,151,ls),
(540,140,o),
(549,131,o),
(560,131,cs),
(571,131,o),
(580,140,o),
(580,151,cs),
(580,428,ls),
(580,440,o),
(571,448,o),
(560,448,cs),
(549,448,o),
(540,440,o),
(540,428,cs)
);
},
{
closed = 1;
nodes = (
(556,490,ls),
(558,493,o),
(560,497,o),
(560,502,cs),
(560,513,o),
(551,522,o),
(540,522,cs),
(534,522,o),
(527,518,o),
(524,513,cs),
(349,270,ls),
(347,267,o),
(345,264,o),
(345,258,cs),
(345,248,o),
(354,239,o),
(365,239,cs),
(371,239,o),
(377,243,o),
(380,246,c)
);
},
{
closed = 1;
nodes = (
(425,278,ls),
(414,278,o),
(405,270,o),
(405,258,cs),
(405,248,o),
(414,239,o),
(425,239,cs),
(512,239,ls),
(523,239,o),
(532,248,o),
(532,258,cs),
(532,270,o),
(523,278,o),
(512,278,cs)
);
}
);
width = 995;
}
);
metricLeft = "=40";
metricRight = "=|";
unicode = 9315;
},
{
glyphname = five.circled;
lastChange = "2024-12-09 10:14:49 +0000";
layers = (
{
layerId = m01;
shapes = (
{
locked = 1;
pos = (1,0);
ref = _part.circle;
scale = (0.9882,0.9882);
},
{
closed = 1;
nodes = (
(585,483,ls),
(596,483,o),
(605,492,o),
(605,503,cs),
(605,514,o),
(596,523,o),
(585,523,cs),
(406,523,ls),
(396,523,o),
(387,514,o),
(387,503,cs),
(387,492,o),
(396,483,o),
(406,483,cs)
);
},
{
closed = 1;
nodes = (
(370,179,o),
(429,129,o),
(502,129,cs),
(575,129,o),
(633,179,o),
(633,257,cs),
(633,317,o),
(607,385,o),
(501,385,cs),
(451,385,o),
(410,364,o),
(391,332,c),
(389,330,o),
(387,326,o),
(387,322,cs),
(387,311,o),
(396,302,o),
(406,302,cs),
(413,302,o),
(420,306,o),
(423,311,cs),
(437,333,o),
(461,346,o),
(501,346,cs),
(557,346,o),
(594,319,o),
(594,258,cs),
(594,208,o),
(573,169,o),
(502,169,cs),
(447,169,o),
(409,199,o),
(409,243,cs),
(409,253,o),
(401,262,o),
(390,262,cs),
(379,262,o),
(370,253,o),
(370,243,cs)
);
},
{
closed = 1;
nodes = (
(416,453,ls),
(416,464,o),
(408,473,o),
(396,473,cs),
(386,473,o),
(377,464,o),
(377,453,cs),
(377,389,ls),
(377,378,o),
(386,369,o),
(396,369,cs),
(408,369,o),
(416,378,o),
(416,389,cs)
);
}
);
width = 995;
}
);
metricLeft = "=40";
metricRight = "=|";
unicode = 9316;
},
